<svg width="20" height="26" viewBox="0 0 20 26" fill="none" xmlns="http://www.w3.org/2000/svg">
<path fill-rule="evenodd" clip-rule="evenodd" d="M12.1339 4.26777C12.1339 5.44628 11.1785 6.40165 9.99997 6.40165C8.82146 6.40165 7.86609 5.44628 7.86609 4.26777C7.86609 3.08926 8.82146 2.13388 9.99997 2.13388C11.1785 2.13388 12.1339 3.08925 12.1339 4.26777ZM12.8229 7.4686C13.7089 6.68659 14.2677 5.54244 14.2677 4.26777C14.2677 1.91074 12.357 -2.06057e-07 9.99997 0C7.64295 2.06058e-07 5.73221 1.91074 5.73221 4.26777C5.73221 5.54244 6.29103 6.68659 7.17704 7.4686H5.73223C5.44926 7.4686 5.17788 7.58101 4.97779 7.7811L0.785849 11.973C-0.261951 13.0208 -0.261948 14.7197 0.78585 15.7675C1.73 16.7116 3.22471 16.8178 4.29289 16.0167L4.95163 15.5226L2.96755 22.7976C2.58172 24.2123 3.6467 25.6066 5.11306 25.6066C5.85662 25.6066 6.55098 25.235 6.96344 24.6163L10.0513 19.9846L13.6823 24.826C14.0509 25.3174 14.6293 25.6066 15.2435 25.6066C16.5303 25.6066 17.4648 24.3831 17.1263 23.1416L15.0484 15.5226L15.7071 16.0167C16.7753 16.8178 18.27 16.7116 19.2141 15.7675C20.2619 14.7197 20.2619 13.0208 19.2141 11.973L15.0222 7.7811C14.8221 7.58101 14.5507 7.4686 14.2678 7.4686H12.8229ZM2.29473 13.4819L6.17417 9.60248H13.8258L17.7053 13.4819C17.9197 13.6964 17.9197 14.0441 17.7053 14.2586C17.512 14.4518 17.2061 14.4736 16.9874 14.3096L13.841 11.9498C13.4763 11.6763 12.9782 11.6646 12.6012 11.9208C12.2242 12.1769 12.0515 12.6443 12.1715 13.084L14.8162 22.7814L10.8536 17.4979C10.6458 17.2208 10.3165 17.0619 9.9704 17.0715C9.62427 17.0811 9.30432 17.2581 9.11225 17.5462L5.18794 23.4327C5.17125 23.4577 5.14315 23.4727 5.11306 23.4727C5.05372 23.4727 5.01063 23.4163 5.02624 23.3591L7.82852 13.084C7.94845 12.6443 7.77579 12.1769 7.39877 11.9208C7.02175 11.6646 6.52365 11.6763 6.15901 11.9498L3.01256 14.3096C2.79393 14.4736 2.48798 14.4518 2.29473 14.2586C2.08027 14.0441 2.08027 13.6964 2.29473 13.4819Z" fill="white"/>
</svg>
