<svg width="376" height="70" viewBox="0 0 376 70" fill="none" xmlns="http://www.w3.org/2000/svg">
<path d="M4.96 38.92C4.13333 38.8667 3.64 38.72 3.48 38.48C3.34667 38.24 3.28 37.9867 3.28 37.72C3.41333 37.32 3.56 36.9333 3.72 36.56C3.90667 36.1867 4.04 35.7867 4.12 35.36C4.2 35.0133 4.28 34.6933 4.36 34.4C4.44 34.1067 4.53333 33.7867 4.64 33.44C4.85333 32.8 5.09333 32.0133 5.36 31.08C5.65333 30.1467 5.96 29.2133 6.28 28.28C6.6 27.3467 6.88 26.5733 7.12 25.96C7.33333 25.3467 7.50667 24.8267 7.64 24.4C7.8 23.9733 7.96 23.56 8.12 23.16C8.28 22.76 8.45333 22.28 8.64 21.72C8.77333 21.3733 8.89333 21.04 9 20.72C9.10667 20.3733 9.21333 20.0267 9.32 19.68C9.45333 19.3333 9.57333 19 9.68 18.68C9.81333 18.3333 9.93333 17.9867 10.04 17.64C10.3333 17.0267 10.5867 16.44 10.8 15.88C11.04 15.32 11.2533 14.7067 11.44 14.04C11.5467 13.8 11.5333 13.6267 11.4 13.52C11.2933 13.4133 11.24 13.1867 11.24 12.84C11.2133 12.52 11.2933 12.2933 11.48 12.16C11.6933 12 11.96 11.96 12.28 12.04C12.6533 12.12 13.1733 12.1867 13.84 12.24C14.5333 12.2933 15.16 12.32 15.72 12.32C16.3067 12.2933 16.6267 12.2667 16.68 12.24C16.8133 12.1867 17.2533 12.1067 18 12C18.7467 11.8667 19.6533 11.72 20.72 11.56C21.7867 11.4 22.88 11.2533 24 11.12C25.1467 10.9867 26.16 10.8667 27.04 10.76C27.3333 10.7067 27.6133 10.7067 27.88 10.76C28.1733 10.8133 28.4533 10.8667 28.72 10.92C29.0667 10.9733 29.4133 11.16 29.76 11.48C30.1067 11.8 30.2267 12.1867 30.12 12.64C30.0133 12.9333 29.7867 13.0933 29.44 13.12C29.0933 13.12 28.6267 13.0667 28.04 12.96C27.9867 12.96 27.9333 13.0667 27.88 13.28C27.8267 13.4933 27.76 13.7467 27.68 14.04C27.6267 14.3333 27.5333 14.64 27.4 14.96C27.24 15.1467 27.0533 15.5067 26.84 16.04C26.6533 16.5733 26.4533 17.16 26.24 17.8C26.0267 18.44 25.8533 19.0267 25.72 19.56C25.5867 20.0933 25.52 20.4667 25.52 20.68C25.1467 21.2667 24.88 21.9067 24.72 22.6C24.5867 23.2933 24.4133 23.9467 24.2 24.56C24.1733 24.6667 24.0667 25.04 23.88 25.68C23.72 26.2933 23.52 27.04 23.28 27.92C23.04 28.8 22.8 29.68 22.56 30.56C22.32 31.4133 22.12 32.1467 21.96 32.76C21.8 33.3733 21.72 33.72 21.72 33.8C21.6933 34.3333 21.6267 34.88 21.52 35.44C21.44 36 21.3867 36.5467 21.36 37.08C21.3867 37.1867 21.4 37.28 21.4 37.36C21.4 37.4133 21.3467 37.4667 21.24 37.52C21.0267 37.7067 20.6667 37.8 20.16 37.8C19.6533 37.7733 19.3333 37.68 19.2 37.52C19.0933 37.3067 19 37.12 18.92 36.96C18.84 36.7733 18.8133 36.5733 18.84 36.36C18.8933 35.6133 18.9867 34.8667 19.12 34.12C19.2533 33.3733 19.3733 32.6533 19.48 31.96C19.6133 31.2667 19.7733 30.64 19.96 30.08C20.1467 29.52 20.28 29.2133 20.36 29.16L21.12 26.32C21.4133 25.52 21.6 24.8933 21.68 24.44C21.76 23.96 21.84 23.4933 21.92 23.04C22.0267 22.5867 22.2133 22 22.48 21.28C22.7467 20.6133 22.96 19.9467 23.12 19.28C23.3067 18.5867 23.4933 17.9067 23.68 17.24C23.8667 16.6 24.0533 16.04 24.24 15.56C24.4267 15.0533 24.5733 14.6133 24.68 14.24C24.8133 13.8667 24.8667 13.5467 24.84 13.28C24.2533 13.3333 23.7067 13.4 23.2 13.48C22.72 13.56 22.2133 13.64 21.68 13.72C21.1733 13.7733 20.5467 13.8533 19.8 13.96C19.3467 14.0133 18.7467 14.1067 18 14.24C17.2533 14.3467 16.56 14.4533 15.92 14.56C15.3067 14.64 14.92 14.68 14.76 14.68C14.5733 14.7067 14.4133 14.76 14.28 14.84C14.1467 14.92 14.08 15.0267 14.08 15.16C13.68 15.96 13.2933 16.7733 12.92 17.6C12.5467 18.4 12.2133 19.1733 11.92 19.92C11.6533 20.64 11.4533 21.28 11.32 21.84C11.2667 21.9467 11.16 22.2133 11 22.64C10.84 23.0667 10.6533 23.56 10.44 24.12C10.2267 24.68 10.0267 25.2133 9.84 25.72C9.65333 26.2267 9.50667 26.6267 9.4 26.92C9.32 27.1867 9.29333 27.2533 9.32 27.12C8.92 28.4 8.58667 29.4133 8.32 30.16C8.08 30.88 7.88 31.4533 7.72 31.88C7.56 32.3067 7.42667 32.68 7.32 33C7.21333 33.32 7.10667 33.7067 7 34.16C6.84 34.5867 6.70667 35.0267 6.6 35.48C6.49333 35.9333 6.38667 36.3867 6.28 36.84C6.25333 36.9733 6.21333 37.12 6.16 37.28C6.13333 37.44 6.08 37.7733 6 38.28C5.89333 38.4933 5.76 38.6533 5.6 38.76C5.46667 38.8933 5.25333 38.9467 4.96 38.92ZM32.5006 37.56C31.7273 37.6933 31.0206 37.6533 30.3806 37.44C29.7406 37.2 29.2206 36.8133 28.8206 36.28C28.4473 35.72 28.2606 35.0133 28.2606 34.16C28.1806 33.36 28.274 32.44 28.5406 31.4C28.8073 30.3333 29.194 29.2667 29.7006 28.2C30.234 27.1333 30.8073 26.2133 31.4206 25.44C31.954 24.8 32.4873 24.2133 33.0206 23.68C33.554 23.1467 34.034 22.7867 34.4606 22.6C34.834 22.44 35.1806 22.3467 35.5006 22.32C35.8473 22.2667 36.1273 22.24 36.3406 22.24C36.7673 22.3467 37.2206 22.5467 37.7006 22.84C38.2073 23.1067 38.4606 23.4 38.4606 23.72C38.4606 23.72 38.4873 23.76 38.5406 23.84C38.6206 23.8933 38.6606 23.92 38.6606 23.92C38.8206 23.92 38.954 24.0933 39.0606 24.44C39.194 24.7867 39.274 25.1867 39.3006 25.64C39.3273 26.0667 39.2606 26.4267 39.1006 26.72C38.994 27.2267 38.8073 27.6667 38.5406 28.04C38.274 28.4133 38.034 28.6 37.8206 28.6C37.714 28.6 37.6073 28.6133 37.5006 28.64C37.4206 28.64 37.3806 28.7067 37.3806 28.84C37.3806 28.9733 37.3006 29.0267 37.1406 29C37.0073 28.9733 36.8606 28.8933 36.7006 28.76C36.5406 28.6 36.4206 28.4133 36.3406 28.2C36.3406 28.0667 36.394 27.84 36.5006 27.52C36.6073 27.2 36.714 26.7867 36.8206 26.28C36.9806 25.5333 36.9673 25.0533 36.7806 24.84C36.594 24.6 36.234 24.5867 35.7006 24.8C35.034 25.1733 34.394 25.6933 33.7806 26.36C33.194 27.0267 32.6473 27.8933 32.1406 28.96C31.634 30 31.1806 31.3067 30.7806 32.88C30.6206 33.4933 30.554 34.0267 30.5806 34.48C30.634 34.9333 30.7006 35.1733 30.7806 35.2C31.154 35.3067 31.6606 35.3333 32.3006 35.28C32.9406 35.2 33.4073 35.08 33.7006 34.92C34.1273 34.7067 34.6073 34.4267 35.1406 34.08C35.674 33.7067 36.1406 33.3733 36.5406 33.08C36.674 33 36.834 32.8667 37.0206 32.68C37.2073 32.4933 37.4073 32.3467 37.6206 32.24C37.834 31.92 38.0206 31.7333 38.1806 31.68C38.3406 31.6267 38.5806 31.6 38.9006 31.6C39.114 31.6533 39.314 31.7333 39.5006 31.84C39.6873 31.9467 39.8073 32.0533 39.8606 32.16C39.9406 32.2667 39.9006 32.36 39.7406 32.44C39.634 32.44 39.5673 32.48 39.5406 32.56C39.5406 32.6133 39.5406 32.64 39.5406 32.64C39.594 32.7467 39.474 32.9733 39.1806 33.32C38.914 33.64 38.5673 34 38.1406 34.4C37.714 34.8 37.3006 35.1467 36.9006 35.44C36.5273 35.7067 36.2606 35.84 36.1006 35.84C35.834 35.84 35.7006 35.92 35.7006 36.08C35.7006 36.1333 35.5006 36.2667 35.1006 36.48C34.7273 36.6933 34.2873 36.9067 33.7806 37.12C33.3006 37.3333 32.874 37.48 32.5006 37.56ZM51.5288 37.92C51.2621 37.6533 50.9954 37.2933 50.7288 36.84C50.4621 36.36 50.2488 35.8133 50.0888 35.2C50.0354 34.9867 50.0088 34.6933 50.0088 34.32C50.0354 33.9467 50.0354 33.68 50.0088 33.52C49.9288 33.7067 49.7954 33.9067 49.6088 34.12C49.4488 34.3067 49.2888 34.4667 49.1288 34.6C49.0221 34.7067 48.7821 34.92 48.4088 35.24C48.0354 35.5333 47.6621 35.7733 47.2888 35.96C46.4088 36.52 45.6754 36.8267 45.0888 36.88C44.5288 36.9333 43.9954 36.64 43.4888 36C43.0621 35.6533 42.7554 35.2667 42.5688 34.84C42.4088 34.4133 42.4088 33.8267 42.5688 33.08C42.6221 32.1467 42.7554 31.24 42.9688 30.36C43.1821 29.4533 43.6221 28.2533 44.2888 26.76C44.8488 25.6667 45.2754 24.8667 45.5688 24.36C45.8621 23.8267 46.0488 23.5067 46.1288 23.4C46.5288 23.2667 46.8621 23.28 47.1288 23.44C47.3954 23.5733 47.5554 23.8267 47.6088 24.2C47.7688 24.4667 47.7421 24.92 47.5288 25.56C47.3421 26.2 47.0088 26.9867 46.5288 27.92C46.1554 28.8267 45.8088 29.7333 45.4888 30.64C45.1954 31.5467 45.0221 32.32 44.9688 32.96C44.9154 33.6 45.0754 33.9867 45.4488 34.12C45.6888 34.2533 46.1021 34.2133 46.6888 34C47.3021 33.7867 47.9821 33.2533 48.7288 32.4C49.5021 31.5467 50.2488 30.2533 50.9688 28.52C51.1821 27.9867 51.3421 27.52 51.4488 27.12C51.5554 26.6933 51.6221 26.2267 51.6488 25.72C51.5954 25.4 51.6088 25.12 51.6888 24.88C51.7954 24.6133 52.0088 24.3867 52.3288 24.2C52.4354 24.0667 52.5821 23.9467 52.7688 23.84C52.9554 23.7067 53.0754 23.7067 53.1288 23.84L53.7688 23.8C53.8754 23.7733 53.9421 23.84 53.9688 24C54.0221 24.1333 54.1154 24.2533 54.2488 24.36C54.5421 24.6 54.6221 25.12 54.4888 25.92C54.3554 26.72 53.9821 27.84 53.3688 29.28C52.8621 30.3733 52.5154 31.2 52.3288 31.76C52.1688 32.32 52.0754 32.8667 52.0488 33.4C52.0488 33.88 52.1421 34.3333 52.3288 34.76C52.5154 35.1867 52.8088 35.5733 53.2088 35.92C53.5021 36.1067 53.6621 36.32 53.6888 36.56C53.7421 36.8 53.7554 37.08 53.7288 37.4C53.6754 37.64 53.5154 37.84 53.2488 38C53.0088 38.1333 52.7288 38.2 52.4088 38.2C52.0888 38.2 51.7954 38.1067 51.5288 37.92ZM56.1734 37.72C55.7468 37.7467 55.4401 37.5467 55.2534 37.12C55.0934 36.6933 55.2934 36.16 55.8534 35.52C55.9868 35.3867 56.2134 35.1467 56.5334 34.8C56.8801 34.4267 57.2534 34 57.6534 33.52C58.0801 33.04 58.4934 32.56 58.8934 32.08L60.8934 29.72L62.6934 27.96L65.0134 25.4C65.8134 24.5467 66.4401 23.9467 66.8934 23.6C67.3468 23.2267 67.7201 23.04 68.0134 23.04C68.3068 23.0133 68.5868 23.1333 68.8534 23.4C68.9868 23.48 69.0534 23.6 69.0534 23.76C69.0801 23.92 69.0934 24.0533 69.0934 24.16C69.1468 24.3467 68.9201 24.76 68.4134 25.4C67.9334 26.04 67.0801 26.9733 65.8534 28.2C65.1601 28.68 64.5868 29.16 64.1334 29.64C63.7068 30.12 63.5068 30.4133 63.5334 30.52C63.1068 31 62.7468 31.3867 62.4534 31.68C62.1868 31.9733 61.9068 32.2667 61.6134 32.56C61.3468 32.8267 61.0268 33.16 60.6534 33.56C60.3068 33.9333 59.8401 34.4667 59.2534 35.16C58.5868 35.96 57.9734 36.5733 57.4134 37C56.8801 37.4267 56.4668 37.6667 56.1734 37.72ZM66.2534 39C66.0668 39 65.8134 38.88 65.4934 38.64C65.1734 38.4267 64.8534 38.1467 64.5334 37.8C64.2401 37.4533 63.9868 37.12 63.7734 36.8L63.1734 35.64V35.68C62.9868 35.3067 62.7868 34.92 62.5734 34.52C62.3868 34.0933 62.2668 33.76 62.2134 33.52C62.2134 33.4667 62.1868 33.3867 62.1334 33.28C62.1068 33.1733 62.0134 32.8933 61.8534 32.44C61.6934 31.9867 61.3868 31.2267 60.9334 30.16L60.3334 28C60.1734 27.44 60.0001 26.9067 59.8134 26.4C59.6268 25.8667 59.4668 25.5067 59.3334 25.32C59.1468 24.9733 59.0534 24.76 59.0534 24.68C59.0534 24.5733 59.1201 24.3867 59.2534 24.12L59.3334 24.08C59.5468 23.8133 59.7601 23.6267 59.9734 23.52C60.1868 23.4133 60.4401 23.4 60.7334 23.48C60.9468 23.6133 61.1601 23.8933 61.3734 24.32C61.6134 24.72 61.8268 25.16 62.0134 25.64C62.2268 26.0933 62.4001 26.52 62.5334 26.92V26.88L63.0134 28.32L63.6134 30.52C63.5601 30.6533 63.5868 30.92 63.6934 31.32C63.8268 31.72 63.9868 32.2 64.1734 32.76L64.4134 33.72C64.5201 33.96 64.6534 34.2267 64.8134 34.52C64.9734 34.7867 65.0934 35.0267 65.1734 35.24V35.2C65.3068 35.5467 65.4401 35.8667 65.5734 36.16C65.7068 36.4533 65.8134 36.6933 65.8934 36.88C66.0001 37.0667 66.0668 37.16 66.0934 37.16C66.2534 37.2667 66.3334 37.3333 66.3334 37.36C66.3601 37.3867 66.3868 37.4267 66.4134 37.48C66.4401 37.56 66.4801 37.64 66.5334 37.72C66.6134 37.8 66.6668 37.88 66.6934 37.96C66.7734 38.1467 66.8134 38.3067 66.8134 38.44C66.8401 38.6 66.8001 38.72 66.6934 38.8C66.6134 38.9067 66.4668 38.9733 66.2534 39ZM74.6844 36.48C74.1244 36.5867 73.7644 36.6267 73.6044 36.6C73.471 36.5467 73.2577 36.3867 72.9644 36.12C72.5377 35.9067 72.1777 35.64 71.8844 35.32C71.6177 35 71.4177 34.6667 71.2844 34.32C71.1777 33.9467 71.1377 33.64 71.1644 33.4C71.2444 32.4667 71.471 31.4667 71.8444 30.4C72.2177 29.3333 72.671 28.3067 73.2044 27.32C73.7377 26.3333 74.311 25.4933 74.9244 24.8C75.5644 24.08 76.1777 23.6133 76.7644 23.4C77.2977 23.1867 77.8044 23.1067 78.2844 23.16C78.7644 23.2133 79.111 23.4667 79.3244 23.92C79.7244 24.6933 79.631 25.1867 79.0444 25.4C78.9644 25.4 78.871 25.44 78.7644 25.52C78.6577 25.5733 78.6044 25.6533 78.6044 25.76C78.711 25.8133 79.0044 25.8267 79.4844 25.8C79.9644 25.7467 80.4444 25.6667 80.9244 25.56C81.431 25.4267 81.7644 25.2933 81.9244 25.16C82.0844 25.08 82.2044 25.04 82.2844 25.04C82.3644 25.04 82.5644 25.0667 82.8844 25.12C83.3377 25.2533 83.5644 25.4133 83.5644 25.6C83.5644 25.7067 83.6044 25.8133 83.6844 25.92C83.7644 26 83.8577 26.04 83.9644 26.04C84.151 26.0667 84.1244 26.1867 83.8844 26.4C83.671 26.6133 83.2977 26.9067 82.7644 27.28C82.2577 27.6 81.9377 27.8133 81.8044 27.92C81.6977 28 81.6844 28.1867 81.7644 28.48C81.9777 28.9867 81.991 29.5733 81.8044 30.24C81.6177 30.9067 81.2844 31.5867 80.8044 32.28C80.3244 32.9733 79.7377 33.6267 79.0444 34.24C78.3777 34.8267 77.6577 35.3333 76.8844 35.76C76.1377 36.16 75.4044 36.4 74.6844 36.48ZM74.0044 34.72C74.111 34.72 74.2977 34.6667 74.5644 34.56C74.831 34.4267 75.0444 34.32 75.2044 34.24C75.311 34.1333 75.4444 34.0133 75.6044 33.88C75.791 33.72 75.9377 33.6267 76.0444 33.6C76.151 33.6 76.2844 33.56 76.4444 33.48C76.6044 33.3733 76.831 33.1733 77.1244 32.88C77.4177 32.56 77.8044 32.0933 78.2844 31.48C78.8177 30.8933 79.231 30.36 79.5244 29.88C79.8177 29.3733 79.8977 28.9067 79.7644 28.48C79.7377 28.3733 79.6577 28.3067 79.5244 28.28C79.4177 28.2533 79.271 28.1867 79.0844 28.08C78.8177 28.08 78.5644 28.0133 78.3244 27.88C78.111 27.72 77.8577 27.52 77.5644 27.28L76.9244 26.48L76.2444 27.16C75.8177 27.5867 75.3644 28.2267 74.8844 29.08C74.431 29.9067 74.0444 30.76 73.7244 31.64C73.4044 32.4933 73.2177 33.1733 73.1644 33.68C73.1377 34.08 73.2044 34.3467 73.3644 34.48C73.5244 34.6133 73.7377 34.6933 74.0044 34.72ZM83.5247 36.76C83.3114 36.92 83.0047 36.96 82.6047 36.88C82.2047 36.8 81.8847 36.72 81.6447 36.64C81.5914 36.5333 81.538 36.4133 81.4847 36.28C81.4314 36.1467 81.3914 36.0267 81.3647 35.92C81.338 35.7867 81.3114 35.6533 81.2847 35.52C81.2847 35.3867 81.258 35.2667 81.2047 35.16C81.2847 35.08 81.3514 35 81.4047 34.92C81.4847 34.84 81.5647 34.7733 81.6447 34.72C81.778 34.72 81.9247 34.72 82.0847 34.72C82.2447 34.72 82.3914 34.72 82.5247 34.72C82.658 34.6667 82.7647 34.5867 82.8447 34.48C82.9514 34.3467 83.0847 34.28 83.2447 34.28C83.8314 33.9067 84.4047 33.32 84.9647 32.52C85.5514 31.72 86.1114 30.8267 86.6447 29.84C87.2047 28.8533 87.698 27.8933 88.1247 26.96C88.578 26 88.9514 25.2 89.2447 24.56C89.2447 24.5067 89.2447 24.4667 89.2447 24.44C89.2447 24.4133 89.2314 24.3867 89.2047 24.36C89.018 24.4133 88.818 24.4667 88.6047 24.52C88.3914 24.5467 88.178 24.6 87.9647 24.68C87.938 24.7067 87.898 24.7333 87.8447 24.76C87.7914 24.7867 87.7514 24.8133 87.7247 24.84C87.4314 25.08 87.0447 25.1467 86.5647 25.04C86.1114 24.9333 85.7914 24.7067 85.6047 24.36C85.5514 24.2533 85.498 24.16 85.4447 24.08C85.3914 24 85.3247 23.9067 85.2447 23.8C85.3514 23.56 85.5114 23.3333 85.7247 23.12C85.9647 22.88 86.218 22.7333 86.4847 22.68C87.2047 22.52 87.9114 22.4 88.6047 22.32C89.3247 22.2133 90.0447 22.1867 90.7647 22.24C91.4847 22.2933 92.1914 22.4533 92.8847 22.72C93.018 22.7467 93.138 22.7733 93.2447 22.8C93.3514 22.8267 93.458 22.88 93.5647 22.96C93.7247 23.0667 93.8847 23.1867 94.0447 23.32C94.2047 23.4533 94.3514 23.5867 94.4847 23.72C94.6714 23.88 94.818 24.0533 94.9247 24.24C95.0314 24.4267 95.098 24.64 95.1247 24.88C95.178 25.1467 95.2047 25.4267 95.2047 25.72C95.2314 26.0133 95.218 26.3067 95.1647 26.6C95.0314 27.2667 94.818 28.0667 94.5247 29C94.258 29.9067 94.018 30.6933 93.8047 31.36C93.4847 32.4 93.2047 33.3333 92.9647 34.16C92.7247 34.96 92.498 35.7467 92.2847 36.52C91.938 36.6267 91.6047 36.6133 91.2847 36.48C90.9647 36.3467 90.6847 36.1467 90.4447 35.88C90.338 35.5067 90.2847 35.16 90.2847 34.84C90.2847 34.4933 90.378 34.1467 90.5647 33.8C90.7514 33.4267 90.8847 32.9467 90.9647 32.36C91.0447 31.7733 91.218 31.3067 91.4847 30.96C91.538 30.8533 91.5647 30.76 91.5647 30.68C91.5647 30.52 91.618 30.2133 91.7247 29.76C91.858 29.3067 92.0047 28.8 92.1647 28.24C92.3247 27.6533 92.4714 27.1067 92.6047 26.6C92.7647 26.0933 92.8714 25.7067 92.9247 25.44C92.978 25.28 92.978 25.1333 92.9247 25C92.898 24.8667 92.8847 24.72 92.8847 24.56C92.6714 24.4533 92.3647 24.3733 91.9647 24.32C91.5914 24.2667 91.338 24.4 91.2047 24.72C91.178 24.7733 91.1514 24.84 91.1247 24.92C91.1247 24.9733 91.1114 25.0267 91.0847 25.08C90.8714 25.7467 90.578 26.3867 90.2047 27C89.858 27.6133 89.538 28.4533 89.2447 29.52C89.1647 29.8133 89.0447 30.0933 88.8847 30.36C88.7514 30.6 88.6314 30.8667 88.5247 31.16C88.5247 31.1867 88.5114 31.2133 88.4847 31.24C88.4847 31.2667 88.4714 31.2933 88.4447 31.32C88.4447 31.3467 88.4314 31.3733 88.4047 31.4C88.218 31.64 88.0447 31.8933 87.8847 32.16C87.7514 32.4 87.6047 32.6533 87.4447 32.92C86.9914 33.6667 86.3914 34.36 85.6447 35C84.9247 35.64 84.218 36.2267 83.5247 36.76ZM100.735 37.76C100.389 37.7867 100.109 37.76 99.8953 37.68C99.682 37.5733 99.4153 37.4267 99.0953 37.24C98.5086 36.7867 98.0686 36.3333 97.7753 35.88C97.5086 35.4 97.3886 34.9333 97.4153 34.48C97.4686 34.24 97.4686 34.0267 97.4153 33.84C97.3886 33.6533 97.3753 33.56 97.3753 33.56C97.2153 33.4267 97.162 33.3467 97.2153 33.32C97.2686 33.2667 97.3086 33.1867 97.3353 33.08C97.5486 33.0267 97.5753 32.88 97.4153 32.64C97.3353 32.4267 97.3753 31.9467 97.5353 31.2C97.722 30.4267 97.962 29.7067 98.2553 29.04C98.3886 28.7467 98.5753 28.36 98.8153 27.88C99.082 27.4 99.3753 26.92 99.6953 26.44C100.015 25.9333 100.309 25.5333 100.575 25.24C101.162 24.5733 101.682 24.08 102.135 23.76C102.615 23.4133 103.149 23.1333 103.735 22.92C104.269 22.7067 104.655 22.5867 104.895 22.56C105.135 22.5333 105.469 22.6933 105.895 23.04C106.535 23.2267 107.015 23.4933 107.335 23.84C107.682 24.16 107.949 24.6667 108.135 25.36C108.349 26.1333 108.415 27.0533 108.335 28.12C108.282 29.16 107.829 30.5067 106.975 32.16C106.469 33.2 105.962 33.9867 105.455 34.52C104.975 35.0533 104.389 35.6133 103.695 36.2C103.189 36.6267 102.722 36.96 102.295 37.2C101.869 37.44 101.349 37.6267 100.735 37.76ZM103.935 33C104.469 32.2 104.882 31.4667 105.175 30.8C105.495 30.1067 105.749 29.24 105.935 28.2C105.989 27.9067 106.002 27.5467 105.975 27.12C105.949 26.6667 105.882 26.2533 105.775 25.88C105.695 25.5067 105.575 25.3067 105.415 25.28C105.069 25.1467 104.682 25.1467 104.255 25.28C103.829 25.3867 103.362 25.7067 102.855 26.24C102.402 26.7733 101.989 27.3733 101.615 28.04C101.269 28.7067 100.949 29.44 100.655 30.24C100.362 31.04 100.082 31.8933 99.8153 32.8C99.5486 33.8133 99.562 34.5867 99.8553 35.12C100.175 35.6533 100.695 35.7867 101.415 35.52C102.135 35.2267 102.975 34.3867 103.935 33ZM110.997 37.92C110.917 37.8133 110.837 37.7333 110.757 37.68C110.677 37.6 110.584 37.52 110.477 37.44C110.397 37.3333 110.264 37.2 110.077 37.04C110.05 36.72 110.09 36.28 110.197 35.72C110.33 35.16 110.477 34.6 110.637 34.04C110.797 33.48 110.93 33.0667 111.037 32.8C111.037 32.8 111.104 32.5733 111.237 32.12C111.397 31.6667 111.584 31.12 111.797 30.48C112.01 29.8133 112.224 29.16 112.437 28.52C112.677 27.8533 112.864 27.3067 112.997 26.88C113.157 26.4267 113.237 26.2 113.237 26.2C113.29 26.0933 113.317 25.9867 113.317 25.88C113.317 25.7467 113.317 25.5867 113.317 25.4C113.237 24.92 113.277 24.56 113.437 24.32C113.624 24.08 113.77 23.8267 113.877 23.56C114.17 23.5867 114.37 23.5867 114.477 23.56C114.61 23.5333 114.757 23.56 114.917 23.64C115.104 23.6667 115.464 23.64 115.997 23.56C116.53 23.48 117.064 23.3733 117.597 23.24C118.157 23.1067 118.53 23 118.717 22.92C119.09 22.92 119.45 22.9067 119.797 22.88C120.17 22.8533 120.53 22.8667 120.877 22.92C121.33 22.92 121.73 23.08 122.077 23.4C122.424 23.72 122.664 23.9733 122.797 24.16C122.744 24.2667 122.677 24.3733 122.597 24.48C122.544 24.56 122.49 24.64 122.437 24.72C122.384 24.8 122.317 24.88 122.237 24.96C122.077 24.96 121.744 24.96 121.237 24.96C120.73 24.96 120.184 24.9867 119.597 25.04C119.037 25.0933 118.57 25.1867 118.197 25.32C117.85 25.4267 117.477 25.4933 117.077 25.52C116.704 25.52 116.357 25.5867 116.037 25.72C115.904 25.8533 115.77 26.12 115.637 26.52C115.504 26.92 115.384 27.3333 115.277 27.76C115.17 28.1867 115.077 28.5067 114.997 28.72C114.997 28.6933 114.917 28.88 114.757 29.28C114.624 29.68 114.464 30.1333 114.277 30.64C114.117 31.1467 113.984 31.56 113.877 31.88C113.77 32.04 113.637 32.3467 113.477 32.8C113.317 33.2533 113.17 33.7067 113.037 34.16C112.904 34.6133 112.81 34.9467 112.757 35.16C112.65 35.64 112.517 36.12 112.357 36.6C112.197 37.0533 111.997 37.5067 111.757 37.96C111.65 37.96 111.53 37.96 111.397 37.96C111.264 37.9333 111.13 37.92 110.997 37.92ZM131.568 37.92C131.301 37.6533 131.034 37.2933 130.768 36.84C130.501 36.36 130.288 35.8133 130.128 35.2C130.074 34.9867 130.048 34.6933 130.048 34.32C130.074 33.9467 130.074 33.68 130.048 33.52C129.968 33.7067 129.834 33.9067 129.648 34.12C129.488 34.3067 129.328 34.4667 129.168 34.6C129.061 34.7067 128.821 34.92 128.448 35.24C128.074 35.5333 127.701 35.7733 127.328 35.96C126.448 36.52 125.714 36.8267 125.128 36.88C124.568 36.9333 124.034 36.64 123.528 36C123.101 35.6533 122.794 35.2667 122.608 34.84C122.448 34.4133 122.448 33.8267 122.608 33.08C122.661 32.1467 122.794 31.24 123.008 30.36C123.221 29.4533 123.661 28.2533 124.328 26.76C124.888 25.6667 125.314 24.8667 125.608 24.36C125.901 23.8267 126.088 23.5067 126.168 23.4C126.568 23.2667 126.901 23.28 127.168 23.44C127.434 23.5733 127.594 23.8267 127.648 24.2C127.808 24.4667 127.781 24.92 127.568 25.56C127.381 26.2 127.048 26.9867 126.568 27.92C126.194 28.8267 125.848 29.7333 125.528 30.64C125.234 31.5467 125.061 32.32 125.008 32.96C124.954 33.6 125.114 33.9867 125.488 34.12C125.728 34.2533 126.141 34.2133 126.728 34C127.341 33.7867 128.021 33.2533 128.768 32.4C129.541 31.5467 130.288 30.2533 131.008 28.52C131.221 27.9867 131.381 27.52 131.488 27.12C131.594 26.6933 131.661 26.2267 131.688 25.72C131.634 25.4 131.648 25.12 131.728 24.88C131.834 24.6133 132.048 24.3867 132.368 24.2C132.474 24.0667 132.621 23.9467 132.808 23.84C132.994 23.7067 133.114 23.7067 133.168 23.84L133.808 23.8C133.914 23.7733 133.981 23.84 134.008 24C134.061 24.1333 134.154 24.2533 134.288 24.36C134.581 24.6 134.661 25.12 134.528 25.92C134.394 26.72 134.021 27.84 133.408 29.28C132.901 30.3733 132.554 31.2 132.368 31.76C132.208 32.32 132.114 32.8667 132.088 33.4C132.088 33.88 132.181 34.3333 132.368 34.76C132.554 35.1867 132.848 35.5733 133.248 35.92C133.541 36.1067 133.701 36.32 133.728 36.56C133.781 36.8 133.794 37.08 133.768 37.4C133.714 37.64 133.554 37.84 133.288 38C133.048 38.1333 132.768 38.2 132.448 38.2C132.128 38.2 131.834 38.1067 131.568 37.92ZM145.293 24.16C145.319 24.2933 145.306 24.5867 145.253 25.04C145.226 25.4667 145.173 25.8933 145.093 26.32C145.039 26.72 144.986 26.9867 144.933 27.12C144.719 27.6 144.559 28.0933 144.453 28.6C144.373 29.1067 144.213 29.6267 143.973 30.16C143.626 29.8667 143.186 29.5867 142.653 29.32C142.146 29.0533 141.693 28.7867 141.293 28.52C141.026 28.3067 140.826 28.0933 140.693 27.88C140.586 27.64 140.533 27.4 140.533 27.16C140.559 26.76 140.679 26.3733 140.893 26C141.106 25.6267 141.373 25.2933 141.693 25C142.013 24.68 142.333 24.44 142.653 24.28C142.946 24.1467 143.373 24.0933 143.933 24.12C144.519 24.1467 144.973 24.16 145.293 24.16ZM143.933 38C144.226 37.8667 144.453 37.7467 144.613 37.64C144.773 37.5067 144.866 37.24 144.893 36.84C144.919 36.6 144.973 36.36 145.053 36.12C145.159 35.8533 145.186 35.6 145.133 35.36C145.319 34.88 145.546 34.1467 145.813 33.16C146.106 32.1733 146.386 31.0933 146.653 29.92C146.946 28.7467 147.186 27.6533 147.373 26.64C147.559 25.6 147.653 24.8267 147.653 24.32C147.653 23.7867 147.533 23.3733 147.293 23.08C147.053 22.7867 146.706 22.5333 146.253 22.32C145.906 22.32 145.573 22.32 145.253 22.32C144.933 22.32 144.599 22.3067 144.253 22.28C143.799 22.2267 143.306 22.2533 142.773 22.36C142.239 22.44 141.746 22.5067 141.293 22.56C141.239 22.56 141.186 22.5733 141.133 22.6C141.079 22.6267 141.026 22.6667 140.973 22.72C140.546 22.96 140.213 23.16 139.973 23.32C139.733 23.48 139.533 23.64 139.373 23.8C139.133 24.04 138.959 24.32 138.853 24.64C138.773 24.96 138.613 25.4667 138.373 26.16C138.266 26.4533 138.213 26.7333 138.213 27C138.239 27.2667 138.293 27.5467 138.373 27.84C138.586 28.48 138.813 28.9467 139.053 29.24C139.293 29.5067 139.599 29.7733 139.973 30.04C140.186 30.12 140.399 30.2133 140.613 30.32C140.826 30.4 141.026 30.48 141.213 30.56C140.786 30.8533 140.239 31.2267 139.573 31.68C138.906 32.1067 138.266 32.4933 137.653 32.84C137.039 33.1867 136.559 33.4133 136.213 33.52C135.919 33.6 135.653 33.72 135.413 33.88C135.199 34.04 134.999 34.2533 134.813 34.52C134.893 34.9467 135.026 35.3467 135.213 35.72C135.426 36.0667 135.773 36.2533 136.253 36.28C136.306 36.28 136.546 36.1467 136.973 35.88C137.426 35.6133 137.933 35.3067 138.493 34.96C139.053 34.5867 139.559 34.2533 140.013 33.96C140.493 33.64 140.799 33.44 140.933 33.36C141.039 33.28 141.293 33.1067 141.693 32.84C142.093 32.5467 142.466 32.3067 142.812 32.12C142.999 32.0133 143.159 31.9467 143.293 31.92C143.426 31.8933 143.506 31.92 143.533 32C143.346 32.8267 143.133 33.68 142.893 34.56C142.679 35.4133 142.599 36.28 142.653 37.16C142.866 37.2933 143.079 37.44 143.293 37.6C143.506 37.7333 143.719 37.8667 143.933 38ZM169.082 38.04C168.815 38.1733 168.509 38.0933 168.162 37.8C167.815 37.5067 167.575 37.2667 167.442 37.08C167.202 36.76 167.029 36.32 166.922 35.76C166.815 35.2 166.762 34.7333 166.762 34.36C166.762 33.6667 166.709 33.2667 166.602 33.16C166.522 33.0533 166.349 33.1467 166.082 33.44C165.842 33.7067 165.482 34.08 165.002 34.56C164.789 34.7733 164.442 35.0533 163.962 35.4C163.482 35.7467 162.989 36.04 162.482 36.28C161.975 36.52 161.549 36.64 161.202 36.64C160.962 36.6133 160.722 36.48 160.482 36.24C160.242 36 160.029 35.7333 159.842 35.44C159.682 35.12 159.562 34.8533 159.482 34.64C159.349 34.24 159.335 33.5867 159.442 32.68C159.575 31.7467 159.789 30.72 160.082 29.6C160.402 28.4533 160.762 27.36 161.162 26.32C161.589 25.2533 162.015 24.3867 162.442 23.72C162.895 23.0267 163.335 22.68 163.762 22.68C164.055 22.68 164.282 22.8533 164.442 23.2C164.629 23.52 164.775 23.7867 164.882 24C165.015 24.2667 165.055 24.44 165.002 24.52C164.975 24.6 164.869 24.7467 164.682 24.96C164.469 25.2267 164.215 25.68 163.922 26.32C163.629 26.9333 163.322 27.6133 163.002 28.36C162.709 29.08 162.442 29.7733 162.202 30.44C161.962 31.1067 161.789 31.6133 161.682 31.96C161.629 32.1733 161.549 32.4667 161.442 32.84C161.362 33.2133 161.335 33.5067 161.362 33.72C161.362 33.7467 161.375 33.8133 161.402 33.92C161.429 34 161.535 34.04 161.722 34.04C162.309 34.04 162.895 33.8 163.482 33.32C164.095 32.8133 164.695 32.16 165.282 31.36C165.895 30.56 166.469 29.72 167.002 28.84C167.535 27.96 168.029 27.12 168.482 26.32C168.962 25.52 169.375 24.8667 169.722 24.36C170.069 23.8267 170.349 23.5467 170.562 23.52C170.749 23.4933 170.962 23.52 171.202 23.6C171.469 23.6533 171.695 23.7467 171.882 23.88C172.069 24.0133 172.149 24.2 172.122 24.44C171.802 25.4267 171.415 26.4133 170.962 27.4C170.509 28.36 170.082 29.3333 169.682 30.32C169.309 31.3067 169.042 32.32 168.882 33.36C168.775 34 168.815 34.6267 169.002 35.24C169.215 35.8533 169.549 36.4 170.002 36.88C170.269 37.1467 170.242 37.4 169.922 37.64C169.602 37.88 169.322 38.0133 169.082 38.04ZM187.388 40.24C186.988 40.08 186.575 39.9067 186.148 39.72C185.748 39.5333 185.361 39.2533 184.988 38.88C184.641 38.5333 184.335 38.04 184.068 37.4C183.801 36.6267 183.615 35.8667 183.508 35.12C183.428 34.3733 183.401 33.5067 183.428 32.52C183.428 31.1333 183.521 29.9333 183.708 28.92C183.921 27.88 184.241 26.8267 184.668 25.76C184.721 25.68 184.815 25.4533 184.948 25.08C185.108 24.68 185.281 24.2533 185.468 23.8C185.681 23.3467 185.841 23 185.948 22.76C186.161 22.3067 186.481 21.7067 186.908 20.96C187.361 20.1867 187.841 19.44 188.348 18.72C189.121 17.5733 189.761 16.6667 190.268 16C190.775 15.3333 191.255 14.7733 191.708 14.32C192.161 13.8667 192.668 13.44 193.228 13.04C193.815 12.6133 194.561 12.0933 195.468 11.48C196.055 11.0533 196.695 10.8267 197.388 10.8C198.108 10.7733 198.775 10.9333 199.388 11.28C200.001 11.6 200.455 12.08 200.748 12.72C201.041 13.28 201.188 13.96 201.188 14.76C201.188 15.5333 201.068 16.36 200.828 17.24C200.588 18.0933 200.255 18.9067 199.828 19.68C199.401 20.4533 198.908 21.0933 198.348 21.6C198.001 21.92 197.681 22.04 197.388 21.96C197.121 21.88 196.801 21.6667 196.428 21.32C196.188 20.8667 196.055 20.6 196.028 20.52C196.028 20.44 196.081 20.3867 196.188 20.36C196.348 20.1733 196.561 19.8533 196.828 19.4C197.095 18.9467 197.361 18.4667 197.628 17.96C197.895 17.4267 198.081 17 198.188 16.68C198.401 15.56 198.548 14.7733 198.628 14.32C198.708 13.84 198.628 13.48 198.388 13.24C198.281 13.1333 198.121 13.0933 197.908 13.12C197.721 13.1467 197.401 13.28 196.948 13.52C196.335 13.7867 195.535 14.3867 194.548 15.32C193.561 16.2267 192.655 17.24 191.828 18.36C190.761 19.7733 189.868 21.0267 189.148 22.12C188.428 23.2133 187.881 24.3333 187.508 25.48C187.455 25.5867 187.361 25.7867 187.228 26.08C187.121 26.3733 187.068 26.52 187.068 26.52C187.095 26.6267 187.055 26.8933 186.948 27.32C186.841 27.72 186.721 28.0667 186.588 28.36C186.295 29.5867 186.121 30.8667 186.068 32.2C186.015 33.5067 186.081 34.6667 186.268 35.68C186.481 36.6933 186.788 37.4 187.188 37.8C187.535 38.04 188.001 38.12 188.588 38.04C189.201 37.96 189.895 37.7733 190.668 37.48C191.441 37.1867 192.228 36.8667 193.028 36.52C193.668 36.2533 194.255 35.96 194.788 35.64C195.321 35.32 195.721 35.04 195.988 34.8C196.201 34.64 196.468 34.48 196.788 34.32C197.135 34.1333 197.428 34.04 197.668 34.04C198.041 33.9067 198.255 33.8533 198.308 33.88C198.361 33.9067 198.388 34.0267 198.388 34.24C198.388 34.6133 198.175 35.0267 197.748 35.48C197.348 35.9333 196.828 36.3467 196.188 36.72C195.975 36.9333 195.695 37.16 195.348 37.4C195.001 37.64 194.641 37.8267 194.268 37.96C193.708 38.3867 193.015 38.8 192.188 39.2C191.361 39.6 190.521 39.9067 189.668 40.12C188.841 40.3333 188.081 40.3733 187.388 40.24ZM202.405 36.56C202.298 36.3467 202.165 36.1867 202.005 36.08C201.845 35.9467 201.765 35.8267 201.765 35.72C201.765 35.6133 201.752 35.5067 201.725 35.4C201.725 35.2667 201.672 35.1467 201.565 35.04C201.432 34.88 201.445 34.52 201.605 33.96C201.765 33.3733 202.032 32.6667 202.405 31.84C202.778 30.9867 203.218 30.0933 203.725 29.16C203.938 28.9467 204.152 28.6667 204.365 28.32C204.578 27.9733 204.738 27.7467 204.845 27.64C204.845 27.5333 204.885 27.44 204.965 27.36C205.045 27.2533 205.138 27.2 205.245 27.2V26.96C205.245 26.8267 205.365 26.6 205.605 26.28C205.872 25.96 206.192 25.6133 206.565 25.24C206.938 24.84 207.325 24.4667 207.725 24.12C208.125 23.7467 208.458 23.48 208.725 23.32C209.285 22.9467 209.858 22.72 210.445 22.64C211.058 22.56 211.578 22.6933 212.005 23.04C212.085 23.12 212.218 23.2533 212.405 23.44C212.592 23.6267 212.805 23.84 213.045 24.08C213.312 24.2933 213.578 24.52 213.845 24.76L215.325 26.08L214.605 28.08C214.258 29.1467 214.165 30.08 214.325 30.88C214.512 31.68 214.778 32.3733 215.125 32.96C215.258 33.2533 215.525 33.5333 215.925 33.8C216.352 34.0667 216.752 34.2267 217.125 34.28C217.338 34.3067 217.538 34.3867 217.725 34.52C217.912 34.6533 218.005 34.8667 218.005 35.16C218.005 35.4267 217.952 35.64 217.845 35.8C217.738 35.96 217.552 36.0667 217.285 36.12C216.405 36.2267 215.578 36.0133 214.805 35.48C214.058 34.9467 213.365 34.0667 212.725 32.84C212.618 32.68 212.472 32.3867 212.285 31.96C212.125 31.5067 212.032 31.2133 212.005 31.08C211.898 31.2133 211.698 31.4667 211.405 31.84C211.112 32.1867 210.885 32.44 210.725 32.6C208.832 34.52 207.192 35.8133 205.805 36.48C204.445 37.12 203.312 37.1467 202.405 36.56ZM203.845 34.32C203.845 34.5067 204.125 34.5067 204.685 34.32C205.272 34.1067 205.898 33.7333 206.565 33.2C207.472 32.4267 208.378 31.5733 209.285 30.64C210.218 29.7067 210.965 28.84 211.525 28.04L212.405 26.6C212.138 25.9867 211.845 25.5733 211.525 25.36C211.232 25.12 210.978 25 210.765 25C210.418 25 209.898 25.32 209.205 25.96C208.538 26.6 207.818 27.4533 207.045 28.52C206.272 29.5867 205.538 30.76 204.845 32.04C204.578 32.5733 204.338 33.0933 204.125 33.6C203.938 34.08 203.845 34.32 203.845 34.32ZM235.506 37.88C235.239 37.7467 235.039 37.6133 234.906 37.48C234.773 37.32 234.546 37.1467 234.226 36.96C234.119 36.5867 233.999 36.2133 233.866 35.84C233.759 35.44 233.719 35.0533 233.746 34.68C233.773 34.4667 233.733 34.24 233.626 34C233.546 33.7333 233.559 33.5067 233.666 33.32C233.613 32.8933 233.626 32.3467 233.706 31.68C233.786 30.9867 233.893 30.3333 234.026 29.72C234.159 29.08 234.253 28.6267 234.306 28.36C234.226 28.2533 234.146 28.1867 234.066 28.16C234.013 28.1333 233.933 28.1733 233.826 28.28C233.559 28.5467 233.306 28.8133 233.066 29.08C232.826 29.3467 232.573 29.6267 232.306 29.92C232.199 30.0267 232.079 30.1333 231.946 30.24C231.813 30.32 231.746 30.4533 231.746 30.64L230.306 32.56C230.199 32.7733 229.999 33.0533 229.706 33.4C229.439 33.72 229.226 34.1067 229.066 34.56C229.013 34.7467 228.919 34.9067 228.786 35.04C228.653 35.1467 228.519 35.2533 228.386 35.36C228.039 35.2267 227.813 35.1333 227.706 35.08C227.599 35.0267 227.399 34.8667 227.106 34.6C226.839 34.3333 226.653 34.0933 226.546 33.88C226.439 33.64 226.413 33.4 226.466 33.16C226.466 32.76 226.466 32.2 226.466 31.48C226.493 30.7333 226.493 30.0267 226.466 29.36C226.466 28.6667 226.413 28.1867 226.306 27.92C226.013 27.9467 225.813 27.9867 225.706 28.04C225.599 28.0933 225.466 28.2533 225.306 28.52C225.333 28.4933 225.213 28.68 224.946 29.08C224.706 29.4533 224.373 29.9467 223.946 30.56C223.546 31.1467 223.146 31.7467 222.746 32.36C222.346 32.9467 222.013 33.4533 221.746 33.88C221.506 34.28 221.399 34.4667 221.426 34.44C221.239 34.6533 221.079 34.88 220.946 35.12C220.839 35.36 220.733 35.6133 220.626 35.88C220.493 36.2 220.346 36.4133 220.186 36.52C220.026 36.6 219.879 36.5733 219.746 36.44C219.533 36.3067 219.306 36.1733 219.066 36.04C218.853 35.9067 218.666 35.7867 218.506 35.68C218.399 35.4933 218.306 35.3067 218.226 35.12C218.173 34.9067 218.133 34.6667 218.106 34.4C218.319 34.2667 218.466 34.1867 218.546 34.16C218.626 34.1067 218.693 34.0133 218.746 33.88C219.333 33 219.839 32.2533 220.266 31.64C220.693 31 221.053 30.48 221.346 30.08C221.639 29.68 221.866 29.3733 222.026 29.16C222.186 28.92 222.279 28.76 222.306 28.68C222.439 28.4133 222.599 28.16 222.786 27.92C222.999 27.68 223.199 27.4267 223.386 27.16C223.413 27.08 223.546 26.8933 223.786 26.6C224.026 26.28 224.279 25.96 224.546 25.64C224.813 25.32 224.999 25.1333 225.106 25.08C225.239 25 225.333 24.8933 225.386 24.76C225.466 24.6 225.546 24.44 225.626 24.28C225.679 24.04 225.799 23.8667 225.986 23.76C226.173 23.6533 226.453 23.6267 226.826 23.68C227.039 23.8667 227.279 24.0667 227.546 24.28C227.813 24.4667 228.093 24.6667 228.386 24.88C228.359 25.1467 228.346 25.4267 228.346 25.72C228.373 26.0133 228.479 26.4667 228.666 27.08C228.586 27.4 228.599 27.7333 228.706 28.08C228.813 28.4267 228.813 28.7467 228.706 29.04C228.706 29.3867 228.786 29.64 228.946 29.8C229.133 29.9333 229.413 29.8 229.786 29.4C230.213 28.8667 230.719 28.2933 231.306 27.68C231.893 27.04 232.466 26.44 233.026 25.88C233.613 25.2933 234.106 24.8 234.506 24.4C234.933 23.9733 235.186 23.7067 235.266 23.6C235.319 23.4667 235.413 23.4 235.546 23.4C235.706 23.3733 235.853 23.4 235.986 23.48C236.439 23.72 236.746 23.8933 236.906 24C237.066 24.1067 237.293 24.3067 237.586 24.6C237.853 24.9733 237.893 25.3067 237.706 25.6C237.599 25.8667 237.453 26.3067 237.266 26.92C237.106 27.5067 236.933 28.16 236.746 28.88C236.586 29.6 236.439 30.28 236.306 30.92C236.199 31.5333 236.133 32.0133 236.106 32.36C236.079 32.8933 236.053 33.4533 236.026 34.04C235.999 34.6 236.039 35.1867 236.146 35.8C236.359 36.6267 236.413 37.16 236.306 37.4C236.226 37.6133 235.959 37.7733 235.506 37.88ZM244.684 36.48C244.124 36.5867 243.764 36.6267 243.604 36.6C243.471 36.5467 243.258 36.3867 242.964 36.12C242.538 35.9067 242.178 35.64 241.884 35.32C241.618 35 241.418 34.6667 241.284 34.32C241.178 33.9467 241.138 33.64 241.164 33.4C241.244 32.4667 241.471 31.4667 241.844 30.4C242.218 29.3333 242.671 28.3067 243.204 27.32C243.738 26.3333 244.311 25.4933 244.924 24.8C245.564 24.08 246.178 23.6133 246.764 23.4C247.298 23.1867 247.804 23.1067 248.284 23.16C248.764 23.2133 249.111 23.4667 249.324 23.92C249.724 24.6933 249.631 25.1867 249.044 25.4C248.964 25.4 248.871 25.44 248.764 25.52C248.658 25.5733 248.604 25.6533 248.604 25.76C248.711 25.8133 249.004 25.8267 249.484 25.8C249.964 25.7467 250.444 25.6667 250.924 25.56C251.431 25.4267 251.764 25.2933 251.924 25.16C252.084 25.08 252.204 25.04 252.284 25.04C252.364 25.04 252.564 25.0667 252.884 25.12C253.338 25.2533 253.564 25.4133 253.564 25.6C253.564 25.7067 253.604 25.8133 253.684 25.92C253.764 26 253.858 26.04 253.964 26.04C254.151 26.0667 254.124 26.1867 253.884 26.4C253.671 26.6133 253.298 26.9067 252.764 27.28C252.258 27.6 251.938 27.8133 251.804 27.92C251.698 28 251.684 28.1867 251.764 28.48C251.978 28.9867 251.991 29.5733 251.804 30.24C251.618 30.9067 251.284 31.5867 250.804 32.28C250.324 32.9733 249.738 33.6267 249.044 34.24C248.378 34.8267 247.658 35.3333 246.884 35.76C246.138 36.16 245.404 36.4 244.684 36.48ZM244.004 34.72C244.111 34.72 244.298 34.6667 244.564 34.56C244.831 34.4267 245.044 34.32 245.204 34.24C245.311 34.1333 245.444 34.0133 245.604 33.88C245.791 33.72 245.938 33.6267 246.044 33.6C246.151 33.6 246.284 33.56 246.444 33.48C246.604 33.3733 246.831 33.1733 247.124 32.88C247.418 32.56 247.804 32.0933 248.284 31.48C248.818 30.8933 249.231 30.36 249.524 29.88C249.818 29.3733 249.898 28.9067 249.764 28.48C249.738 28.3733 249.658 28.3067 249.524 28.28C249.418 28.2533 249.271 28.1867 249.084 28.08C248.818 28.08 248.564 28.0133 248.324 27.88C248.111 27.72 247.858 27.52 247.564 27.28L246.924 26.48L246.244 27.16C245.818 27.5867 245.364 28.2267 244.884 29.08C244.431 29.9067 244.044 30.76 243.724 31.64C243.404 32.4933 243.218 33.1733 243.164 33.68C243.138 34.08 243.204 34.3467 243.364 34.48C243.524 34.6133 243.738 34.6933 244.004 34.72ZM254.746 45C254.426 45.2133 254.093 45.2 253.746 44.96C253.426 44.72 253.186 44.36 253.026 43.88C252.866 43.4 252.879 42.8933 253.066 42.36C253.119 42.2 253.199 41.9333 253.306 41.56C253.413 41.2133 253.479 40.9067 253.506 40.64C253.533 40.4533 253.613 40.1333 253.746 39.68C253.879 39.2533 254.026 38.8267 254.186 38.4C254.373 37.9733 254.519 37.6667 254.626 37.48C254.786 37.2133 254.893 36.9067 254.946 36.56C255.026 36.2133 255.066 35.9467 255.066 35.76C255.119 35.5733 255.186 35.36 255.266 35.12C255.373 34.88 255.479 34.6933 255.586 34.56C255.639 34.3467 255.719 34.12 255.826 33.88C255.933 33.6133 256.053 33.3867 256.186 33.2C256.239 33.0133 256.279 32.7867 256.306 32.52C256.359 32.2533 256.439 32.1067 256.546 32.08C256.573 31.9733 256.586 31.8667 256.586 31.76C256.613 31.6533 256.666 31.5067 256.746 31.32C256.799 31.0267 256.919 30.6 257.106 30.04C257.293 29.48 257.519 28.8667 257.786 28.2C258.079 27.4267 258.213 26.6933 258.186 26C258.186 25.28 257.986 24.84 257.586 24.68C257.373 24.5733 257.239 24.4267 257.186 24.24C257.133 24.0267 257.159 23.8133 257.266 23.6C257.373 23.3867 257.533 23.24 257.746 23.16C257.986 23.0533 258.239 23.0133 258.506 23.04C258.799 23.0667 259.053 23.12 259.266 23.2C259.479 23.2533 259.573 23.3067 259.546 23.36C259.546 23.4933 259.613 23.5733 259.746 23.6C259.799 23.52 259.906 23.6133 260.066 23.88C260.253 24.12 260.426 24.4 260.586 24.72C260.746 25.04 260.826 25.2667 260.826 25.4C260.773 25.5067 260.746 25.5733 260.746 25.6C260.746 25.6 260.799 25.6 260.906 25.6C260.906 25.6 261.053 25.5333 261.346 25.4C261.639 25.24 261.946 25.0667 262.266 24.88C262.613 24.6667 262.839 24.5067 262.946 24.4C262.946 24.4 263.013 24.3733 263.146 24.32C263.306 24.24 263.439 24.1467 263.546 24.04C264.079 23.8267 264.653 23.7867 265.266 23.92C265.906 24.0533 266.413 24.2933 266.786 24.64C267.319 25.3067 267.586 25.9467 267.586 26.56C267.613 27.1733 267.439 27.9467 267.066 28.88C267.013 29.0133 266.893 29.24 266.706 29.56C266.546 29.8533 266.386 30.1333 266.226 30.4C266.066 30.64 265.986 30.76 265.986 30.76C265.373 31.72 264.653 32.52 263.826 33.16C262.999 33.8 262.159 34.36 261.306 34.84C261.039 35.0267 260.759 35.1733 260.466 35.28C260.199 35.36 259.959 35.4133 259.746 35.44C259.533 35.44 259.386 35.4133 259.306 35.36C259.013 35.1467 258.746 34.6933 258.506 34C258.373 34.3467 258.239 34.6933 258.106 35.04C257.999 35.36 257.933 35.5733 257.906 35.68C257.879 35.8667 257.853 36.0267 257.826 36.16C257.799 36.2667 257.733 36.36 257.626 36.44C257.626 36.44 257.613 36.4933 257.586 36.6C257.559 36.7067 257.466 36.8667 257.306 37.08C257.039 37.8533 256.799 38.52 256.586 39.08C256.373 39.6667 256.199 40.16 256.066 40.56C255.933 40.9867 255.826 41.36 255.746 41.68C255.693 42.4 255.546 43.1067 255.306 43.8C255.066 44.52 254.879 44.92 254.746 45ZM259.506 33.6C259.613 33.5467 259.839 33.4 260.186 33.16C260.559 32.8933 260.973 32.5867 261.426 32.24C261.879 31.8667 262.293 31.52 262.666 31.2C263.066 30.88 263.333 30.64 263.466 30.48C263.679 30.24 263.879 29.9867 264.066 29.72C264.253 29.4267 264.399 29.1067 264.506 28.76C264.586 28.5467 264.679 28.3067 264.786 28.04C264.893 27.7733 264.986 27.52 265.066 27.28C265.173 27.0667 265.213 26.8533 265.186 26.64C265.186 26.4 265.106 26.2 264.946 26.04C264.839 26.0133 264.519 26.0933 263.986 26.28C263.453 26.44 262.866 26.72 262.226 27.12C261.586 27.4933 261.026 27.9867 260.546 28.6C259.986 29.32 259.573 30.0667 259.306 30.84C259.066 31.6133 258.959 32.2667 258.986 32.8C259.039 33.3333 259.213 33.6 259.506 33.6ZM272.183 36.68C271.863 36.7333 271.516 36.68 271.143 36.52C270.77 36.36 270.436 36.1333 270.143 35.84C269.876 35.5467 269.703 35.24 269.623 34.92C269.516 34.36 269.583 33.6667 269.823 32.84C270.09 31.9867 270.463 31.0933 270.943 30.16C271.45 29.2 272.01 28.28 272.623 27.4C273.263 26.52 273.916 25.76 274.583 25.12C275.276 24.4533 275.916 24 276.503 23.76C276.796 23.5733 277.023 23.4533 277.183 23.4C277.37 23.32 277.556 23.3067 277.743 23.36C277.956 23.4133 278.263 23.5467 278.663 23.76C279.036 23.8667 279.316 23.9867 279.503 24.12C279.69 24.2533 279.93 24.52 280.223 24.92C280.436 25.32 280.596 25.72 280.703 26.12C280.81 26.52 280.903 26.9733 280.983 27.48C281.196 28.1467 281.276 28.5867 281.223 28.8C281.17 28.9867 281.09 29.1333 280.983 29.24C280.77 29.5067 280.716 29.64 280.823 29.64C280.823 29.64 280.81 29.6933 280.783 29.8C280.783 29.88 280.73 30.0133 280.623 30.2C280.436 30.7867 280.29 31.4 280.183 32.04C280.103 32.6533 280.116 33.16 280.223 33.56C280.436 34.1467 280.823 34.4933 281.383 34.6C281.943 34.7067 282.516 34.4667 283.103 33.88C283.396 33.6667 283.676 33.48 283.943 33.32C284.21 33.1333 284.343 33.1467 284.343 33.36C284.343 33.36 284.383 33.4 284.463 33.48C284.543 33.5333 284.636 33.56 284.743 33.56C284.876 33.56 284.956 33.6133 284.983 33.72C285.036 33.8267 285.036 33.9733 284.983 34.16C284.956 34.32 284.876 34.5067 284.743 34.72C284.343 35.12 284.143 35.3867 284.143 35.52C284.143 35.52 284.09 35.5733 283.983 35.68C283.903 35.76 283.756 35.8933 283.543 36.08C283.063 36.3733 282.45 36.52 281.703 36.52C280.983 36.52 280.423 36.3733 280.023 36.08C279.623 35.7867 279.25 35.3867 278.903 34.88C278.583 34.3733 278.37 33.9333 278.263 33.56L278.063 33.16L276.903 33.92C276.61 34.2133 276.29 34.4933 275.943 34.76C275.623 35.0267 275.41 35.2133 275.303 35.32C275.223 35.4267 275.13 35.52 275.023 35.6C274.943 35.68 274.85 35.72 274.743 35.72C274.636 35.72 274.543 35.72 274.463 35.72C274.383 35.72 274.343 35.72 274.343 35.72C274.343 35.8267 274.21 35.96 273.943 36.12C273.703 36.28 273.41 36.4133 273.063 36.52C272.743 36.6267 272.45 36.68 272.183 36.68ZM271.783 34.52C271.943 34.52 272.223 34.4 272.623 34.16C273.05 33.8933 273.516 33.5867 274.023 33.24C274.556 32.8933 275.023 32.5467 275.423 32.2C275.85 31.8533 276.143 31.5867 276.303 31.4C276.41 31.2933 276.583 31.12 276.823 30.88C277.063 30.6133 277.276 30.3867 277.463 30.2C278.076 29.5067 278.503 28.7467 278.743 27.92C278.983 27.0667 278.956 26.4 278.663 25.92C278.556 25.6267 278.423 25.4667 278.263 25.44C278.103 25.4133 277.77 25.5067 277.263 25.72C276.943 25.9067 276.543 26.2667 276.063 26.8C275.61 27.3067 275.116 27.9067 274.583 28.6C274.076 29.2667 273.596 29.96 273.143 30.68C272.69 31.4 272.316 32.0667 272.023 32.68C271.73 33.2933 271.583 33.7733 271.583 34.12C271.583 34.2267 271.61 34.32 271.663 34.4C271.743 34.48 271.783 34.52 271.783 34.52ZM292.269 30.32C293.043 30.8533 293.576 31.5067 293.869 32.28C294.163 33.0267 294.243 33.7867 294.109 34.56C293.976 35.3333 293.629 36.0267 293.069 36.64C292.536 37.2267 291.816 37.64 290.909 37.88C290.563 37.9867 290.123 38.0267 289.589 38C289.083 37.9467 288.669 37.8267 288.349 37.64C287.789 37.3467 287.309 37.08 286.909 36.84C286.509 36.5733 286.136 36.1733 285.789 35.64C285.763 35.56 285.709 35.48 285.629 35.4C285.549 35.32 285.483 35.2533 285.429 35.2C285.349 34.9867 285.296 34.7733 285.269 34.56C285.269 34.32 285.203 34.1067 285.069 33.92C285.123 33.76 285.163 33.6 285.189 33.44C285.243 33.28 285.296 33.12 285.349 32.96C285.563 32.96 285.776 32.9467 285.989 32.92C286.203 32.8933 286.416 32.8667 286.629 32.84C286.843 32.8133 287.043 32.8 287.229 32.8C287.496 32.9867 287.683 33.3333 287.789 33.84C287.896 34.3467 288.043 34.8267 288.229 35.28C288.443 35.7067 288.776 35.9333 289.229 35.96C289.976 35.9867 290.509 35.8 290.829 35.4C291.149 34.9733 291.323 34.4533 291.349 33.84C291.376 33.2267 291.296 32.64 291.109 32.08C291.003 31.92 290.896 31.76 290.789 31.6C290.683 31.44 290.576 31.28 290.469 31.12C290.389 30.96 290.269 30.8267 290.109 30.72C290.083 30.56 290.056 30.4 290.029 30.24C290.003 30.08 289.976 29.92 289.949 29.76C290.429 29.44 290.949 29.16 291.509 28.92C292.096 28.6533 292.603 28.2667 293.029 27.76C293.216 27.52 293.416 27.1733 293.629 26.72C293.869 26.2667 293.963 25.8933 293.909 25.6C293.883 25.3067 293.803 25.0267 293.669 24.76C293.563 24.4933 293.323 24.3467 292.949 24.32C292.603 24.2933 292.283 24.3867 291.989 24.6C291.723 24.7867 291.469 25.04 291.229 25.36C291.016 25.68 290.789 26.0133 290.549 26.36C290.336 26.68 290.083 26.9733 289.789 27.24C289.629 27.1333 289.456 27.0667 289.269 27.04C289.083 27.0133 288.896 26.9467 288.709 26.84C288.523 26.7333 288.336 26.4933 288.149 26.12C288.336 25.9067 288.429 25.6667 288.429 25.4C288.456 25.1067 288.549 24.8667 288.709 24.68C288.869 24.4667 289.043 24.28 289.229 24.12C289.443 23.9333 289.616 23.7333 289.749 23.52C289.936 23.2533 290.243 23.0267 290.669 22.84C291.096 22.6267 291.456 22.4933 291.749 22.44C292.549 22.3067 293.229 22.3867 293.789 22.68C294.349 22.9467 294.883 23.2533 295.389 23.6C295.709 24.2133 295.896 24.7067 295.949 25.08C296.029 25.4533 296.069 26.0533 296.069 26.88C296.043 27.0933 295.989 27.2933 295.909 27.48C295.829 27.64 295.789 27.8267 295.789 28.04C295.283 28.7333 294.789 29.2533 294.309 29.6C293.829 29.9467 293.149 30.1867 292.269 30.32ZM300.839 37.88C300.439 37.88 299.933 37.8533 299.319 37.8C298.733 37.7467 298.226 37.3733 297.799 36.68C297.533 36.2267 297.333 35.7067 297.199 35.12C297.093 34.5333 297.093 34.12 297.199 33.88C297.573 31.8267 297.866 30.4133 298.079 29.64C298.293 28.8667 298.413 28.4267 298.439 28.32C298.493 28.2133 298.599 27.96 298.759 27.56C298.946 27.1333 299.053 26.8667 299.079 26.76C299.213 26.3333 299.253 25.8533 299.199 25.32C299.173 25.1067 299.186 24.92 299.239 24.76C299.319 24.5733 299.439 24.4133 299.599 24.28C300.053 23.9333 300.413 23.48 300.679 22.92C300.759 22.7333 300.906 22.4133 301.119 21.96C301.359 21.48 301.599 21.0133 301.839 20.56C302.106 20.08 302.306 19.7467 302.439 19.56C302.866 19.0267 303.253 18.4667 303.599 17.88C303.973 17.2667 304.426 16.7333 304.959 16.28C305.306 15.6933 305.746 15.16 306.279 14.68C306.813 14.1733 307.346 13.7067 307.879 13.28C308.413 12.8533 308.839 12.48 309.159 12.16C309.293 12.0267 309.653 11.9067 310.239 11.8C310.853 11.6667 311.346 11.5467 311.719 11.44C311.879 11.36 312.186 11.4267 312.639 11.64C313.093 11.8267 313.413 12.04 313.599 12.28C313.946 12.8667 314.146 13.3467 314.199 13.72C314.279 14.0933 314.226 14.5333 314.039 15.04C313.879 15.52 313.559 16.2667 313.079 17.28C312.546 18.3467 311.786 19.36 310.799 20.32C309.839 21.2533 308.853 22.0667 307.839 22.76C307.333 23.2133 306.799 23.6267 306.239 24C305.706 24.3733 305.159 24.7067 304.599 25C304.253 25.1867 303.893 25.36 303.519 25.52C303.173 25.68 302.813 25.8267 302.439 25.96C302.253 26.0133 302.079 26.12 301.919 26.28C301.759 26.4133 301.626 26.6133 301.519 26.88C301.359 27.2533 301.266 27.5733 301.239 27.84C301.239 28.08 301.159 28.28 300.999 28.44C300.919 28.52 300.799 28.84 300.639 29.4C300.506 29.9333 300.346 30.5733 300.159 31.32C299.999 32.04 299.866 32.72 299.759 33.36C299.653 33.9733 299.613 34.3867 299.639 34.6C299.666 34.7333 299.693 34.88 299.719 35.04C299.773 35.1733 299.893 35.28 300.079 35.36C300.479 35.28 300.799 35.1467 301.039 34.96C301.279 34.7467 301.546 34.4667 301.839 34.12C302.159 33.72 302.453 33.2933 302.719 32.84C303.013 32.3867 303.253 31.92 303.439 31.44C303.546 31.1467 303.626 30.84 303.679 30.52C303.733 30.1733 303.826 29.8667 303.959 29.6C303.959 28.9867 303.946 28.5333 303.919 28.24C303.919 27.92 303.893 27.6667 303.839 27.48C303.813 27.2667 303.746 27.0267 303.639 26.76C303.853 26.6267 303.973 26.52 303.999 26.44C304.053 26.36 304.173 26.3467 304.359 26.4C304.706 26.48 305.026 26.6133 305.319 26.8C305.639 26.9867 305.946 27.2267 306.239 27.52C306.346 27.6267 306.413 27.7333 306.439 27.84C306.466 27.9467 306.453 28.0667 306.399 28.2C306.373 28.52 306.333 28.84 306.279 29.16C306.253 29.4533 306.239 29.7467 306.239 30.04C306.053 30.3867 305.933 30.76 305.879 31.16C305.826 31.5333 305.733 31.9067 305.599 32.28C305.439 32.6267 305.279 32.9733 305.119 33.32C304.959 33.6667 304.773 33.9867 304.559 34.28C304.239 34.8667 303.866 35.3867 303.439 35.84C303.039 36.2933 302.613 36.7067 302.159 37.08L300.839 37.88ZM302.679 23.12C302.999 23.1733 303.226 23.1867 303.359 23.16C303.519 23.1067 303.679 22.9733 303.839 22.76C305.093 21.9333 306.239 21.12 307.279 20.32C308.319 19.4933 309.186 18.7067 309.879 17.96C310.599 17.1867 311.066 16.5067 311.279 15.92C311.413 15.6267 311.559 15.3467 311.719 15.08C311.906 14.8133 312.026 14.5067 312.079 14.16L311.919 13.04C311.173 13.3867 310.573 13.7067 310.119 14C309.693 14.2933 309.133 14.7867 308.439 15.48C308.173 15.7467 307.773 16.2 307.239 16.84C306.733 17.4533 306.173 18.1467 305.559 18.92C304.946 19.6933 304.373 20.4533 303.839 21.2C303.333 21.9467 302.946 22.5867 302.679 23.12ZM317.388 37.92C317.121 37.6533 316.855 37.2933 316.588 36.84C316.321 36.36 316.108 35.8133 315.948 35.2C315.895 34.9867 315.868 34.6933 315.868 34.32C315.895 33.9467 315.895 33.68 315.868 33.52C315.788 33.7067 315.655 33.9067 315.468 34.12C315.308 34.3067 315.148 34.4667 314.988 34.6C314.881 34.7067 314.641 34.92 314.268 35.24C313.895 35.5333 313.521 35.7733 313.148 35.96C312.268 36.52 311.535 36.8267 310.948 36.88C310.388 36.9333 309.855 36.64 309.348 36C308.921 35.6533 308.615 35.2667 308.428 34.84C308.268 34.4133 308.268 33.8267 308.428 33.08C308.481 32.1467 308.615 31.24 308.828 30.36C309.041 29.4533 309.481 28.2533 310.148 26.76C310.708 25.6667 311.135 24.8667 311.428 24.36C311.721 23.8267 311.908 23.5067 311.988 23.4C312.388 23.2667 312.721 23.28 312.988 23.44C313.255 23.5733 313.415 23.8267 313.468 24.2C313.628 24.4667 313.601 24.92 313.388 25.56C313.201 26.2 312.868 26.9867 312.388 27.92C312.015 28.8267 311.668 29.7333 311.348 30.64C311.055 31.5467 310.881 32.32 310.828 32.96C310.775 33.6 310.935 33.9867 311.308 34.12C311.548 34.2533 311.961 34.2133 312.548 34C313.161 33.7867 313.841 33.2533 314.588 32.4C315.361 31.5467 316.108 30.2533 316.828 28.52C317.041 27.9867 317.201 27.52 317.308 27.12C317.415 26.6933 317.481 26.2267 317.508 25.72C317.455 25.4 317.468 25.12 317.548 24.88C317.655 24.6133 317.868 24.3867 318.188 24.2C318.295 24.0667 318.441 23.9467 318.628 23.84C318.815 23.7067 318.935 23.7067 318.988 23.84L319.628 23.8C319.735 23.7733 319.801 23.84 319.828 24C319.881 24.1333 319.975 24.2533 320.108 24.36C320.401 24.6 320.481 25.12 320.348 25.92C320.215 26.72 319.841 27.84 319.228 29.28C318.721 30.3733 318.375 31.2 318.188 31.76C318.028 32.32 317.935 32.8667 317.908 33.4C317.908 33.88 318.001 34.3333 318.188 34.76C318.375 35.1867 318.668 35.5733 319.068 35.92C319.361 36.1067 319.521 36.32 319.548 36.56C319.601 36.8 319.615 37.08 319.588 37.4C319.535 37.64 319.375 37.84 319.108 38C318.868 38.1333 318.588 38.2 318.268 38.2C317.948 38.2 317.655 38.1067 317.388 37.92ZM323.753 36.52C323.673 36.4133 323.593 36.28 323.513 36.12C323.459 35.96 323.433 35.8267 323.433 35.72C323.433 35.6667 323.419 35.6 323.393 35.52C323.393 35.44 323.339 35.4 323.233 35.4C323.153 35.32 323.206 35.0133 323.393 34.48C323.606 33.92 323.873 33.28 324.193 32.56C324.539 31.84 324.886 31.1467 325.233 30.48C325.606 29.7867 325.913 29.24 326.153 28.84C326.286 28.76 326.366 28.6533 326.393 28.52C326.446 28.36 326.446 28.28 326.393 28.28C326.393 28.28 326.459 28.16 326.593 27.92C326.753 27.6533 326.873 27.48 326.953 27.4C327.166 27.0267 327.326 26.6533 327.433 26.28C327.539 25.88 327.566 25.5467 327.513 25.28C327.406 25.1467 327.286 25.1067 327.153 25.16C327.019 25.2133 326.953 25.24 326.953 25.24C326.846 25.2667 326.686 25.32 326.473 25.4C326.286 25.4533 326.113 25.5333 325.953 25.64C325.339 26.0667 324.926 26.2667 324.713 26.24C324.499 26.1867 324.259 25.84 323.993 25.2C323.886 24.9067 323.846 24.6933 323.873 24.56C323.899 24.4267 324.006 24.28 324.193 24.12C324.406 23.9333 324.606 23.8133 324.793 23.76C324.979 23.68 325.126 23.6 325.233 23.52C325.526 23.3333 325.766 23.2 325.953 23.12C326.166 23.04 326.326 22.9867 326.433 22.96C327.126 22.7467 327.713 22.7067 328.193 22.84C328.673 22.9733 329.033 23.32 329.273 23.88C329.646 24.3333 329.833 24.8533 329.833 25.44C329.833 26 329.646 26.6533 329.273 27.4L328.873 28C328.739 28.2667 328.713 28.4 328.793 28.4C328.899 28.4 329.019 28.3067 329.153 28.12C329.233 28.0133 329.393 27.8533 329.633 27.64C329.873 27.4267 330.033 27.32 330.113 27.32C330.113 27.32 330.139 27.3067 330.193 27.28C330.273 27.2533 330.313 27.1467 330.313 26.96C330.393 26.88 330.473 26.8 330.553 26.72C330.659 26.64 330.713 26.6 330.713 26.6C330.819 26.6 331.019 26.48 331.313 26.24C331.633 25.9733 332.006 25.6667 332.433 25.32C332.726 25.1067 332.993 25 333.233 25C333.846 24.8133 334.339 25.0133 334.713 25.6C335.113 26.1867 335.313 26.9467 335.313 27.88L334.473 30.04L335.913 28.28C336.073 28.0667 336.233 27.88 336.393 27.72C336.579 27.56 336.739 27.4267 336.873 27.32C336.926 27.1333 337.006 27.0267 337.113 27C337.219 26.9733 337.273 26.96 337.273 26.96C337.273 26.96 337.299 26.96 337.353 26.96C337.406 26.9333 337.433 26.88 337.433 26.8C337.566 26.6933 337.713 26.6 337.873 26.52C338.033 26.4133 338.139 26.3067 338.193 26.2C338.646 26.0133 339.059 25.9867 339.433 26.12C339.806 26.2267 340.126 26.56 340.393 27.12C340.579 27.44 340.686 27.72 340.713 27.96C340.739 28.2 340.753 28.56 340.753 29.04C340.699 29.44 340.646 29.76 340.593 30C340.566 30.2133 340.539 30.44 340.513 30.68C340.486 30.92 340.446 31.2533 340.393 31.68C340.286 31.8933 340.219 32.12 340.193 32.36C340.193 32.6 340.193 32.8267 340.193 33.04C340.193 33.3867 340.206 33.6267 340.233 33.76C340.259 33.8667 340.366 33.92 340.553 33.92C340.926 33.84 341.433 33.6533 342.073 33.36C342.739 33.04 343.233 32.7333 343.553 32.44C343.953 32.0667 344.299 31.88 344.593 31.88C344.913 31.8533 345.113 32 345.193 32.32C345.246 32.4267 345.153 32.6667 344.913 33.04C344.699 33.4133 344.446 33.7733 344.153 34.12C343.886 34.4667 343.686 34.64 343.553 34.64C343.473 34.64 343.379 34.72 343.273 34.88C343.166 35.0133 343.046 35.12 342.913 35.2C342.726 35.3867 342.539 35.56 342.353 35.72C342.193 35.88 342.006 35.96 341.793 35.96C341.686 35.96 341.553 36 341.393 36.08C341.259 36.1333 341.099 36.16 340.913 36.16C340.646 36.24 340.233 36.2 339.673 36.04C339.139 35.88 338.793 35.5067 338.633 34.92C338.526 34.6267 338.433 34.16 338.353 33.52C338.273 32.8533 338.286 32.1867 338.393 31.52C338.499 31.04 338.566 30.6 338.593 30.2C338.619 29.8 338.673 29.52 338.753 29.36C338.753 29.28 338.753 29.0933 338.753 28.8C338.753 28.48 338.713 28.32 338.633 28.32C338.526 28.32 338.273 28.52 337.873 28.92C337.499 29.2933 337.046 29.7733 336.513 30.36C336.006 30.9467 335.499 31.56 334.993 32.2C334.486 32.84 334.073 33.4133 333.753 33.92C333.513 34.2133 333.299 34.5733 333.113 35C332.926 35.4267 332.793 35.6667 332.713 35.72C332.526 35.9333 332.299 35.96 332.033 35.8C331.793 35.64 331.566 35.3867 331.353 35.04C331.273 34.88 331.219 34.7467 331.193 34.64C331.166 34.5067 331.166 34.3333 331.193 34.12C331.246 33.88 331.339 33.5333 331.473 33.08C331.633 32.6267 331.846 31.9867 332.113 31.16C332.406 30.2533 332.659 29.44 332.873 28.72C333.113 27.9733 333.233 27.6 333.233 27.6C333.233 27.4933 333.033 27.6 332.633 27.92C332.233 28.2133 331.766 28.5867 331.233 29.04C330.993 29.3333 330.593 29.7733 330.033 30.36C329.473 30.9467 328.859 31.6133 328.193 32.36C327.526 33.1067 326.886 33.8933 326.273 34.72C325.499 35.8133 324.953 36.48 324.633 36.72C324.339 36.96 324.046 36.8933 323.753 36.52ZM358.325 37.52C357.445 37.2 356.765 36.6 356.285 35.72C355.805 34.8133 355.498 33.9333 355.365 33.08C355.338 33.08 355.258 33.1333 355.125 33.24C355.018 33.32 354.885 33.4533 354.725 33.64C354.352 34.0133 353.885 34.48 353.325 35.04C352.765 35.5733 352.178 36.0533 351.565 36.48C350.978 36.88 350.418 37.0533 349.885 37C349.672 36.8667 349.445 36.72 349.205 36.56C348.992 36.3733 348.778 36.1867 348.565 36C348.458 35.8933 348.365 35.7867 348.285 35.68C348.232 35.5733 348.178 35.4533 348.125 35.32C347.832 34.52 347.672 33.8133 347.645 33.2C347.618 32.56 347.685 31.9333 347.845 31.32C348.032 30.68 348.245 29.9733 348.485 29.2C348.512 29.12 348.605 28.7867 348.765 28.2C348.952 27.6133 349.165 26.9467 349.405 26.2C349.645 25.4533 349.872 24.7867 350.085 24.2C350.325 23.6133 350.498 23.2667 350.605 23.16C350.685 23.16 350.765 23.16 350.845 23.16C350.952 23.1333 351.045 23.12 351.125 23.12C351.392 23.12 351.592 23.2133 351.725 23.4C351.832 23.56 351.965 23.68 352.125 23.76C352.312 23.84 352.445 23.9467 352.525 24.08C352.658 24.3467 352.565 24.92 352.245 25.8C351.925 26.6533 351.578 27.6267 351.205 28.72C350.858 29.7067 350.565 30.7067 350.325 31.72C350.085 32.7067 350.072 33.5333 350.285 34.2C350.472 34.2 350.725 34.04 351.045 33.72C351.392 33.3733 351.658 33.1333 351.845 33C352.112 32.84 352.458 32.5333 352.885 32.08C353.338 31.6 353.778 31.12 354.205 30.64C354.632 30.1333 354.925 29.7467 355.085 29.48C355.192 29.32 355.352 29.0267 355.565 28.6C355.778 28.1467 355.992 27.6667 356.205 27.16C356.445 26.6267 356.632 26.1333 356.765 25.68C356.925 25.2267 356.992 24.9067 356.965 24.72C356.938 24.4533 356.965 24.2533 357.045 24.12C357.152 23.96 357.312 23.8133 357.525 23.68C357.658 23.68 357.805 23.68 357.965 23.68C358.125 23.68 358.272 23.6933 358.405 23.72C358.565 23.9067 358.738 24.08 358.925 24.24C359.112 24.4 359.298 24.5733 359.485 24.76C359.618 25.2667 359.538 25.9467 359.245 26.8C358.952 27.6533 358.658 28.5733 358.365 29.56C358.072 30.5467 357.885 31.5467 357.805 32.56C357.725 33.5467 357.992 34.4133 358.605 35.16C359.165 34.92 359.592 34.6933 359.885 34.48C360.205 34.24 360.512 34 360.805 33.76C361.098 33.4933 361.472 33.2267 361.925 32.96C362.192 33.12 362.392 33.44 362.525 33.92C362.658 34.4 362.725 34.7867 362.725 35.08C362.618 35.16 362.512 35.24 362.405 35.32C362.325 35.3733 362.258 35.4533 362.205 35.56C362.045 35.9067 361.725 36.2533 361.245 36.6C360.765 36.9467 360.258 37.2267 359.725 37.44C359.192 37.6267 358.725 37.6533 358.325 37.52ZM367.698 37.04C366.658 36.6133 365.978 36.0267 365.658 35.28C365.365 34.5067 365.312 33.32 365.498 31.72C365.552 30.8933 365.578 30.3467 365.578 30.08C365.578 29.8133 365.432 29.5467 365.138 29.28C365.058 29.1733 364.912 29.0267 364.698 28.84C364.512 28.6533 364.432 28.4933 364.458 28.36C364.432 28.1733 364.445 27.9733 364.498 27.76C364.552 27.52 364.632 27.4 364.738 27.4C364.845 27.4 364.952 27.3733 365.058 27.32C365.192 27.2667 365.312 27.2667 365.418 27.32C365.525 27.32 365.645 27.3333 365.778 27.36C365.912 27.3867 365.978 27.4533 365.978 27.56C366.085 27.7467 366.258 27.7733 366.498 27.64C366.738 27.48 366.992 27.1333 367.258 26.6C367.525 26.1733 367.872 25.7467 368.298 25.32C368.752 24.8933 369.192 24.5067 369.618 24.16C370.072 23.7867 370.445 23.52 370.738 23.36C370.872 23.3067 371.072 23.24 371.338 23.16C371.605 23.08 371.885 23.0133 372.178 22.96C372.498 22.9067 372.765 22.8933 372.978 22.92C373.458 22.9467 373.858 23.08 374.178 23.32C374.525 23.56 374.845 23.84 375.138 24.16C375.485 24.4 375.698 24.72 375.778 25.12C375.885 25.52 375.912 25.9467 375.858 26.4C375.805 26.8533 375.685 27.2667 375.498 27.64C375.418 27.9067 375.192 28.2267 374.818 28.6C374.445 28.9733 374.018 29.3333 373.538 29.68C373.058 30.0267 372.618 30.28 372.218 30.44C371.872 30.52 371.418 30.5867 370.858 30.64C370.325 30.6933 369.818 30.72 369.338 30.72C368.885 30.6933 368.578 30.64 368.418 30.56C368.232 30.4533 368.085 30.6 367.978 31C367.872 31.4 367.792 31.9733 367.738 32.72C367.685 33.3067 367.685 33.7333 367.738 34C367.792 34.2667 367.845 34.4533 367.898 34.56C368.085 34.7467 368.338 34.9867 368.658 35.28C369.005 35.5467 369.485 35.5867 370.098 35.4C370.605 35.2667 371.098 34.92 371.578 34.36C372.085 33.8 372.552 33.3467 372.978 33C373.085 32.8133 373.258 32.7067 373.498 32.68C373.765 32.6267 374.045 32.64 374.338 32.72C374.632 32.9067 374.752 33.1333 374.698 33.4C374.672 33.64 374.538 34.0133 374.298 34.52C374.218 34.7067 374.032 34.9467 373.738 35.24C373.472 35.5067 373.165 35.7867 372.818 36.08C372.498 36.3467 372.205 36.56 371.938 36.72C371.138 37.1467 370.392 37.3733 369.698 37.4C369.005 37.4 368.338 37.28 367.698 37.04ZM370.058 28.92C370.645 28.7867 371.112 28.6933 371.458 28.64C371.805 28.5867 372.138 28.44 372.458 28.2C372.778 27.9333 373.178 27.44 373.658 26.72C373.765 26.4267 373.792 26.1333 373.738 25.84C373.712 25.5467 373.645 25.3467 373.538 25.24C373.298 24.9733 373.005 24.8933 372.658 25C372.338 25.08 372.032 25.2267 371.738 25.44C371.552 25.52 371.272 25.72 370.898 26.04C370.552 26.3333 370.205 26.68 369.858 27.08C369.512 27.4533 369.232 27.8 369.018 28.12C368.805 28.44 368.752 28.6267 368.858 28.68C368.805 28.7867 368.952 28.8533 369.298 28.88C369.672 28.9067 369.925 28.92 370.058 28.92Z" fill="white"/>
<path d="M17.16 47.008V47.488C16.616 47.504 16.2 47.568 15.912 47.68C15.64 47.776 15.456 47.968 15.36 48.256C15.264 48.528 15.216 48.96 15.216 49.552V61.456C15.216 62.032 15.264 62.464 15.36 62.752C15.456 63.04 15.64 63.232 15.912 63.328C16.2 63.424 16.616 63.488 17.16 63.52V64C16.824 63.968 16.384 63.952 15.84 63.952C15.296 63.936 14.712 63.928 14.088 63.928C13.544 63.928 12.992 63.936 12.432 63.952C11.872 63.952 11.408 63.968 11.04 64V63.52C11.584 63.488 11.992 63.424 12.264 63.328C12.552 63.232 12.744 63.04 12.84 62.752C12.936 62.464 12.984 62.032 12.984 61.456V49.552C12.984 48.96 12.936 48.52 12.84 48.232C12.744 47.944 12.552 47.752 12.264 47.656C11.992 47.544 11.584 47.488 11.04 47.488H7.128C6.584 47.488 6.168 47.544 5.88 47.656C5.608 47.752 5.424 47.944 5.328 48.232C5.232 48.52 5.184 48.96 5.184 49.552V61.456C5.184 62.032 5.232 62.464 5.328 62.752C5.424 63.04 5.608 63.232 5.88 63.328C6.168 63.424 6.584 63.488 7.128 63.52V64C6.76 63.968 6.296 63.952 5.736 63.952C5.192 63.936 4.64 63.928 4.08 63.928C3.456 63.928 2.872 63.936 2.328 63.952C1.784 63.952 1.344 63.968 1.008 64V63.52C1.552 63.488 1.96 63.424 2.232 63.328C2.52 63.232 2.712 63.04 2.808 62.752C2.904 62.464 2.952 62.032 2.952 61.456V49.552C2.952 48.96 2.904 48.528 2.808 48.256C2.712 47.968 2.52 47.776 2.232 47.68C1.96 47.568 1.552 47.504 1.008 47.488V47.008C1.344 47.024 1.784 47.04 2.328 47.056C2.872 47.072 3.456 47.08 4.08 47.08C5.024 47.08 5.96 47.072 6.888 47.056C7.816 47.024 8.56 47.008 9.12 47.008C9.68 47.008 10.416 47.024 11.328 47.056C12.24 47.072 13.16 47.08 14.088 47.08C14.712 47.08 15.296 47.072 15.84 47.056C16.384 47.04 16.824 47.024 17.16 47.008ZM22.4183 51.376V66.112C22.4183 66.8 22.6183 67.256 23.0183 67.48C23.4343 67.72 24.0023 67.84 24.7223 67.84V68.344C24.3703 68.328 23.8823 68.304 23.2583 68.272C22.6343 68.256 21.9703 68.248 21.2663 68.248C20.7703 68.248 20.2743 68.256 19.7783 68.272C19.2983 68.304 18.9303 68.328 18.6743 68.344V67.84C19.2503 67.84 19.6583 67.736 19.8983 67.528C20.1383 67.32 20.2583 66.928 20.2583 66.352V54.256C20.2583 53.536 20.1303 53.008 19.8743 52.672C19.6183 52.32 19.1383 52.144 18.4343 52.144V51.64C18.9463 51.688 19.4423 51.712 19.9223 51.712C20.3863 51.712 20.8263 51.688 21.2423 51.64C21.6743 51.576 22.0663 51.488 22.4183 51.376ZM26.2583 51.304C27.1063 51.304 27.8663 51.536 28.5383 52C29.2103 52.448 29.7383 53.112 30.1223 53.992C30.5223 54.872 30.7223 55.96 30.7223 57.256C30.7223 58.12 30.6183 58.976 30.4103 59.824C30.2023 60.656 29.8743 61.416 29.4263 62.104C28.9943 62.776 28.4263 63.32 27.7223 63.736C27.0343 64.136 26.2023 64.336 25.2263 64.336C24.4743 64.336 23.8183 64.16 23.2583 63.808C22.7143 63.456 22.3463 63.032 22.1543 62.536L22.3943 62.2C22.6183 62.648 22.9383 63.024 23.3543 63.328C23.7863 63.632 24.3223 63.784 24.9622 63.784C25.8583 63.784 26.5543 63.504 27.0503 62.944C27.5463 62.384 27.8903 61.64 28.0823 60.712C28.2903 59.768 28.3943 58.728 28.3943 57.592C28.3943 56.312 28.2903 55.264 28.0823 54.448C27.8743 53.632 27.5623 53.024 27.1463 52.624C26.7303 52.224 26.2183 52.024 25.6103 52.024C24.8263 52.024 24.1143 52.352 23.4743 53.008C22.8343 53.648 22.4263 54.624 22.2503 55.936L21.9623 55.6C22.1383 54.24 22.6183 53.184 23.4023 52.432C24.2023 51.68 25.1543 51.304 26.2583 51.304ZM35.9556 64.168C35.2996 64.168 34.7316 64.048 34.2516 63.808C33.7716 63.552 33.4036 63.2 33.1476 62.752C32.9076 62.304 32.7876 61.784 32.7876 61.192C32.7876 60.488 32.9476 59.912 33.2676 59.464C33.6036 59.016 34.0276 58.656 34.5396 58.384C35.0516 58.112 35.5876 57.888 36.1476 57.712C36.7236 57.52 37.2676 57.344 37.7796 57.184C38.2916 57.008 38.7076 56.808 39.0276 56.584C39.3636 56.36 39.5316 56.064 39.5316 55.696V54.208C39.5316 53.536 39.4276 53.024 39.2196 52.672C39.0276 52.32 38.7636 52.088 38.4276 51.976C38.0916 51.848 37.7156 51.784 37.2996 51.784C36.8996 51.784 36.4676 51.84 36.0036 51.952C35.5556 52.064 35.1956 52.296 34.9236 52.648C35.2276 52.712 35.4916 52.872 35.7156 53.128C35.9396 53.384 36.0516 53.712 36.0516 54.112C36.0516 54.512 35.9236 54.832 35.6676 55.072C35.4116 55.296 35.0836 55.408 34.6836 55.408C34.2196 55.408 33.8756 55.264 33.6516 54.976C33.4436 54.672 33.3396 54.336 33.3396 53.968C33.3396 53.552 33.4436 53.216 33.6516 52.96C33.8596 52.704 34.1236 52.464 34.4436 52.24C34.8116 51.984 35.2836 51.768 35.8596 51.592C36.4516 51.4 37.1156 51.304 37.8516 51.304C38.5076 51.304 39.0676 51.384 39.5316 51.544C39.9956 51.688 40.3796 51.904 40.6836 52.192C41.0996 52.576 41.3716 53.048 41.4996 53.608C41.6276 54.152 41.6916 54.808 41.6916 55.576V62.248C41.6916 62.648 41.7476 62.936 41.8596 63.112C41.9876 63.288 42.1796 63.376 42.4356 63.376C42.6116 63.376 42.7796 63.336 42.9396 63.256C43.0996 63.176 43.2916 63.048 43.5156 62.872L43.7796 63.28C43.4436 63.536 43.1236 63.752 42.8196 63.928C42.5156 64.088 42.1076 64.168 41.5956 64.168C41.1316 64.168 40.7476 64.088 40.4436 63.928C40.1396 63.768 39.9076 63.536 39.7476 63.232C39.6036 62.912 39.5316 62.512 39.5316 62.032C39.0996 62.752 38.5796 63.288 37.9716 63.64C37.3796 63.992 36.7076 64.168 35.9556 64.168ZM36.8196 63.208C37.3476 63.208 37.8356 63.056 38.2836 62.752C38.7476 62.448 39.1636 61.992 39.5316 61.384V56.68C39.3396 56.952 39.0596 57.184 38.6916 57.376C38.3236 57.552 37.9236 57.736 37.4916 57.928C37.0596 58.104 36.6436 58.32 36.2436 58.576C35.8596 58.816 35.5396 59.136 35.2836 59.536C35.0276 59.936 34.8996 60.456 34.8996 61.096C34.8996 61.736 35.0676 62.248 35.4036 62.632C35.7556 63.016 36.2276 63.208 36.8196 63.208ZM58.1327 51.664V52.168C57.4767 52.168 57.0047 52.288 56.7167 52.528C56.4447 52.768 56.3087 53.224 56.3087 53.896V61.768C56.3087 62.44 56.4447 62.896 56.7167 63.136C57.0047 63.376 57.4767 63.496 58.1327 63.496V64C57.8607 63.984 57.4447 63.968 56.8847 63.952C56.3247 63.92 55.7807 63.904 55.2527 63.904C54.7247 63.904 54.2047 63.92 53.6927 63.952C53.1967 63.968 52.8207 63.984 52.5647 64V63.496C53.1407 63.496 53.5487 63.376 53.7887 63.136C54.0287 62.896 54.1487 62.44 54.1487 61.768V53.896C54.1487 53.224 54.0287 52.768 53.7887 52.528C53.5487 52.288 53.1407 52.168 52.5647 52.168V51.664C52.8207 51.68 53.1967 51.704 53.6927 51.736C54.2047 51.752 54.7247 51.76 55.2527 51.76C55.7807 51.76 56.3247 51.752 56.8847 51.736C57.4447 51.704 57.8607 51.68 58.1327 51.664ZM50.0687 51.664V52.168C49.4927 52.168 49.0847 52.288 48.8447 52.528C48.6047 52.768 48.4847 53.224 48.4847 53.896V61.768C48.4847 62.44 48.6047 62.896 48.8447 63.136C49.0847 63.376 49.4927 63.496 50.0687 63.496V64C49.8127 63.984 49.4287 63.968 48.9167 63.952C48.4207 63.92 47.9087 63.904 47.3807 63.904C46.8527 63.904 46.3087 63.92 45.7487 63.952C45.1887 63.968 44.7727 63.984 44.5007 64V63.496C45.1567 63.496 45.6207 63.376 45.8927 63.136C46.1807 62.896 46.3247 62.44 46.3247 61.768V53.896C46.3247 53.224 46.1807 52.768 45.8927 52.528C45.6207 52.288 45.1567 52.168 44.5007 52.168V51.664C44.7727 51.68 45.1887 51.704 45.7487 51.736C46.3087 51.752 46.8527 51.76 47.3807 51.76C47.9087 51.76 48.4207 51.752 48.9167 51.736C49.4287 51.704 49.8127 51.68 50.0687 51.664ZM54.3887 53.344L54.7727 53.608L48.1727 62.728L47.7887 62.44L54.3887 53.344ZM54.4127 44.944C54.7807 44.944 55.0847 45.064 55.3247 45.304C55.5647 45.544 55.6847 45.848 55.6847 46.216C55.6847 46.552 55.5807 46.872 55.3727 47.176C55.1647 47.464 54.8927 47.72 54.5567 47.944C54.2207 48.168 53.7887 48.368 53.2607 48.544C52.7327 48.72 52.0687 48.808 51.2687 48.808C50.4847 48.808 49.8207 48.72 49.2767 48.544C48.7487 48.368 48.3167 48.168 47.9807 47.944C47.6447 47.72 47.3727 47.464 47.1647 47.176C46.9567 46.872 46.8527 46.552 46.8527 46.216C46.8527 45.848 46.9727 45.544 47.2127 45.304C47.4527 45.064 47.7567 44.944 48.1247 44.944C48.4927 44.944 48.8047 45.056 49.0607 45.28C49.3167 45.504 49.4447 45.824 49.4447 46.24C49.4447 46.576 49.3487 46.848 49.1567 47.056C48.9807 47.264 48.7407 47.4 48.4367 47.464C48.7567 47.816 49.1967 48.048 49.7567 48.16C50.3327 48.272 50.8367 48.328 51.2687 48.328C51.7007 48.328 52.1967 48.272 52.7567 48.16C53.3327 48.048 53.7807 47.816 54.1007 47.464C53.7967 47.4 53.5487 47.264 53.3567 47.056C53.1807 46.848 53.0927 46.576 53.0927 46.24C53.0927 45.824 53.2207 45.504 53.4767 45.28C53.7487 45.056 54.0607 44.944 54.4127 44.944ZM65.5241 51.304C66.0361 51.304 66.5321 51.368 67.0121 51.496C67.4921 51.624 67.9241 51.816 68.3081 52.072C68.6761 52.312 68.9561 52.592 69.1481 52.912C69.3401 53.216 69.4361 53.552 69.4361 53.92C69.4361 54.352 69.3161 54.688 69.0761 54.928C68.8361 55.152 68.5321 55.264 68.1641 55.264C67.8121 55.264 67.5001 55.16 67.2281 54.952C66.9721 54.744 66.8441 54.448 66.8441 54.064C66.8441 53.696 66.9401 53.4 67.1321 53.176C67.3401 52.952 67.5801 52.808 67.8521 52.744C67.6921 52.456 67.4041 52.216 66.9881 52.024C66.5881 51.832 66.1561 51.736 65.6921 51.736C65.2921 51.736 64.8921 51.832 64.4921 52.024C64.0921 52.216 63.7241 52.536 63.3881 52.984C63.0521 53.416 62.7801 54.016 62.5721 54.784C62.3641 55.536 62.2601 56.48 62.2601 57.616C62.2601 59.024 62.4201 60.144 62.7401 60.976C63.0601 61.808 63.4761 62.408 63.9881 62.776C64.5161 63.128 65.0921 63.304 65.7161 63.304C66.1321 63.304 66.5561 63.224 66.9881 63.064C67.4201 62.904 67.8281 62.648 68.2121 62.296C68.5961 61.928 68.9241 61.44 69.1961 60.832L69.6521 61C69.4921 61.512 69.2281 62.032 68.8601 62.56C68.4921 63.072 68.0121 63.496 67.4201 63.832C66.8281 64.168 66.1001 64.336 65.2361 64.336C64.2441 64.336 63.3481 64.08 62.5481 63.568C61.7481 63.056 61.1081 62.328 60.6281 61.384C60.1641 60.424 59.9321 59.288 59.9321 57.976C59.9321 56.664 60.1641 55.512 60.6281 54.52C61.1081 53.512 61.7721 52.728 62.6201 52.168C63.4681 51.592 64.4361 51.304 65.5241 51.304ZM80.3513 56.848V58.24H71.6873V56.848H80.3513ZM94.8238 51.664V52.168C94.1678 52.168 93.6958 52.288 93.4078 52.528C93.1358 52.768 92.9998 53.224 92.9998 53.896V61.768C92.9998 62.44 93.1358 62.896 93.4078 63.136C93.6958 63.376 94.1678 63.496 94.8238 63.496V64C94.5518 63.984 94.1518 63.968 93.6238 63.952C93.0958 63.92 92.5198 63.904 91.8958 63.904C91.2718 63.904 90.6398 63.92 89.9998 63.952C89.3758 63.968 88.8878 63.984 88.5358 64V63.496C89.2558 63.496 89.8158 63.384 90.2158 63.16C90.6318 62.92 90.8398 62.456 90.8398 61.768V53.896C90.8398 53.224 90.7198 52.768 90.4798 52.528C90.2398 52.288 89.8318 52.168 89.2558 52.168H89.0398C88.6398 52.168 88.3758 52.288 88.2478 52.528C88.1198 52.768 88.0238 53.224 87.9598 53.896C87.8318 55.384 87.6718 56.808 87.4798 58.168C87.3038 59.512 86.9998 60.728 86.5678 61.816C86.4078 62.2 86.2078 62.592 85.9678 62.992C85.7278 63.376 85.4318 63.696 85.0798 63.952C84.7438 64.208 84.3358 64.336 83.8558 64.336C83.5678 64.336 83.2958 64.28 83.0398 64.168C82.7838 64.072 82.5758 63.92 82.4158 63.712C82.2558 63.488 82.1758 63.216 82.1758 62.896C82.1758 62.496 82.2958 62.184 82.5358 61.96C82.7758 61.736 83.0878 61.624 83.4718 61.624C83.8078 61.624 84.0878 61.72 84.3118 61.912C84.5518 62.104 84.6718 62.392 84.6718 62.776C84.6718 63.032 84.5998 63.264 84.4558 63.472C84.3118 63.664 84.0798 63.824 83.7598 63.952C83.7918 63.968 83.8318 63.976 83.8798 63.976C83.9438 63.976 83.9838 63.976 83.9998 63.976C84.3998 63.976 84.7358 63.848 85.0078 63.592C85.2958 63.32 85.5358 63.008 85.7278 62.656C85.9358 62.288 86.0878 61.968 86.1838 61.696C86.4398 61.024 86.6558 60.272 86.8318 59.44C87.0078 58.608 87.1518 57.72 87.2638 56.776C87.3758 55.832 87.4638 54.872 87.5278 53.896C87.5758 53.224 87.4318 52.768 87.0958 52.528C86.7758 52.288 86.2878 52.168 85.6318 52.168V51.664C85.7598 51.68 85.9598 51.704 86.2318 51.736C86.5198 51.752 86.8638 51.76 87.2638 51.76C87.5838 51.76 87.9118 51.76 88.2478 51.76C88.5998 51.76 88.9518 51.76 89.3038 51.76C89.6078 51.76 89.8878 51.76 90.1438 51.76C90.3998 51.76 90.6718 51.76 90.9598 51.76C91.2478 51.76 91.5678 51.76 91.9198 51.76C92.2878 51.76 92.6558 51.752 93.0238 51.736C93.4078 51.72 93.7598 51.704 94.0798 51.688C94.3998 51.672 94.6478 51.664 94.8238 51.664ZM109.859 51.664V52.168C109.203 52.168 108.731 52.288 108.443 52.528C108.171 52.768 108.035 53.224 108.035 53.896V61.768C108.035 62.44 108.171 62.896 108.443 63.136C108.731 63.376 109.203 63.496 109.859 63.496V64C109.587 63.984 109.171 63.968 108.611 63.952C108.051 63.92 107.507 63.904 106.979 63.904C106.451 63.904 105.931 63.92 105.419 63.952C104.923 63.968 104.547 63.984 104.291 64V63.496C104.867 63.496 105.275 63.376 105.515 63.136C105.755 62.896 105.875 62.44 105.875 61.768V53.896C105.875 53.224 105.755 52.768 105.515 52.528C105.275 52.288 104.867 52.168 104.291 52.168V51.664C104.547 51.68 104.923 51.704 105.419 51.736C105.931 51.752 106.451 51.76 106.979 51.76C107.507 51.76 108.051 51.752 108.611 51.736C109.171 51.704 109.587 51.68 109.859 51.664ZM101.795 51.664V52.168C101.219 52.168 100.811 52.288 100.571 52.528C100.331 52.768 100.211 53.224 100.211 53.896V61.768C100.211 62.44 100.331 62.896 100.571 63.136C100.811 63.376 101.219 63.496 101.795 63.496V64C101.539 63.984 101.155 63.968 100.643 63.952C100.147 63.92 99.6353 63.904 99.1073 63.904C98.5793 63.904 98.0353 63.92 97.4753 63.952C96.9153 63.968 96.4993 63.984 96.2273 64V63.496C96.8833 63.496 97.3473 63.376 97.6193 63.136C97.9073 62.896 98.0513 62.44 98.0513 61.768V53.896C98.0513 53.224 97.9073 52.768 97.6193 52.528C97.3473 52.288 96.8833 52.168 96.2273 52.168V51.664C96.4993 51.68 96.9153 51.704 97.4753 51.736C98.0353 51.752 98.5793 51.76 99.1073 51.76C99.6353 51.76 100.147 51.752 100.643 51.736C101.155 51.704 101.539 51.68 101.795 51.664ZM106.115 53.344L106.499 53.608L99.8993 62.728L99.5153 62.44L106.115 53.344ZM117.251 51.304C117.763 51.304 118.259 51.368 118.739 51.496C119.219 51.624 119.651 51.816 120.035 52.072C120.403 52.312 120.683 52.592 120.875 52.912C121.067 53.216 121.163 53.552 121.163 53.92C121.163 54.352 121.043 54.688 120.803 54.928C120.563 55.152 120.259 55.264 119.891 55.264C119.539 55.264 119.227 55.16 118.955 54.952C118.699 54.744 118.571 54.448 118.571 54.064C118.571 53.696 118.667 53.4 118.859 53.176C119.067 52.952 119.307 52.808 119.579 52.744C119.419 52.456 119.131 52.216 118.715 52.024C118.315 51.832 117.883 51.736 117.419 51.736C117.019 51.736 116.619 51.832 116.219 52.024C115.819 52.216 115.451 52.536 115.115 52.984C114.779 53.416 114.507 54.016 114.299 54.784C114.091 55.536 113.987 56.48 113.987 57.616C113.987 59.024 114.147 60.144 114.467 60.976C114.787 61.808 115.203 62.408 115.715 62.776C116.243 63.128 116.819 63.304 117.443 63.304C117.859 63.304 118.283 63.224 118.715 63.064C119.147 62.904 119.555 62.648 119.939 62.296C120.323 61.928 120.651 61.44 120.923 60.832L121.379 61C121.219 61.512 120.955 62.032 120.587 62.56C120.219 63.072 119.739 63.496 119.147 63.832C118.555 64.168 117.827 64.336 116.963 64.336C115.971 64.336 115.075 64.08 114.275 63.568C113.475 63.056 112.835 62.328 112.355 61.384C111.891 60.424 111.659 59.288 111.659 57.976C111.659 56.664 111.891 55.512 112.355 54.52C112.835 53.512 113.499 52.728 114.347 52.168C115.195 51.592 116.163 51.304 117.251 51.304ZM134.755 51.664C134.691 52.224 134.643 52.76 134.611 53.272C134.595 53.784 134.587 54.176 134.587 54.448C134.587 54.736 134.595 55.016 134.611 55.288C134.627 55.544 134.643 55.76 134.659 55.936H134.107C134.027 54.832 133.859 54.008 133.603 53.464C133.347 52.92 132.995 52.568 132.547 52.408C132.099 52.232 131.547 52.144 130.891 52.144H129.955V61.528C129.955 62.312 130.179 62.84 130.627 63.112C131.091 63.368 131.715 63.496 132.499 63.496V64C132.131 63.984 131.619 63.968 130.963 63.952C130.323 63.92 129.627 63.904 128.875 63.904C128.139 63.904 127.443 63.92 126.787 63.952C126.131 63.968 125.619 63.984 125.251 64V63.496C126.051 63.496 126.675 63.368 127.123 63.112C127.571 62.84 127.795 62.312 127.795 61.528V52.144H126.619C125.963 52.144 125.427 52.232 125.011 52.408C124.611 52.584 124.299 52.944 124.075 53.488C123.867 54.032 123.723 54.856 123.643 55.96H123.091C123.123 55.784 123.139 55.568 123.139 55.312C123.155 55.04 123.163 54.76 123.163 54.472C123.163 54.2 123.147 53.808 123.115 53.296C123.099 52.784 123.059 52.248 122.995 51.688H125.299C125.843 51.688 126.419 51.696 127.027 51.712C127.651 51.728 128.259 51.736 128.851 51.736C129.459 51.736 130.075 51.728 130.699 51.712C131.323 51.68 131.907 51.664 132.451 51.664H134.755Z" fill="white"/>
</svg>
