<svg width="530" height="663" viewBox="0 0 530 663" fill="none" xmlns="http://www.w3.org/2000/svg">
<path d="M382.878 447.286L371.713 481.043L357.113 473.44L372.263 441.532C372.263 441.532 382.157 446.728 382.878 447.286Z" fill="#79E1CF"/>
<path d="M310.597 351.525C291.854 346.154 273.718 338.802 256.489 329.59L171.222 343.19C171.222 343.19 155.625 352.362 153.735 352.641C148.399 352.199 143.054 353.417 138.413 356.128C132.126 360.557 119.553 360.557 116.289 361.115C111.577 362.661 107.074 364.806 102.891 367.497C99.6273 369.45 85.1299 374.157 82.6563 375.831C80.1828 377.505 74.48 379.319 73.1058 386.293C71.1849 394.863 70.034 403.596 69.6704 412.378C69.9453 418.76 71.5599 435.952 74.0334 442.613C76.5069 449.273 87.1567 483.937 87.7751 487.947C88.3935 491.958 89.6646 519.019 91.2105 524.599C92.7565 530.178 100.211 559.471 101.517 564.807C102.822 570.143 112.716 596.716 114.365 601.423C116.014 606.131 118.488 614.745 117.801 618.337C116.807 622.228 116.53 626.27 116.976 630.263C117.526 634.727 113.953 656.627 115.052 658.162C116.152 659.696 154.422 661.474 167.786 657.325C181.15 653.175 234.468 658.998 256.077 657.883C277.685 656.767 334.782 656.209 342.958 654.395C351.135 652.582 361.269 652.198 356.356 646.654C351.444 641.109 350.894 633.332 350.619 625.73C349.9 618.857 348.531 612.074 346.531 605.469L363.708 486.029L338.492 433.72L310.597 351.525Z" fill="#BED4FC"/>
<path d="M73.3807 317.35C69.0864 320.418 69.6361 319.756 73.3807 320.244C77.1253 320.732 79.0835 320.872 79.5301 323.348C79.8966 325.364 80.4606 327.338 81.2135 329.241C81.3882 329.107 81.5513 328.956 81.6945 328.788C88.5653 318.535 83.2404 321.186 95.8484 320.139C98.3563 320.139 91.4511 317.768 89.4242 313.165C88.6684 311.456 92.2069 305.074 90.2143 306.19C84.168 309.433 86.1262 308.248 85.3704 308.701C83.103 310.131 76.3695 304.516 73.793 303.749C73.0028 309.399 79.3584 312.886 73.3807 317.35Z" fill="#FFEAB6"/>
<path d="M22.5364 209.244C20.853 209.871 25.9718 211.371 28.0674 212.975C31.5028 215.556 28.2735 217.718 28.5484 221.344C31.228 220.194 34.2512 214.37 38.2362 214.37C45.4163 216.811 45.8629 217.857 47.134 217.857C46.7218 215.242 40.6754 209.941 44.1108 207.116C45.4506 206.07 48.783 201.083 47.0997 201.467C40.4349 203.036 40.4693 203.35 39.1982 202.443C32.4991 197.77 32.3273 190.587 31.0906 200.421C30.0256 209.244 32.1899 205.756 22.5364 209.244Z" fill="#FFEAB6"/>
<path d="M30.8844 94.3727C31.0562 94.6168 31.1937 94.9307 31.4342 95.0353C40.0914 99.5688 40.6754 99.0108 40.1601 102.01C38.8547 110.275 39.1638 108.984 39.37 110.414C48.5425 101.975 44.901 103.056 46.2408 102.812C48.783 102.428 53.5239 105.323 58.0931 106.299C59.6734 106.299 59.055 105.95 55.1042 99.3246C50.7412 92.106 71.9721 83.5621 53.5583 88.8628C50.1228 89.8741 50.7412 89.3859 44.4888 80.8421C42.4962 78.0871 43.7673 90.5367 39.1295 90.9552C37.5148 90.9552 35.2818 92.908 31.6059 93.745C31.3339 93.9162 31.0906 94.1277 30.8844 94.3727Z" fill="#FFEAB6"/>
<path d="M386.245 246.209C368.793 242.233 386.245 247.813 382.363 254.439C379.168 260.158 377.862 259.635 384.08 258.24C391.295 256.601 388.031 256.113 395.52 263.82C396.413 264.761 395.348 260.925 395.074 257.299C394.764 252.974 403.009 251.579 404.212 249.313C403.628 249.313 404.658 249.313 399.368 248.79C392.841 248.232 395.933 244.5 393.081 238.572C390.745 240.629 388.34 246.662 386.245 246.209Z" fill="#FFEAB6"/>
<path d="M351.134 167.815C350.275 169.279 354.569 167.815 360.65 165.513C364.085 164.223 363.295 161.607 371.403 173.115C374.529 177.614 369.96 163.211 375.147 161.259C386.896 156.795 386.897 157.771 373.98 153.029C371.163 151.982 372.502 145.74 370.544 140.37C358.28 152.017 368.62 151.041 350.687 146.856C353.333 154.04 358.829 156.097 355.669 159.829C353.914 162.341 352.396 165.014 351.134 167.815Z" fill="#FFEAB6"/>
<path d="M257.451 372.483C255.836 380.225 254.256 381.132 256.042 380.853C271.605 378.377 286.789 362.754 289.916 349.642C290.5 347.166 290.912 347.41 288.301 346.503C280.64 343.748 276.689 340.784 277.651 342.528C279.575 346.015 278.201 350.514 278.441 352.118C279.334 358.151 275.212 363.242 269.269 366.45C268.478 366.869 268.753 366.799 263.497 367.148C260.062 366.311 259.615 365.962 259.203 367.148C258.433 368.86 257.846 370.647 257.451 372.483Z" fill="#FFC6A6"/>
<path d="M135.012 106.996C125.599 111.007 122.954 111.634 129.309 113.239C133.295 112.262 133.776 112.192 136.18 107.24C136.421 106.613 135.665 106.717 135.012 106.996Z" fill="#E6FCFF"/>
<path d="M116.186 105.462C115.602 105.462 115.636 105.88 115.877 106.194C117.285 108.112 118.9 110.937 121.545 109.228C128.416 104.73 141.814 102.672 138.138 96.8484C136.627 94.4771 137.864 97.1971 130.031 100.615C121.545 104.311 118.488 105.741 116.186 105.462Z" fill="#E6FCFF"/>
<path d="M113.369 97.9295C111.273 98.1387 113.85 101.94 117.182 101.87C122.713 99.9172 139.375 93.7099 134.772 90.0134C134.222 89.5949 134.497 88.4092 133.707 88.479C132.333 88.479 134.153 89.9436 125.049 93.6401C115.946 97.3367 115.155 97.6505 113.369 97.9295Z" fill="#E6FCFF"/>
<path d="M130.581 81.0165C112.373 94.9656 105.158 87.7818 110.655 94.2682C111.686 95.4887 115.671 93.4312 117.182 92.8732C124.534 90.1183 136.799 86.1428 130.581 81.0165Z" fill="#E6FCFF"/>
<path d="M82.4159 56.2218C81.3509 56.5357 82.1411 59.0814 83.103 58.5583C86.7445 56.6752 83.687 55.8034 82.4159 56.2218Z" fill="#FFD152"/>
<path d="M118.728 46.667C120.618 48.2363 121.477 45.2024 120.24 44.8536C119.828 44.749 119.106 46.0742 118.728 46.667Z" fill="#FFD152"/>
<path d="M105.777 18.1408C63.2118 17.8967 54.0392 74.7394 98.2875 79.8657C104.059 80.5631 105.158 78.8893 106.945 81.2257C110.174 85.8638 108.078 87.9562 110.724 87.2587C116.123 85.8583 121.27 83.5982 125.977 80.5631C130.34 77.8779 122.542 77.0759 124.809 72.0891C127.076 67.1022 127.179 70.9034 130.752 65.1145C147.277 38.367 123.847 17.1295 105.777 18.1408ZM84.5458 62.5688C82.3815 68.0089 75.6481 55.1409 80.8356 53.4321C86.023 51.7233 87.3972 55.4198 88.2217 55.2106C96.1919 53.3972 91.2449 54.4434 95.8484 52.0372C97.9783 50.9213 99.6617 53.5367 101.379 51.0607C104.093 47.0852 102.135 51.0607 114.881 45.8996C115.774 45.5508 116.255 44.2954 116.942 43.4585C117.629 42.6215 118.694 42.6215 119.965 42.2728C123.675 41.2615 125.805 48.9684 119.965 49.9797C119.347 49.9797 118.9 49.9797 119.106 51.0607C120.412 56.745 112.819 61.5226 114.331 64.2775C116.384 68.2644 117.832 72.5441 118.625 76.9712C118.797 78.0174 117.869 77.4595 117.492 77.7733C116.049 79.0287 115.362 72.4726 111.651 65.3935C109.143 60.6856 116.427 55.9778 116.255 51.9326C116.049 46.7365 114.056 49.7007 109.384 51.2002C106.773 52.0372 104.78 51.2002 104.059 52.9439C103.592 53.8756 102.811 54.6064 101.86 55.0031C100.907 55.4001 99.8477 55.4364 98.8715 55.106C95.7109 54.269 96.5355 56.745 92.8252 57.5471C89.1149 58.3492 89.1493 58.1748 89.1493 59.5697C89.1493 60.0579 89.1493 60.581 89.7333 60.7205C91.4997 61.3322 93.183 62.164 94.749 63.1965C96.7072 64.1381 95.8483 62.5339 99.112 64.696C104.025 67.9392 103.2 65.8817 105.261 67.5207C108.697 70.3454 116.22 78.401 113.816 80.319C111.411 82.237 111.136 77.2154 106.258 72.6819C101.379 68.1484 102.135 70.3454 100.486 69.1946C97.0507 67.0325 96.5698 66.7186 96.0545 66.6838C93.1 66.4397 90.8326 63.9288 88.5996 63.7196C85.5764 63.4406 86.3666 60.7554 85.7139 60.9646C85.0611 61.1739 84.7863 61.9759 84.5458 62.5688Z" fill="#FFD152"/>
<path d="M378.995 50.3975C378.455 52.2094 378.47 54.1452 379.038 55.9484C379.605 57.7513 380.699 59.3371 382.174 60.4952C383.649 61.6536 385.436 62.3298 387.298 62.4347C389.16 62.5393 391.009 62.068 392.601 61.0822C394.193 60.0968 395.453 58.6435 396.214 56.9152C396.974 55.187 397.2 53.2649 396.861 51.4036C396.522 49.5419 395.634 47.8291 394.315 46.4912C392.995 45.1532 391.307 44.2538 389.473 43.9111C387.247 43.5034 384.951 43.9385 383.02 45.134C381.089 46.3293 379.657 48.2023 378.995 50.3975Z" fill="#9EDEFF"/>
<path d="M413.041 80.4236C411.529 78.68 409.605 76.9363 408.678 79.2728C408.678 79.2728 439.906 114.704 439.974 114.773C442.517 112.995 443.513 116.622 413.041 80.4236Z" fill="#9EDEFF"/>
<path d="M392.324 111.251C391.706 112.751 391.981 112.193 413.624 133.953C414.723 135.104 414.208 135.069 415.41 117.598C415.41 115.959 401.669 105.044 397.237 99.6734C392.805 94.303 393.973 95.2096 392.324 111.251Z" fill="#9EDEFF"/>
<path d="M429.977 66.2653C427.332 65.9166 434.821 72.089 440.283 80.4585C441.52 82.2719 446.192 88.6188 448.013 88.8629C448.013 88.8629 465.19 89.386 465.19 89.2813C465.671 88.6188 456.498 79.7262 448.013 69.8572C446.948 68.2182 446.948 68.4972 429.977 66.2653Z" fill="#9EDEFF"/>
<path d="M346.462 15.6651C346.799 20.5996 347.865 25.4545 349.622 30.0676C357.902 50.5728 357.18 48.7245 359.448 44.6095C369.96 25.6038 384.526 23.6858 381.778 21.9771C374.811 16.7691 366.98 12.8715 358.658 10.4691C345.637 6.98182 347.08 10.4691 346.462 15.6651Z" fill="#FF8E92"/>
<path d="M138.035 271.004C140.681 261.832 134.153 238.712 132.195 233.585C129.538 224.344 128.768 214.649 129.928 205.094C131.302 194.179 138.86 175.697 142.845 166.734C146.83 157.772 164.145 141.172 169.641 136.848C175.138 132.524 201.488 121.295 210.866 117.11C220.245 112.925 237.113 111.984 237.113 111.984C239.63 108.787 243.142 106.552 247.076 105.646C251.007 104.74 255.126 105.216 258.756 106.997C269.063 111.635 270.78 122.794 271.673 123.039C292.973 122.794 295.962 140.231 295.962 140.231C303.863 148.356 301.665 153.483 298.367 158.818C295.069 164.154 284.385 164.293 284.385 164.293C284.385 164.293 219.421 149.96 199.598 181.346C179.776 212.731 187.574 263.925 187.574 263.925L187.025 314.769C183.878 317.803 179.945 319.86 175.685 320.709C171.428 321.555 167.019 321.151 162.977 319.547C175.31 309.991 172.939 304.551 172.939 304.551C154.251 316.269 146.006 304.551 146.006 304.551C149.18 303.921 152.158 302.511 154.671 300.445C157.188 298.376 159.166 295.717 160.434 292.695C154.929 294.389 149.244 295.406 143.498 295.728C128.141 297.228 124.706 288.754 124.706 288.754C124.706 288.754 135.424 280.175 138.035 271.004Z" fill="#FFB564"/>
<path d="M269.612 296.426C270.571 295.339 271.104 293.93 271.104 292.468C271.104 291.006 270.571 289.597 269.612 288.51C290.74 275.293 286.205 264.377 290.74 266.574C295.601 268.753 300.794 270.074 306.096 270.48C307.471 270.899 302.283 279.896 290.843 283.767C281.155 287.045 301.149 296.426 304.207 296.67C309.188 297.054 288.164 309.852 276.243 301.692C275.962 301.462 275.616 301.325 275.258 301.305C274.897 301.285 274.539 301.378 274.236 301.575C273.932 301.773 273.698 302.061 273.563 302.401C273.428 302.741 273.406 303.116 273.494 303.47C274.459 308.344 276.188 313.028 278.613 317.35C272.67 318.431 265.868 314.455 260.921 311.038C259.615 310.166 260.096 308.631 259.581 307.55C259.375 307.062 263.703 303.819 269.612 296.426Z" fill="#FFB564"/>
<path d="M323.72 339.389C317.433 352.641 317.158 351.978 318.704 352.536L388.546 375.936C389.371 375.936 388.237 377.924 403.765 346.747C404.555 345.178 408.712 347.305 359.689 330.636C351.169 327.742 343.061 324.847 333.957 321.813C331.621 321.046 333.58 318.675 323.72 339.389ZM333.099 350.723C334.576 348.142 335.744 349.921 337.565 349.99C338.011 349.99 382.5 363.94 385.661 365.474C387.207 366.137 388.615 368.229 386.726 368.717C386.004 368.892 335.744 353.826 333.099 350.723ZM343.886 336.006C342.786 335.449 342.031 333.496 344.367 333.007C344.779 333.007 347.424 333.81 351.238 334.786C364.808 338.273 366.697 340.854 370.201 340.784C374.255 340.784 374.083 342.458 380.13 343.818C393.871 346.922 391.638 348.247 395.314 348.421C395.761 348.421 396.482 349.502 396.62 349.921C396.929 351.176 393.184 351.909 391.398 350.897C387.578 348.814 383.406 347.477 379.099 346.957C373.43 345.945 373.637 344.097 370.304 344.271C363.949 343.4 361.544 340.784 355.772 339.319C350.001 337.855 348.283 338.273 343.886 336.006ZM352.921 348.735C352.346 348.773 351.776 348.601 351.316 348.25C350.856 347.895 350.535 347.39 350.413 346.817C350.413 342.807 364.155 349.188 370.648 350.304C376.557 351.316 389.989 355.291 391.947 357.453C393.322 358.988 392.566 359.859 390.711 359.964C383.84 357.593 384.767 357.279 382.294 356.477C368.002 352.397 377.828 355.744 362.678 351.316C355.807 349.433 355.36 348.735 352.921 348.735Z" fill="#FFF5DB"/>
<path d="M378.241 433.511C377.21 435.638 380.989 436.824 383.188 437.242C384.493 436.37 381.607 441.218 413.076 376.877C433.207 336.216 433.207 337.855 431.146 337.855C420.428 337.89 437.021 313.862 378.241 433.511Z" fill="#79E1CF"/>
<path d="M423.519 363.207C385.248 442.02 385.97 438.393 387.619 438.986C408.231 446.17 397.925 459.91 400.055 464.617C401.189 462.978 472.199 315.292 472.68 314.071C472.13 313.862 473.985 312.921 443.891 331.159C434.238 337.018 439.837 329.555 423.519 363.207Z" fill="#79E1CF"/>
<path d="M317.777 324.568C329.49 299.913 328.7 301.378 329.662 301.726C339.968 305.458 393.904 323.627 403.008 326.661C425.442 334.193 424.033 332.728 422.659 335.448C370.097 439.753 377.998 433.86 371.986 432.221C364.944 432.046 369.65 443.938 369.41 444.565C369.169 445.193 367.452 449.552 366.49 449.204C364.415 448.288 362.293 447.483 360.134 446.797C355.279 446.068 350.548 444.647 346.083 442.578C336.464 437.591 336.327 453.249 348.488 459.282C351.778 461.313 355.311 462.906 359.001 464.025C359.619 464.025 359.756 464.513 359.482 465.071C357.008 470.371 357.626 469.953 356.046 469.953C337.495 469.953 339.693 466.919 326.845 464.164C323.066 463.327 321.487 468.035 322.963 471.139C323.306 471.836 322.722 471.766 322.002 471.557C322.002 471.557 260.165 452.97 257.485 452.098C254.805 451.226 256.077 454.365 317.777 324.568ZM316.403 355.291C316.952 355.5 380.85 377.017 388.545 379.318C391.397 379.005 390.847 380.574 406.753 346.991C408.883 342.528 411.7 344.62 333.407 318.186C330.315 317.14 330.452 318.186 326.158 327.114C314.548 351.316 312.005 353.757 316.403 355.291Z" fill="#79E1CF"/>
<path d="M131.165 528.121C127.729 533.317 126.939 525.157 155.487 566.062C158.582 570.314 161.932 574.368 165.519 578.198C170.363 583.882 174.245 590.229 181.906 596.192C199.839 610.142 213.271 606.654 228.902 588.067C231.27 583.984 232.953 579.529 233.884 574.885C236.117 565.714 240.102 563.168 242.885 552.776C250.168 525.61 242.232 394.349 241.51 393.686C238.556 390.931 243.159 392.291 249.79 383.503C255.183 376.529 252.676 369.066 263.532 351.141C263.749 350.656 264.073 350.229 264.476 349.889C264.883 349.552 265.358 349.31 265.868 349.188C267.963 348.84 266.246 351.595 265.284 353.757C263.841 356.93 266.795 354.907 267.345 354.873C268.753 354.698 269.715 356.337 264.906 359.197C264.322 359.546 262.741 359.58 262.329 360.138C261.925 360.917 261.636 361.751 261.47 362.614C261.47 363.103 261.47 363.242 261.917 363.277C265.696 363.73 267.345 364.532 270.471 361.847C272.258 360.313 275.452 356.825 275.384 354.454C275.212 347.48 276.38 343.992 270.471 340.505C268.169 339.215 267.757 337.018 267.62 334.437C267.379 329.694 262.673 332.275 260.749 326.103C258 317.315 245.427 325.056 247.248 320.139C252.813 305.318 270.265 295.728 267.86 291.474C265.593 287.742 257.313 294.682 255.183 297.193C248.519 304.83 236.289 315.222 235.189 322.476C234.502 326.835 231.513 328.334 228.525 338.517C223.131 356.791 217.016 364.567 216.294 384.759C215.161 416.144 183.246 536.595 183.211 536.699C182.318 538.583 180.188 537.781 180.291 535.828C181.528 512.428 194.376 486.622 191.216 486.448C186.005 486.082 180.792 487.116 176.1 489.447C172.939 491.853 153.426 509.464 151.708 511.103C144.219 517.868 136.283 520.17 131.165 528.121Z" fill="#FFC6A6"/>
<path d="M170.054 232.295C155.556 219.845 138.413 229.958 152.876 253.463C155.762 258.101 158.648 262.111 171.256 267.412C187.643 274.386 189.601 231.806 189.91 309.259C189.91 331.229 187.574 337.82 157.171 352.78C155.968 353.373 166.515 361.359 166.584 361.394C184.895 374.715 174.142 368.368 194.411 376.633C197.846 377.958 212.034 383.922 212.275 381.725C215.023 358.395 220.52 353.059 224.299 339.389C227.734 327.323 231.582 324.254 231.926 320.209C232.407 314.281 245.667 302.773 247.282 300.68C247.866 299.983 247.797 299.704 246.938 299.39C208.221 286.592 214.096 276.862 218.012 279.199C225.982 283.906 261.676 296.879 278.304 277.525C296.546 256.252 296.958 218.485 289.4 220.856C286.277 221.558 283.022 221.376 279.993 220.33C276.967 219.285 274.279 217.417 272.223 214.928C270.231 212.905 272.223 220.612 262.604 222.391C260.611 222.774 259.856 220.298 261.058 219.706C263.978 218.206 266.726 217.509 268.307 212.522C269.543 208.651 257.657 211.755 258 202.688C258 200.281 260.302 200.212 260.818 202.374C261.745 206.105 260.818 205.547 266.314 206.593C266.795 206.593 266.933 206.593 266.761 206.001C263.738 196.341 264.7 193.586 261.608 191.249C260.268 190.455 258.742 190.04 257.193 190.048C255.641 190.057 254.121 190.488 252.79 191.297C251.459 192.106 250.368 193.263 249.627 194.647C248.888 196.032 248.527 197.592 248.587 199.166C248.141 210.569 237.25 227.273 224.539 226.785C206.538 226.052 201.35 207.221 198.087 205.164C195.922 203.769 193.655 204.641 184.517 210.325C181.837 211.964 189.636 228.494 176.924 234.143C175.585 234.736 178.505 236.549 175.241 237.63C174.863 238.049 173.008 234.806 170.054 232.295ZM153.598 243.245C153.123 242.271 152.925 241.181 153.028 240.098C153.131 239.016 153.529 237.984 154.179 237.121C154.832 236.257 155.708 235.595 156.71 235.211C157.712 234.826 158.8 234.734 159.85 234.945C165.416 236.166 171.496 243.349 168.542 249.173C167.546 251.161 168.542 255.276 170.603 255.764C174.691 256.671 174.966 254.718 175.963 256.601C176.959 258.484 174.76 260.088 172.527 260.088C165.45 260.088 163.08 251.858 165.347 247.43C165.636 246.947 165.808 246.399 165.845 245.834C165.88 245.269 165.779 244.703 165.553 244.186C164.11 240.699 156.93 234.108 156.243 243.454C156.071 244.43 154.319 244.779 153.598 243.245ZM262.02 247.185C262.02 245.93 262.776 242.268 265.661 242.199C269.097 242.199 269.612 247.395 267.139 249.94C265.661 251.51 262.844 251.858 262.02 247.185Z" fill="#FFC6A6"/>
<path d="M317.536 507.092C307.505 514.067 309.051 507.406 313.895 540.466C316.242 554.729 319.535 568.814 323.755 582.627C324.717 585.487 323.274 574.432 323.755 562.715C324.236 546.813 340.382 520.239 342.1 520.867C345.535 522.018 338.665 526.098 330.282 549.672C324.545 566.202 327.568 588.939 331.588 595.007C336.809 602.818 341.344 606.131 354.502 604.109C360.404 603.205 365.91 600.546 370.325 596.469C374.74 592.391 377.865 587.076 379.306 581.197C381.161 573.455 384.184 564.528 382.741 555.147C375.87 504.93 379.993 528.19 371.404 540.187H369.858C370.339 536.386 370.683 536.699 375.286 521.355C376.729 516.473 376.763 515.776 378.275 514.799C384.768 510.684 383.566 510.022 384.837 503.047C385.627 498.828 390.746 499.944 390.093 494.015C389.915 492.344 390.158 490.653 390.801 489.104C391.444 487.552 392.466 486.195 393.769 485.157C396.139 482.891 395.59 476.195 391.467 471.836C384.115 464.094 383.291 460.642 376.145 455.271C375.011 454.4 374.736 454.714 364.155 452.203C361.854 451.645 363.262 451.087 358.418 450.215C345.467 447.844 342.203 443.24 342.34 446.17C342.637 448.529 343.575 450.755 345.05 452.604C346.524 454.452 348.477 455.847 350.689 456.631C353.474 458.276 356.421 459.622 359.483 460.642C380.096 465.385 378.996 479.403 375.63 475.393C371.232 470.162 371.885 469.081 370.236 472.15C368.999 474.451 369.618 473.405 373.672 477.102C377.107 480.24 388.581 489.656 383.016 488.819C382.226 488.819 381.779 488.296 374.496 482.089C369.309 477.625 367.213 473.615 350.448 473.44C340.795 473.44 333.271 468.942 326.709 467.651C324.201 467.128 324.854 475.288 342.444 480.101C346.282 481.661 350.264 482.83 354.33 483.588C357.546 483.751 360.648 484.852 363.262 486.762C365.667 489.063 367.453 490.249 366.217 491.539C365.77 492.027 365.358 492.411 364.705 491.714C360.548 487.32 356.254 487.529 347.528 485.75C344.917 485.227 345.467 483.902 341.31 483.484C337.058 482.742 332.849 481.763 328.702 480.554C325.266 480.554 327.912 487.947 345.879 494.992C354.571 498.479 358.659 499.42 361.716 504.059C362.541 505.314 363.228 507.197 361.716 507.895C359.208 509.045 360.72 503.71 351.754 500.397C350.208 499.839 349.83 499.699 349.28 506.674C348.112 521.809 353.609 528.435 354.055 534.572C354.055 535.409 353.093 536.49 352.063 535.2C350.502 531.785 349.115 528.295 347.906 524.738C340.21 501.373 358.212 493.771 334.164 501.269C323.274 504.686 321.762 504.163 317.536 507.092Z" fill="#FFC6A6"/>
<path d="M373.155 436.266C368.483 435.185 372.365 445.437 380.919 450.215C387.79 454.155 388.477 454.539 389.439 455.725C390.401 456.91 389.439 458.41 388.546 458.096C382.912 456.422 373.567 446.204 392.737 468.558C397.272 473.859 396.585 474.242 397.203 469.569C397.162 467.794 397.001 466.024 396.722 464.269C395.863 460.119 400.364 450.319 395.554 447.216C389.33 443.374 382.719 440.218 375.835 437.8C375.007 437.178 374.107 436.664 373.155 436.266Z" fill="#FFC6A6"/>
<path d="M287.82 177.859C287.82 177.37 285.072 163.909 281.705 158.992C278.338 154.075 266.795 141.556 266.795 141.556C266.795 141.556 258.207 146.089 257.416 138.069C257.416 138.069 254.187 141.172 250.546 135.418C246.904 129.664 237.388 130.257 233.952 131.792C230.517 133.326 221.07 135.07 215.848 143.962C210.626 152.855 192.727 183.857 189.532 188.32C186.337 192.784 176.203 205.757 183.727 207.954L197.468 200.003C197.468 200.003 202.243 185.81 214.233 183.787C226.223 181.764 240.48 180.544 246.32 190.761C246.32 190.761 257.829 183.787 265.833 191.215C265.833 191.215 267.654 180.3 277.651 178.591C287.648 176.882 287.82 177.859 287.82 177.859Z" fill="#FFC6A6"/>
<path d="M517.89 244.745L519.504 234.876L511.774 241.501L501.812 236.759L505.178 248.023L498.101 258.484L509.919 256.427L514.592 267.028L517.58 254.3L527.852 249.348L517.89 244.745Z" fill="#FFEAB6"/>
<path d="M23.0861 241.78C39.1295 254.752 40.8472 279.617 48.9205 273.654C58.1618 266.679 64.0707 259.391 64.3455 248.929C64.3455 246.034 65.8915 243.21 68.6398 244.256C70.8728 245.244 73.1688 246.083 75.5107 246.767C83.3778 248.859 83.0686 241.605 86.7102 244.988C88.176 246.017 89.5472 247.185 90.7983 248.475C91.932 249.522 91.3824 248.929 93.9933 246.941C96.6042 244.953 100.383 247.673 99.8679 249.208C99.6159 249.581 99.2495 249.856 98.8258 249.989C98.4021 250.123 97.944 250.105 97.5318 249.94C95.5049 249.033 95.1957 250.986 93.1344 252.66C89.699 255.485 86.985 246.278 84.0306 248.406C79.1179 251.893 76.8849 250.707 69.3956 248.127C64.7578 246.557 73.6556 256.984 55.0699 272.991C44.7636 281.954 43.0115 279.129 34.9383 262.738C31.9838 256.74 26.178 246.976 20.9218 243.698C18.7574 242.338 16.2152 241.64 10.9247 245.441C-1.4772 254.369 4.0538 256.636 5.66845 260.506C5.94329 261.204 4.4661 262.459 3.81337 261.553C-0.274788 255.868 0.858856 257.647 0 254.892C1.47723 246.244 15.3907 235.572 23.0861 241.78Z" fill="#000001"/>
<path d="M28.2392 197.318C28.514 195.574 29.0637 193.83 29.4072 192.122C29.4473 191.709 29.6105 191.317 29.8739 191C30.1373 190.683 30.4894 190.454 30.8845 190.343C32.2243 189.925 32.3961 190.692 36.9995 196.237C41.0877 201.154 38.6486 200.317 48.68 197.806C49.2325 197.906 49.7564 198.13 50.2145 198.461C50.6726 198.793 51.0533 199.225 51.3253 199.724C52.0123 200.735 51.9437 201.119 48.8861 206.14C46.2752 210.43 45.4507 209.384 46.6874 211.232C53.1804 221.101 56.1005 224.344 44.1452 219.915C37.2744 217.404 37.5492 217.021 36.5529 218.032C31.9151 222.74 25.5252 230.691 25.1473 224.03C24.9841 221.417 25.3821 218.8 26.3154 216.358C26.7963 213.847 17.3489 212.557 16.7993 208.965C16.7534 208.81 16.7391 208.646 16.7563 208.484C16.7763 208.323 16.825 208.167 16.908 208.026C16.9882 207.885 17.0941 207.763 17.2258 207.667C17.3547 207.57 17.5006 207.502 17.6581 207.466C30.747 202.758 26.6933 207.361 28.2392 197.318ZM28.0674 212.906C31.5028 215.487 28.2735 217.648 28.5484 221.275C31.228 220.124 34.2512 214.301 38.2363 214.301C45.4163 216.742 45.8629 217.788 47.134 217.788C46.7218 215.172 40.6754 209.872 44.1108 207.047C45.4507 206.001 48.783 201.014 47.0997 201.398C40.435 202.967 40.4693 203.281 39.1982 202.374C32.4992 197.701 32.3273 190.517 31.0906 200.352C30.0256 209.209 32.1899 205.582 22.5364 209.139C20.9561 209.802 25.9031 211.302 28.0674 212.906Z" fill="#000001"/>
<path d="M71.1134 140.614C70.8385 154.563 62.2156 161.538 76.6444 159.654C98.7685 156.725 103.2 151.32 101.105 167.64C100.83 169.837 100.727 169.14 111.411 173.534C116.77 175.766 114.331 178.521 111.411 177.37C101.654 173.325 97.36 172.732 97.6692 168.407C98.3563 160.77 99.3182 159.41 96.4668 159.899C77.194 163.037 73.9304 163.769 70.4606 163.386C56.925 161.921 74.1709 140.056 64.9296 135.488C58.4367 132.209 56.2723 137.44 25.113 150.029C23.3953 150.727 21.6776 151.424 21.1279 149.785C20.5782 148.146 22.1585 148.042 23.0174 147.693C53.9362 134.825 50.7757 134.197 57.3717 132C58.8231 131.311 60.4206 130.999 62.0209 131.093C63.6213 131.187 65.1729 131.683 66.5356 132.538C67.8984 133.393 69.0321 134.578 69.8308 135.988C70.6296 137.398 71.0704 138.988 71.1134 140.614Z" fill="#000001"/>
<path d="M57.7839 97.8952C60.3605 102.185 66.3381 111.53 60.8071 110.136C58.7458 109.647 54.7951 108.88 53.9362 108.531C48.68 106.718 48.5083 105.986 47.7868 106.753C40.916 113.727 36.0033 121.365 36.3468 108.601C36.5529 102.603 37.8584 101.627 36.1751 100.964C33.9421 99.9876 29.5103 97.4767 28.2736 97.1629C24.048 95.8726 23.8419 93.0827 25.6627 92.2458C27.4834 91.4088 32.5335 90.4324 35.6598 89.0724C40.6411 86.8056 38.5112 89.9093 41.7061 77.0761C41.7805 76.6943 41.9724 76.3464 42.2558 76.0819C42.5364 75.8175 42.8942 75.6504 43.2749 75.6039C43.6557 75.5574 44.0422 75.6344 44.3771 75.8236C44.7121 76.0128 44.9784 76.3049 45.1416 76.6576C45.5538 77.2156 46.9967 79.308 51.394 85.8641C52.4246 87.4333 62.2843 82.1675 63.8989 84.1204C67.9527 88.898 56.4441 95.6633 57.7839 97.8952ZM53.6614 89.0375C50.226 90.0488 50.8443 89.5606 44.5918 81.0167C42.5993 78.2618 43.8704 90.7114 39.2326 91.1299C37.6523 91.1299 35.3849 93.0827 31.709 93.9197C31.4142 94.0284 31.1364 94.1812 30.8845 94.373C31.0563 94.6171 31.1937 94.931 31.4342 95.0356C40.0915 99.5691 40.6755 99.0111 40.1602 102.01C38.8547 110.275 39.1639 108.985 39.37 110.415C48.5426 101.975 44.901 103.056 46.2409 102.812C48.7831 102.429 53.524 105.323 58.0931 106.3C59.6734 106.3 59.055 105.951 55.1043 99.325C50.8443 92.176 72.0753 83.702 53.6614 89.0375Z" fill="#000001"/>
<path d="M138.997 105.881C139.152 107.243 139.023 108.622 138.619 109.93C138.219 111.238 137.549 112.447 136.661 113.478C135.771 114.509 134.68 115.34 133.455 115.917C132.23 116.495 130.901 116.806 129.55 116.831C124.534 117.284 122.507 112.925 120.618 113.344C116.392 114.181 113.026 109.438 112.888 106.055C112.888 104.277 111.583 103.091 110.896 101.382C110.208 99.6737 111.102 98.5927 110.209 98.3137C108.894 97.396 107.835 96.1504 107.131 94.6971C106.427 93.2438 106.103 91.6312 106.189 90.014C106.189 89.5606 105.021 87.9565 106.189 86.5267C106.43 86.2128 105.261 84.3297 104.987 84.0507C104.712 83.7717 72.0065 86.4221 66.2694 57.1638C57.8869 14.4097 125.53 -2.88719 138.139 38.193C145.009 60.3023 127.145 72.0196 128.21 74.2863C130.993 80.1101 132.779 77.7736 133.81 80.3193C136.558 86.7708 133.81 85.9687 135.287 86.7708C140.234 89.3514 137.486 92.5248 139.203 93.7453C140.543 94.745 141.454 96.2312 141.74 97.8943C142.029 99.5572 141.674 101.269 140.749 102.673C139.41 104.277 138.723 104.626 138.997 105.881ZM129.309 113.239C133.295 112.263 133.776 112.193 136.18 107.241C136.49 106.613 135.734 106.718 135.081 106.997C125.599 110.973 122.954 111.6 129.309 113.239ZM130.89 65.1148C147.414 38.5068 124.019 17.1298 105.914 18.1411C63.3493 17.897 54.1767 74.7397 98.425 79.866C104.197 80.5634 105.296 78.8895 107.082 81.226C110.312 85.8641 108.216 87.9565 110.861 87.259C116.263 85.8586 121.411 83.5985 126.115 80.5634C130.478 77.8782 122.679 77.0761 124.946 72.0893C127.214 67.1025 127.179 70.9037 130.89 65.1148ZM130.718 81.0168C112.51 94.9659 105.296 87.7821 110.793 94.2684C111.823 95.489 115.808 93.4315 117.32 92.8735C124.534 90.1186 136.799 86.1431 130.581 81.0168H130.718ZM134.909 90.014C134.36 89.5955 134.634 88.4098 133.844 88.4796C132.47 88.4796 134.291 89.9442 125.187 93.6407C116.083 97.3372 115.293 97.7557 113.506 97.9301C111.72 98.1044 113.713 101.94 117.148 101.871C122.713 99.9178 139.341 93.7105 134.772 90.014H134.909ZM138.345 96.9885C136.833 94.6172 138.07 97.3372 130.237 100.755C121.752 104.486 118.694 105.881 116.495 105.602C115.911 105.602 115.946 106.021 116.186 106.334C117.595 108.252 119.209 111.077 121.855 109.368C128.554 104.626 141.814 102.673 138.139 96.849L138.345 96.9885Z" fill="#000001"/>
<path d="M71.079 315.118C73.7586 313.374 72.7279 313.165 72.1439 310.584C69.7735 300.122 69.8765 300.855 70.014 300.122C70.0311 299.829 70.1285 299.544 70.2945 299.3C70.4606 299.056 70.6896 298.867 70.9558 298.748C71.2221 298.629 71.5141 298.585 71.8032 298.626C72.0924 298.666 72.3644 298.785 72.5905 298.971C76.026 301.726 79.9423 303.365 83.4465 305.946C85.0611 307.062 90.4891 301.482 91.7259 301.971C93.5466 302.738 94.8864 303.644 94.3024 305.911C91.8633 314.873 92.6191 313.932 93.8902 314.769C97.6348 317.21 100.761 318.256 100.521 321.36C100.521 323.871 93.0313 323.696 90.2143 323.731C87.3972 323.766 87.9812 324.987 87.0193 326.591C82.725 333.775 80.1485 337.924 78.0185 329.764C76.1634 322.999 78.4651 323.731 67.0595 323.348C62.1812 322.964 65.8571 318.5 71.079 315.118ZM73.5181 320.174C77.5376 320.697 79.2209 320.802 79.6675 323.278C80.034 325.295 80.5979 327.268 81.3509 329.171C81.5284 329.038 81.6887 328.887 81.8318 328.718C88.7027 318.465 83.3778 321.116 95.9858 320.07C98.4936 320.07 91.5884 317.698 89.5615 313.095C88.8057 311.386 92.3442 305.004 90.3517 306.12C84.3053 309.364 86.2635 308.178 85.5078 308.631C83.2404 310.061 76.5069 304.446 73.9304 303.679C73.0028 309.433 79.5301 312.921 73.3807 317.315C69.052 320.348 69.6361 319.686 73.5181 320.174Z" fill="#000001"/>
<path d="M109.384 362.3C119.141 357.07 127.008 360.975 139.032 354.07C142.484 351.615 146.684 350.479 150.884 350.862C153.804 351.629 179.157 340.4 184.62 328.195C185.776 325.013 186.38 321.647 186.406 318.256C186.647 315.606 173.798 326.974 161.362 320.767C161.038 320.654 160.755 320.447 160.546 320.174C160.334 319.901 160.205 319.573 160.174 319.23C160.142 318.884 160.205 318.535 160.363 318.227C160.517 317.919 160.758 317.663 161.053 317.489C165.556 315.571 169.352 312.264 171.909 308.038C172.321 307.341 172.802 305.946 171.222 307.027C157.239 316.687 138.894 306.364 144.494 303.54C149.473 302.258 153.893 299.341 157.068 295.24C157.755 294.368 157.068 294.508 156.655 294.752C146.349 299.425 131.852 298.762 123.675 290.776C119.415 286.592 133.088 284.813 136.077 268.493C139.066 252.172 129.206 241.466 127.489 213.603C126.595 199.096 137.245 172.209 143.979 162.165C162.29 134.895 188.639 121.573 221.516 112.088C229.298 110.27 237.411 110.498 245.083 112.751C246.457 113.309 246.148 115.61 244.499 115.366C232.633 112.707 220.228 114.258 209.355 119.76C195.957 126.177 169.47 132.245 149.372 160.945C105.261 223.716 159.679 255.101 132.436 283.767C126.699 289.8 125.874 288.823 128.588 290.462C133.455 293.226 138.986 294.546 144.554 294.275C150.125 294.005 155.507 292.151 160.091 288.928C162.221 287.533 164.419 288.928 163.286 291.544C158.511 303.261 146.899 304.795 149.888 305.841C165.691 311.247 172.08 301.413 174.314 300.157C179.054 297.577 179.913 308.038 166.859 318.117C164.145 320.209 186.956 318.43 186.75 310.863C184.86 247.116 190.907 275.084 172.664 272.503C157.514 270.306 140.028 248.51 144.219 233.132C147.036 222.914 156.346 224.1 158.682 222.391C181.322 205.896 193.346 200.804 199.907 190.343C207.671 177.998 236.632 173.743 246.835 188.285C247.213 188.843 247.522 188.983 248.038 188.285C248.98 187.136 250.148 186.196 251.462 185.522C252.779 184.848 254.216 184.454 255.687 184.366C257.159 184.278 258.63 184.497 260.016 185.009C261.399 185.521 262.667 186.315 263.738 187.344C264.184 187.832 264.39 187.832 264.562 187.134C266.349 179.672 276.346 176.149 284.556 175.696C285.827 175.696 286.068 176.149 282.77 167.466C282.152 165.862 278.579 165.513 273.288 169.349C268.513 172.348 271.845 161.119 279.438 161.294C282.873 161.294 269.406 146.333 267.31 143.857C266.211 142.602 265.902 144.764 263.188 145.008C262.054 145.008 261.333 143.195 262.707 142.114C280.331 128.164 261.642 99.499 245.015 108.74C241.579 110.728 239.896 107.032 243.228 105.253C254.977 99.4292 268.272 107.38 271.983 120.423C272.464 122.027 272.567 120.179 280.571 122.062C284.156 122.921 287.454 124.729 290.125 127.302C292.798 129.874 294.754 133.12 295.79 136.708C296.254 138.355 297.159 139.839 298.401 140.998C306.303 149.646 302.524 160.666 293.523 163.421C292.87 163.63 290.293 163.944 290.087 162.723C289.538 160.701 291.152 160.666 292.423 160.282C304.447 156.621 297.405 140.196 296.065 146.019C294.725 151.843 286.961 159.166 285.278 156.167C283.594 153.168 297.508 149.541 292.355 136.464C288.301 126.002 272.945 122.515 272.979 126.595C273.185 139.498 267.551 140.544 268.925 142.009C275.796 149.297 279.231 151.878 283.457 160.945C283.76 161.727 284.336 162.371 285.072 162.758C290.259 165.199 292.183 173.22 290.19 172.034C285.93 169.14 287.305 169.314 288.37 174.72C288.885 177.265 292.32 174.929 300.978 179.672C316.403 188.32 308.913 208.86 295.79 217.962C290.809 221.449 305.615 226.297 290.912 262.111C290.843 262.226 290.803 262.357 290.794 262.492C290.786 262.626 290.809 262.761 290.863 262.884C290.918 263.008 291.001 263.116 291.104 263.2C291.207 263.284 291.33 263.341 291.462 263.366C296.864 265.835 302.713 267.141 308.639 267.202C310.7 266.993 310.631 269.295 310.013 270.969C304.894 284.918 290.706 286.208 293.385 287.812C304.207 294.368 303.966 293.148 306.852 293.845C307.385 293.897 307.874 294.162 308.215 294.58C308.556 294.999 308.719 295.536 308.673 296.077C308.913 298.902 306.749 300.506 303.726 302.703C290.809 312.049 278.098 306.19 277.445 306.818C278.461 310.334 280.102 313.63 282.289 316.547C287.03 322.65 273.529 323.522 262.295 316.338C262.091 316.286 261.88 316.286 261.676 316.338C262.06 318.872 262.613 321.377 263.325 323.836C264.974 329.381 269.131 327.323 270.712 333.077C272.12 338.413 298.779 345.875 302.249 348.107C303.382 348.805 302.558 349.328 312.933 327.811C327.636 297.437 326.674 297.472 330.453 298.762C339.248 301.622 336.19 303.121 341.687 291.788C344.504 285.964 408.781 302.982 428.5 326.8C432.657 332.031 430.149 333.321 428.741 332.031C427.95 331.333 422.454 320.314 391.535 306.748C376.868 300.297 361.385 295.952 345.535 293.845C343.748 293.636 344.47 293.113 340.931 301.064C340.038 303.086 425.924 329.973 428.053 332.728C430.183 335.483 434.924 334.611 433.481 333.496C433.162 333.275 432.938 332.94 432.855 332.557C432.772 332.173 432.836 331.775 433.035 331.438C439.906 315.292 447.738 314.002 446.777 310.514C446.777 309.852 449.8 302.633 449.25 301.587C448.7 300.541 432.485 315.187 433.035 324.847C433.035 327.288 429.187 328.334 429.806 323.871C431.558 310.793 448.7 293.008 453.235 298.658C454.025 299.599 450.693 306.469 450.624 308.527C452.823 307.864 464.881 298.065 468.695 302.912C469.553 303.958 469.141 304.098 463.782 314.141C462.442 316.687 466.29 313.827 470.103 311.526C481.543 304.551 476.974 311.282 470.893 324.359C403.181 465.908 397.787 474.312 398.474 478.218C398.823 480.304 398.637 482.446 397.933 484.437C397.229 486.427 396.031 488.203 394.455 489.586C393.922 490.144 393.538 490.83 393.34 491.583C393.142 492.332 393.135 493.123 393.321 493.876C393.699 502.489 387.619 501.094 387.687 505.907C387.651 509.176 386.428 512.318 384.252 514.73C379.03 518.6 381.263 511.033 385.901 554.275C387.206 566.376 383.496 576.245 381.469 583.743C377.175 599.366 360.857 607.945 349.52 608.154C348.352 608.154 347.871 607.735 349.52 612.931C354.776 629.635 348.111 633.088 356.013 643.341C357.41 645.401 358.219 647.816 358.349 650.315C358.305 650.649 358.149 650.957 357.908 651.187C357.666 651.417 357.354 651.556 357.024 651.582C356.693 651.605 356.365 651.515 356.093 651.321C355.821 651.129 355.623 650.847 355.532 650.524C353.883 644.282 348.661 641.562 348.455 632.844C348.455 631.309 348.249 621.684 347.905 620.22C344.847 606.794 345.5 608.189 343.748 607.91C332.583 606.096 330.213 599.75 323.926 591.101C319.529 585.033 310.185 544.581 307.264 516.09C307.264 514.974 307.264 513.823 306.268 513.056C305.272 512.288 300.325 481.147 300.428 478.183C300.428 477.032 302.421 476.579 302.833 477.625C303.966 480.38 305.684 497.467 307.848 508.801C308.089 510.196 308.639 509.324 313.792 505.628C320.663 500.676 321.659 501.861 330.213 499.386C343.954 495.305 340.519 497.363 332.858 492.411C322.552 485.646 323.239 479.334 324.407 477.834C325.575 476.335 329.285 477.206 324.407 475.777C278.957 462.42 261.539 457.399 255.321 454.853C251.027 453.179 251.885 452.691 252.916 451.575C252.916 451.575 259.443 438.114 301.012 352.222C301.63 350.897 302.008 351.385 293.763 348.735C293.214 348.735 293.042 348.735 292.939 349.328C290.889 358.447 286.085 366.689 279.197 372.902C260.749 388.629 253.981 383.154 252.573 385.561C240.858 405.822 246.835 358.325 249.137 504.616C249.137 560.239 244.293 556.926 237.766 573.211C237.25 574.432 234.33 587.16 232.303 589.427C212.206 613.594 196.128 613.176 178.47 598.564C163.664 586.323 138.826 546.743 136.902 548.242C134.978 549.742 131.817 549.881 128.794 551.974C124.706 554.798 118.316 557.553 113.61 556.158C109.728 555.008 110.758 557.728 90.5922 497.572C89.5272 494.364 91.5197 523.727 98.2532 550.474C107.529 587.23 122.301 608.224 118.866 622.242C117.492 627.683 119.862 629.635 118.866 638.563C115.43 664.369 117.114 662.73 114.365 662.974C111.617 663.218 114.674 642.922 114.915 641.736C117.011 630.891 114.297 627.787 115.705 621.789C119.347 606.48 99.3182 581.86 90.4204 528.086C86.5041 504.547 89.4928 495.375 81.557 472.603C71.663 444.426 65.2731 424.583 69.9109 394.872C73.3464 373.146 79.9767 378.063 109.384 362.3ZM431.145 337.89C420.427 337.89 437.089 313.827 378.343 433.546C377.312 435.673 381.091 436.859 383.29 437.277C384.595 436.405 381.71 441.253 413.178 376.912C433.207 336.216 433.207 337.855 431.145 337.855V337.89ZM465.087 305.493C460.518 304.935 441.039 318.43 436.333 331.891C444.337 327.849 452.021 323.188 459.316 317.942C459.969 315.118 464.503 307.515 465.087 305.458V305.493ZM400.055 464.652C401.188 462.978 472.199 315.327 472.68 314.106C472.13 313.897 473.985 312.955 443.891 331.194C434.237 337.053 439.837 329.625 423.519 363.242C385.248 442.055 385.97 438.428 387.619 439.021C408.197 446.17 397.959 459.875 400.055 464.617V464.652ZM397.203 469.674C397.162 467.898 397.002 466.126 396.722 464.373C395.864 460.223 400.364 450.424 395.554 447.32C389.33 443.479 382.72 440.323 375.835 437.905C375.011 437.26 374.111 436.719 373.155 436.301C368.483 435.254 372.365 445.472 380.919 450.25C387.79 454.19 388.477 454.574 389.439 455.76C390.401 456.945 389.439 458.445 388.546 458.131C382.912 456.457 373.568 446.239 392.737 468.593C397.272 473.928 396.585 474.277 397.203 469.639V469.674ZM370.888 448.75C370.304 450.215 370.51 449.971 375.869 451.052C375.869 451.052 375.869 451.052 375.869 450.773C372.881 448.925 372.434 446.832 371.85 446.972C371.266 447.111 371.369 447.669 370.888 448.855V448.75ZM342.58 479.927C346.418 481.487 350.4 482.655 354.467 483.414C357.683 483.576 360.784 484.678 363.399 486.587C365.804 488.889 367.59 490.074 366.353 491.365C365.907 491.853 365.494 492.237 364.842 491.539C360.685 487.145 356.39 487.354 347.665 485.576C345.054 485.053 345.603 483.728 341.446 483.309C337.194 482.568 332.985 481.589 328.838 480.38C325.403 480.38 328.048 487.773 346.016 494.817C354.741 498.304 358.795 499.246 361.853 503.884C362.677 505.14 363.364 507.023 361.853 507.72C359.345 508.871 360.857 503.535 351.89 500.222C350.344 499.664 349.966 499.525 349.417 506.5C348.249 521.634 353.745 528.26 354.192 534.398C354.192 535.235 353.23 536.316 352.199 535.026C351.169 533.735 348.386 525.47 348.042 524.564C340.347 501.199 358.349 493.597 334.301 501.094C323.273 504.582 321.899 503.989 317.674 506.918C307.642 513.893 309.188 507.232 314.032 540.291C316.38 554.554 319.672 568.64 323.891 582.453C324.853 585.312 323.41 574.257 323.891 562.54C324.372 546.638 340.519 520.065 342.237 520.693C345.672 521.844 338.801 525.924 330.419 549.498C324.682 566.027 327.705 588.765 331.724 594.832C336.946 602.644 341.481 605.957 354.638 603.934C360.54 603.03 366.047 600.374 370.461 596.294C374.876 592.217 378.001 586.902 379.442 581.023C381.297 573.281 384.321 564.354 382.878 554.973C376.007 504.756 380.129 528.016 371.541 540.012H369.995C370.476 536.211 370.819 536.525 375.423 521.181C376.866 516.299 376.9 515.601 378.412 514.625C384.905 510.51 383.702 509.847 384.973 502.873C385.763 498.653 390.882 499.769 390.229 493.841C390.051 492.17 390.295 490.478 390.938 488.929C391.581 487.381 392.602 486.021 393.905 484.983C396.276 482.716 395.726 476.021 391.604 471.662C384.252 463.92 383.427 460.467 376.282 455.097C375.148 454.225 374.873 454.539 364.292 452.028C361.99 451.47 363.399 450.912 358.555 450.04C345.603 447.669 342.34 443.066 342.477 445.995C342.774 448.355 343.712 450.584 345.186 452.429C346.661 454.277 348.614 455.672 350.825 456.457C353.61 458.105 356.558 459.447 359.62 460.467C380.232 465.21 379.133 479.229 375.766 475.219C371.369 469.988 372.022 468.907 370.373 471.975C369.136 474.277 369.754 473.231 373.808 476.927C377.244 480.066 388.718 489.482 383.152 488.645C382.362 488.645 381.916 488.122 374.633 481.914C369.445 477.451 367.35 473.44 350.585 473.266C340.931 473.266 333.407 468.767 326.846 467.477C324.338 467.058 324.991 475.219 342.58 480.031V479.927ZM366.285 472.185C366.731 471.766 366.525 472.429 368.483 468.384C368.93 467.407 368.174 467.128 363.364 465.629C362.746 465.419 362.196 466.57 360.788 469.744C360.479 470.581 361.063 470.79 366.285 472.289V472.185ZM257.657 452.098C260.405 452.97 322.071 471.522 322.174 471.557C322.895 471.766 323.479 471.836 323.136 471.139C321.659 467.93 323.136 463.222 327.018 464.164C339.866 466.919 337.667 469.918 356.219 469.953C357.627 469.953 357.009 470.371 359.654 465.071C359.929 464.513 359.654 464.164 359.173 464.024C355.484 462.906 351.951 461.313 348.661 459.282C336.499 453.249 336.637 437.591 346.256 442.578C350.721 444.647 355.451 446.068 360.307 446.797C362.466 447.483 364.587 448.288 366.662 449.204C367.624 449.552 369.136 445.716 369.583 444.565C370.029 443.415 365.116 432.046 372.159 432.22C378.171 433.859 370.27 439.753 422.832 335.448C424.206 332.728 425.614 334.193 403.181 326.66C394.077 323.627 340.004 305.458 329.835 301.726C328.873 301.378 329.835 299.913 317.949 324.568C256.077 454.365 255.115 451.401 257.657 452.203V452.098ZM181.287 213.812C181.287 212.417 181.975 212.417 165.141 223.507C162.942 224.936 168.061 224.344 173.283 230.481C174.279 231.667 174.314 231.597 175.756 230.9C182.009 228.075 182.181 221.17 181.287 213.917V213.812ZM241.923 188.32C235.052 182.601 212.722 182.74 204.133 192.609C196.644 201.258 215.195 232.887 233.506 219.88C242.301 213.638 250.477 195.295 241.923 188.32ZM286.308 204.152C286.308 202.409 288.232 180.718 285.45 180.857C280.225 180.669 275.06 182.052 270.609 184.833C263.222 189.75 271.605 223.716 289.606 216.985C291.53 216.218 286.446 211.65 286.308 204.152ZM295.79 182.566C294.004 182.008 292.355 181.59 290.362 181.101C289.744 181.101 289.435 181.101 289.503 181.799C291.29 197.526 286.274 201.99 292.217 214.056C292.904 215.521 293.042 215.591 294.21 214.649C308.604 202.723 312.624 187.902 295.79 182.566ZM289.435 220.926C286.311 221.627 283.056 221.445 280.03 220.4C277.001 219.355 274.313 217.486 272.258 214.998C270.299 212.975 272.257 220.682 262.638 222.461C260.646 222.844 259.89 220.368 261.092 219.775C264.012 218.276 266.761 217.578 268.341 212.592C269.578 208.721 257.691 211.824 258.035 202.757C258.035 200.351 260.337 200.281 260.852 202.444C261.779 206.175 260.852 205.617 266.349 206.663C266.83 206.663 266.967 206.663 266.795 206.07C263.772 196.411 264.734 193.656 261.642 191.319C260.302 190.525 258.776 190.11 257.228 190.118C255.676 190.126 254.156 190.558 252.824 191.367C251.493 192.176 250.402 193.333 249.661 194.717C248.922 196.101 248.562 197.662 248.622 199.235C248.175 210.639 237.285 227.343 224.574 226.854C206.572 226.122 201.385 207.291 198.121 205.233C195.957 203.838 193.689 204.71 184.551 210.395C181.871 212.034 189.67 228.563 176.959 234.213C175.619 234.805 178.539 236.619 175.275 237.7C174.76 237.7 172.905 234.596 169.95 232.085C155.453 219.636 138.31 229.749 152.773 253.253C155.659 257.891 158.545 261.902 171.153 267.202C187.54 274.177 189.498 231.597 189.807 309.05C189.807 331.02 187.471 337.611 157.068 352.571C155.865 353.164 166.412 361.15 166.481 361.185C184.792 374.506 174.039 368.159 194.308 376.424C197.743 377.749 211.931 383.712 212.172 381.515C214.92 358.185 220.417 352.85 224.196 339.18C227.631 327.114 231.479 324.045 231.823 320C232.303 314.071 245.564 302.563 247.179 300.471C247.763 299.774 247.694 299.495 246.835 299.181C208.118 286.382 213.993 276.653 217.909 278.989C225.879 283.697 261.573 296.67 278.201 277.315C296.649 256.461 297.061 218.694 289.503 221.066L289.435 220.926ZM278.613 317.349C276.194 313.005 274.476 308.297 273.529 303.4C273.44 303.046 273.466 302.671 273.597 302.331C273.732 301.991 273.967 301.703 274.27 301.506C274.574 301.308 274.931 301.215 275.292 301.235C275.653 301.256 275.996 301.392 276.277 301.622C288.198 309.782 309.223 296.984 304.241 296.6C301.252 296.356 281.19 286.975 290.877 283.697C302.317 279.826 307.505 270.829 306.131 270.411C300.763 270.05 295.498 268.752 290.568 266.575C286.034 264.378 290.568 275.293 269.44 288.51C270.4 289.596 270.932 291.006 270.932 292.468C270.932 293.929 270.4 295.339 269.44 296.426C263.532 303.749 259.134 306.888 259.443 307.585C259.959 308.701 259.443 310.235 260.783 311.072C265.902 314.594 272.704 318.57 278.613 317.349ZM256.008 380.713C271.57 378.237 286.755 362.614 289.881 349.502C290.465 347.026 290.877 347.27 288.267 346.364C280.606 343.609 276.655 340.644 277.617 342.388C279.541 345.875 278.166 350.374 278.407 351.978C279.3 358.011 275.178 363.103 269.234 366.311C268.444 366.729 268.719 366.66 263.463 367.008C260.027 366.171 259.581 365.823 259.169 367.008C258.416 368.749 257.829 370.56 257.416 372.414C256.042 380.12 254.256 381.132 256.042 380.853L256.008 380.713ZM155.453 565.923C158.548 570.174 161.897 574.228 165.484 578.059C170.328 583.743 174.21 590.09 181.871 596.053C199.804 610.002 213.237 606.515 228.868 587.928C231.233 583.842 232.916 579.39 233.849 574.746C236.082 565.574 240.068 563.028 242.85 552.636C250.133 525.47 242.198 394.209 241.476 393.547C238.522 390.792 243.125 392.152 249.755 383.364C255.149 376.389 252.641 368.926 263.497 351.002C263.712 350.516 264.035 350.089 264.442 349.749C264.846 349.412 265.321 349.171 265.833 349.049C267.929 348.7 266.211 351.455 265.249 353.617C263.806 356.791 266.761 354.768 267.31 354.733C268.719 354.559 269.681 356.198 264.871 359.057C264.287 359.406 262.707 359.441 262.295 359.999C261.891 360.778 261.602 361.612 261.436 362.475C261.436 362.963 261.436 363.103 261.883 363.137C265.661 363.591 267.31 364.393 270.437 361.708C272.223 360.173 275.418 356.686 275.349 354.315C275.178 347.34 276.346 343.853 270.437 340.365C268.135 339.075 267.723 336.878 267.585 334.298C267.345 329.555 262.638 332.135 260.714 325.963C257.966 317.175 245.392 324.917 247.213 320C252.779 305.179 270.231 295.589 267.826 291.334C265.558 287.603 257.313 294.543 255.149 297.053C248.484 304.691 236.254 315.083 235.155 322.336C234.468 326.66 231.479 328.195 228.49 338.378C223.097 356.651 216.982 364.428 216.26 384.619C215.126 416.005 183.211 536.455 183.177 536.56C182.284 538.443 180.154 537.676 180.257 535.688C181.494 512.288 194.342 486.483 191.181 486.308C185.971 485.942 180.755 486.977 176.066 489.307C172.905 491.714 153.392 509.324 151.674 510.963C144.563 517.589 136.627 519.891 131.508 527.842C127.867 533.317 126.905 525.156 155.487 566.062L155.453 565.923ZM258.516 317.838C256.935 309.608 257.107 309.922 256.145 310.863C254.422 312.781 253.019 314.972 251.988 317.349C251.267 318.709 253.466 318.221 253.5 318.082C258.413 318.988 258.997 319.407 258.722 317.977L258.516 317.838ZM111.067 546.673C111.21 546.964 111.408 547.225 111.651 547.44C111.84 547.248 112.012 547.036 112.167 546.813C121.511 532.863 126.218 529.376 128.416 525.401C131.199 520.414 139.238 515.253 144.082 512.254C147.277 510.266 153.495 503.78 158.407 499.839C169.504 490.946 169.779 485.332 185.616 483.135C188.021 482.786 191.697 483.867 192.281 483.379C192.865 482.891 192.281 482.054 189.498 476.614C187.165 471.702 184.368 467.029 181.15 462.664C166.927 442.299 169.813 443.345 164.969 434.941C156.449 420.015 154.216 421.828 140.578 407.042C121.889 386.746 120.961 386.293 119.725 383.085C119.175 381.585 120.48 380.888 121.167 381.62C163.904 427.443 159.816 418.236 168.576 434.836C187.987 471.662 176.65 446.03 193.208 476.335C194.96 479.508 213.821 392.012 212 386.153C211.485 384.48 209.561 387.165 194.823 380.818C172.527 371.158 184.276 379.005 165.622 365.055C156.174 358.081 151.88 350.304 142.295 356.128C129.928 363.661 125.462 360.557 113.85 364.044C107.701 365.892 108.319 367.95 82.5189 378.516C74.961 381.62 73.896 388.385 73.0028 395.046C68.5711 430.163 71.663 434.417 111.273 546.813L111.067 546.673Z" fill="#000001"/>
<path d="M119.793 49.98C119.175 49.98 118.728 49.98 118.934 51.061C120.24 56.7453 112.648 61.5229 114.159 64.2778C116.215 68.2647 117.66 72.5444 118.453 76.9715C118.625 78.0177 117.698 77.4598 117.32 77.7736C115.877 79.029 115.19 72.4729 111.48 65.3938C108.972 60.6859 116.255 55.9781 116.083 51.9329C115.877 46.7368 113.884 49.701 109.212 51.2005C106.601 52.0375 104.609 51.2005 103.887 52.9442C103.421 53.8759 102.642 54.6067 101.689 55.0034C100.735 55.4004 99.6761 55.4367 98.6998 55.1063C95.5392 54.2693 96.3637 56.7453 92.6535 57.5474C88.9432 58.3494 88.9776 58.1751 88.9776 59.57C88.9776 60.0582 88.9776 60.5813 89.5616 60.7208C91.328 61.3325 93.0113 62.1642 94.5773 63.1968C96.5355 64.1383 95.6767 62.5342 98.9403 64.6963C103.853 67.9395 103.028 65.882 105.09 67.521C108.525 70.3457 116.049 78.4013 113.644 80.3193C111.239 82.2373 110.964 77.2156 106.086 72.6822C101.208 68.1487 101.964 70.3457 100.314 69.1949C96.8791 67.0328 96.3981 66.7189 95.8828 66.6841C92.9283 66.4399 90.6609 63.9291 88.4279 63.7199C85.4047 63.4409 86.1949 60.7557 85.5421 60.9649C84.8894 61.1741 84.8894 61.8367 84.6489 62.4296C82.4846 67.9046 75.7512 55.0017 80.9386 53.2929C86.1261 51.5841 87.5004 55.2806 88.3249 55.0714C96.295 53.258 91.348 54.3042 95.9515 51.898C98.0814 50.7821 99.7648 53.3975 101.483 50.9215C104.197 46.946 102.238 50.9215 114.984 45.7604C115.877 45.4116 116.358 44.1562 117.045 43.3193C117.732 42.4823 118.797 42.4823 120.068 42.1336C123.675 41.2618 125.805 48.8292 119.793 49.98ZM82.4159 56.2222C81.3509 56.5361 82.1411 59.0818 83.103 58.5587C86.7446 56.6756 83.687 55.8037 82.4159 56.2222ZM120.206 44.8537C119.793 44.8537 119.072 46.0742 118.694 46.6671C120.583 48.2363 121.477 45.3419 120.24 44.8537H120.206Z" fill="#000001"/>
<path d="M95.8141 425.664C107.22 431.593 122.439 442.369 157.652 444.566C158.992 444.566 160.331 445.193 160.16 446.588C159.988 447.983 130.787 449.552 94.8865 428.524C90.1456 425.699 92.6878 424.06 95.8141 425.664Z" fill="#000001"/>
<path d="M152.292 435.185C133.913 429.361 110.277 410.774 111.789 408.751C114.778 404.88 122.336 420.434 153.289 432.709C154.388 433.127 153.907 434.836 152.292 435.185Z" fill="#000001"/>
<path d="M165.244 197.841C164.66 198.468 151.09 210.953 149.613 207.082C149.063 205.617 149.956 205.199 154.697 201.851C179.398 184.833 189.876 150.379 201.625 142.986C202.415 142.498 203.068 144.416 202.759 145.008C200.059 148.029 197.611 151.272 195.441 154.703C181.047 178.068 184.62 176.533 165.244 197.841Z" fill="#000001"/>
<path d="M163.492 374.715C171.29 379.423 171.462 381.69 175.516 383.468C178.196 384.654 199.564 393.128 197.743 396.302C196.747 397.941 196.919 396.616 173.695 386.119C170.391 384.032 167.245 381.702 164.282 379.144C152.533 370.531 150.884 370.67 151.468 368.682C152.499 365.509 158.888 371.96 163.492 374.715Z" fill="#000001"/>
<path d="M172.424 259.949C165.347 259.949 162.977 251.719 165.244 247.29C165.533 246.807 165.705 246.259 165.742 245.694C165.776 245.129 165.676 244.563 165.45 244.047C164.007 240.559 156.827 233.968 156.14 243.314C156.14 244.43 154.354 244.779 153.598 243.314C153.12 242.34 152.922 241.25 153.025 240.168C153.128 239.085 153.529 238.054 154.179 237.19C154.829 236.326 155.705 235.665 156.707 235.28C157.709 234.896 158.797 234.804 159.85 235.014C165.416 236.235 171.496 243.419 168.542 249.243C167.546 251.23 168.542 255.345 170.603 255.834C174.691 256.74 174.966 254.787 175.962 256.67C176.959 258.553 174.76 259.949 172.424 259.949Z" fill="#000001"/>
<path d="M196.163 101.138C195.957 98.7667 196.644 92.106 190.838 90.5018C186.166 89.1767 183.589 89.63 181.494 85.9335C179.707 82.7949 181.494 81.8185 179.81 78.5753C174.176 68.1135 177.062 69.7176 169.504 66.3699C149.304 57.268 166.068 45.6554 167.855 51.514C168.782 54.3387 166.996 55.9429 165.794 53.2228C165.175 51.793 158.614 56.9542 166.343 61.2435C173.489 65.1842 176.959 65.1493 178.883 70.1361C180.806 75.1229 183.898 78.2964 183.795 82.8996C183.795 86.1776 186.784 86.073 190.254 86.7704C192.999 87.5336 195.404 89.2325 197.062 91.582C198.719 93.9316 199.53 96.7885 199.358 99.6734C199.289 105.95 196.609 106.578 196.163 101.138Z" fill="#000001"/>
<path d="M239.449 129.28C241.671 129.228 243.881 129.655 245.928 130.532C247.978 131.41 249.821 132.719 251.336 134.372C253.363 136.569 251.336 138.557 249.274 136.778C247.737 135.168 245.83 133.974 243.723 133.304C241.619 132.633 239.38 132.509 237.216 132.942C211.519 136.429 209.733 168.617 183.452 200.421C180.325 204.152 177.886 202.792 179.089 200.595C183.938 194.516 188.425 188.146 192.521 181.52C214.199 142.044 216.294 132.768 239.449 129.28Z" fill="#000001"/>
<path d="M237.388 161.642C238.59 162.933 239.484 165.723 237.697 165.13C235.224 164.118 232.888 161.154 226.669 161.224C218.046 161.224 214.92 174.057 214.336 167.536C215.058 157.179 227.563 150.936 237.388 161.642Z" fill="#000001"/>
<path d="M231.445 202.688C229.59 202.688 229.486 201.432 229.005 199.514C229.555 195.818 232.441 196.027 233.128 198.154C233.815 200.281 233.472 202.583 231.445 202.688Z" fill="#000001"/>
<path d="M259.272 133.919C259.272 136.255 259.272 140.509 256.901 140.126C253.775 139.638 258.928 133.709 254.153 126.177C253.623 125.133 252.867 124.222 251.948 123.51C251.027 122.798 249.962 122.304 248.828 122.062C248.43 121.897 248.084 121.631 247.817 121.288C247.554 120.946 247.379 120.54 247.316 120.109C247.488 115.506 259.409 120.562 259.272 133.919Z" fill="#000001"/>
<path d="M282.048 4.74962C281.018 5.0286 279.541 3.52907 277.892 3.25009C275.418 2.83162 268.856 2.62238 267.585 5.16809C263.497 13.154 277.342 23.1276 279.025 34.1474C280.09 41.122 272.876 42.9353 261.848 46.039C252.332 48.6894 270.059 60.9995 264.631 68.4274C263.738 69.6131 261.195 71.9147 259.134 74.1116C253.947 79.6216 260.68 86.9797 257.279 87.712C253.878 88.4444 251.37 76.9363 257.279 71.1126C263.841 64.417 264.528 66.7535 257.554 54.3736C255.733 51.1305 254.737 45.4462 258.722 43.7026C262.707 41.9589 262.157 43.2492 271.708 39.4829C286.274 33.7987 258.584 16.9202 265.146 3.77318C266.658 0.00691865 269.853 0.425393 274.216 0.00691908C283.01 -0.202318 283.32 4.40089 282.048 4.74962Z" fill="#000001"/>
<path d="M262.02 247.185C262.02 245.93 262.776 242.268 265.661 242.198C269.097 242.198 269.612 247.394 267.139 249.94C265.661 251.509 262.844 251.858 262.02 247.185Z" fill="#000001"/>
<path d="M274.559 196.794C274.834 193.307 277.548 193.307 277.995 194.632C280.159 198.572 275.659 202.269 274.559 196.794Z" fill="#000001"/>
<path d="M333.58 318.187C411.873 344.655 409.159 342.598 406.926 346.991C391.02 380.574 391.57 379.005 388.718 379.319C380.886 377.017 316.987 355.5 316.574 355.291C312.177 353.757 314.719 351.316 326.468 327.114C330.591 318.326 330.454 317.14 333.58 318.187ZM318.739 352.536L388.547 375.936C389.371 375.936 388.237 377.924 403.766 346.747C404.556 345.178 408.713 347.305 359.689 330.636C351.169 327.742 343.062 324.847 333.958 321.813C331.587 321.046 333.477 318.675 323.651 339.25C317.433 352.641 317.158 352.013 318.704 352.536H318.739Z" fill="#000001"/>
<path d="M337.564 349.99C338.011 349.99 382.5 363.94 385.66 365.474C387.206 366.137 388.615 368.229 386.725 368.717C386.107 368.717 335.847 353.826 333.201 350.723C334.576 348.142 335.744 349.921 337.564 349.99Z" fill="#000001"/>
<path d="M379.03 346.956C373.361 345.945 373.567 344.097 370.235 344.271C363.879 343.399 361.475 340.784 355.703 339.319C349.932 337.855 348.283 338.273 343.782 335.832C342.683 335.274 341.927 333.321 344.263 332.833C344.675 332.833 347.321 333.635 351.134 334.612C364.704 338.099 366.593 340.679 370.098 340.61C374.151 340.61 373.98 342.284 380.026 343.644C393.768 346.747 391.535 348.072 395.211 348.247C395.657 348.247 396.379 349.328 396.516 349.746C396.825 351.002 393.081 351.734 391.294 350.723C387.472 348.703 383.313 347.427 379.03 346.956Z" fill="#000001"/>
<path d="M367.418 172.941C362.402 166.176 365.357 167.152 348.833 172.941C348.489 173.103 348.103 173.149 347.731 173.074C347.36 172.999 347.022 172.805 346.765 172.522C346.509 172.238 346.348 171.88 346.306 171.497C346.264 171.115 346.343 170.729 346.531 170.395C348.339 166.412 350.429 162.566 352.783 158.887C354.192 157.074 346.943 149.228 346.806 144.938C346.6 138.626 359.345 149.123 362.128 145.427C364.361 142.462 367.762 139.184 369.995 135.592C370.991 133.953 372.915 133.361 373.224 135.313C375.869 153.133 371.609 148.739 381.4 152.575C386.863 154.738 387.034 154.703 387.344 156.481C388.306 162.096 375.526 162.898 375.491 165.444C375.285 176.917 375.732 176.219 375.491 178.625C375.443 178.948 375.31 179.252 375.106 179.504C374.901 179.756 374.634 179.948 374.331 180.058C374.029 180.169 373.702 180.195 373.386 180.133C373.071 180.071 372.777 179.924 372.537 179.706C370.647 177.601 368.935 175.338 367.418 172.941ZM375.148 161.259C386.897 156.795 386.897 157.772 373.98 153.029C371.163 151.983 372.503 145.74 370.544 140.37C358.28 152.017 368.621 151.041 350.688 146.856C353.333 154.04 358.83 156.098 355.669 159.829C353.902 162.339 352.372 165.013 351.1 167.815C350.241 169.28 354.535 167.815 360.616 165.513C364.051 164.223 363.261 161.608 371.369 173.116C374.53 177.614 369.96 163.212 375.148 161.259Z" fill="#000001"/>
<path d="M433.55 111.983C431.901 110.17 431.866 110.17 430.355 111.983C428.816 113.841 427.649 115.985 426.919 118.295C426.301 120.527 428.637 119.342 429.358 119.377C432.794 119.377 431.385 121.992 430.526 122.41C422.075 126.56 418.434 116.691 418.193 119.934C417.815 124.328 417.85 129.106 417.644 134.86C417.644 137.476 415.548 139.463 413.796 137.859C412.044 136.255 407.372 131.443 400.741 124.886C389.885 114.111 389.439 114.425 389.576 112.297C391.156 88.9326 393.012 94.8609 385.454 86.5263C376.315 76.5178 357.97 56.1521 352.027 43.9466C342.854 25.4989 339.213 6.07479 347.767 5.09836C359.207 3.80806 379.098 13.956 388.992 22.7788C396.088 28.9467 402.714 35.6498 408.815 42.8307C429.427 65.8119 423.587 62.0805 432.862 63.3359C451.517 65.777 444.99 61.6969 468.179 87.3633C471.03 90.5367 469.003 92.6988 467.148 92.6988C461.58 92.1083 455.977 91.922 450.383 92.1409C451.354 93.1606 452.067 94.4038 452.462 95.7639C452.857 97.1242 452.922 98.5612 452.651 99.9524C451.934 102.716 450.498 105.234 448.494 107.241C447.36 107.973 446.535 106.683 446.982 105.323C447.188 104.625 450.727 99.3247 449.696 98.0344C448.665 96.7441 446.055 98.0344 438.462 103.893C436.367 105.497 440.386 107.032 443.787 112.123C445.745 115.122 442.276 116.656 441.348 117.354C440.42 118.051 439.562 118.191 438.634 117.528L433.55 111.983ZM450.383 135.453C474.431 173.813 479.79 213.986 461.239 263.924C460.896 264.796 459.728 268.737 458.559 267.935C454.849 265.459 474.465 234.073 468.007 187.902C462.064 145.427 434.443 120.911 433.653 117.214C433.24 115.401 433.893 114.634 436.023 115.471C441.286 121.765 446.086 128.444 450.383 135.453ZM439.665 99.0108C446.364 93.8845 449.009 96.1512 447.738 93.9542C447.12 92.8732 446.501 91.6526 445.505 92.106C440.73 92.5245 439.081 94.3727 433.309 98.3482C432.313 99.0457 433.103 99.8129 434.683 101.382C435.611 102.428 435.405 102.219 439.527 99.0108H439.665ZM440.077 114.773C442.619 112.995 443.753 116.622 413.143 80.4236C411.632 78.68 409.708 76.9363 408.78 79.2728C408.677 79.3774 439.905 114.704 440.077 114.773ZM421.697 118.261C424.721 120.876 422.007 118.261 427.228 111.286C429.633 108.078 429.942 108.078 429.496 107.555C426.713 104.242 427.297 102.672 420.632 115.889C419.945 116.831 420.632 117.354 421.594 118.191L421.697 118.261ZM413.727 134.023C414.827 135.174 414.311 135.139 415.514 117.668C415.514 116.029 401.772 105.114 397.34 99.7431C392.908 94.3727 393.905 95.2794 392.428 111.321C391.706 112.751 391.981 112.193 413.624 133.953L413.727 134.023ZM381.675 21.9768C374.739 16.7801 366.944 12.8828 358.657 10.4688C345.637 6.98149 347.08 10.4688 346.462 15.6648C346.795 20.5996 347.861 25.455 349.622 30.0673C357.901 50.5725 357.18 48.7242 359.447 44.6092C369.96 25.6035 384.492 23.7553 381.675 21.9768ZM386.106 25.464C381.709 21.2444 356.733 47.2944 360.341 52.1766C370.887 66.5442 407.578 108.392 417.266 114.425C419.283 110.439 421.579 106.604 424.137 102.951C424.995 101.661 425.098 102.533 412.971 88.8279C406.101 80.8769 404.142 79.9702 406.547 76.9712C407.578 75.6809 410.326 73.7978 412.078 75.6112C413.83 77.4245 414.792 78.6451 423.415 88.6884C431.351 97.8949 429.702 96.8487 432.519 94.6866C443.856 86.0032 445.883 92.8383 438.634 83.4575C422.377 63.0052 404.868 43.6124 386.209 25.3943L386.106 25.464ZM448.253 69.7525C446.845 68.0786 446.845 68.3576 429.977 66.2652C427.331 65.9165 434.821 72.089 440.283 80.4585C441.52 82.2719 446.192 88.6187 448.013 88.8628C448.013 88.8628 465.19 89.3859 465.19 89.2813C465.911 88.6536 456.739 79.761 448.253 69.7525Z" fill="#000001"/>
<path d="M362.677 351.455C355.806 349.432 355.36 348.805 352.921 348.77C352.346 348.808 351.776 348.636 351.316 348.285C350.855 347.933 350.535 347.424 350.413 346.852C350.413 342.842 364.155 349.223 370.648 350.339C376.556 351.35 389.989 355.326 391.947 357.488C393.321 359.023 392.566 359.894 390.71 359.999C383.84 357.628 384.767 357.314 382.294 356.512C367.934 352.536 377.828 355.884 362.677 351.455Z" fill="#000001"/>
<path d="M374.805 240.629C376.935 240.908 384.012 242.478 385.111 242.791C387.138 243.315 393.493 229.051 395.108 234.352C399.059 247.394 393.631 245.267 403.697 246.139C407.819 246.488 407.888 247.604 407.785 249.627C407.785 250.987 407.304 251.265 404.83 252.8C393.665 259.774 398.543 254.718 399.471 267.621C399.471 269.399 398.578 270.236 397.169 269.783C393.974 268.702 388.924 259.321 386.588 260.541C383.208 261.728 379.768 262.729 376.282 263.54C374.324 264.098 373.499 263.052 373.74 261.518C374.118 259.077 376.763 258.031 379.408 253.079C379.992 251.928 379.855 252.451 373.293 244.465C372.159 243 371.644 240.245 374.805 240.629ZM382.363 254.578C379.168 260.297 377.862 259.774 384.08 258.379C391.295 256.74 388.031 256.252 395.52 263.959C396.413 264.901 395.349 261.064 395.074 257.438C394.764 253.113 403.01 251.719 404.212 249.452C403.628 249.452 404.659 249.452 399.368 248.929C392.841 248.371 395.933 244.639 393.081 238.711C390.745 240.734 388.34 246.802 386.21 246.348C368.793 242.233 386.142 247.813 382.363 254.578Z" fill="#000001"/>
<path d="M387.652 65.6372C371.059 64.7654 372.227 40.1103 388.168 40.4939C405.723 42.656 402.528 66.2649 387.652 65.6372ZM389.473 43.9115C388.135 43.6706 386.762 43.7333 385.451 44.0948C384.14 44.4564 382.924 45.1079 381.89 46.0027C380.856 46.8977 380.03 48.0137 379.472 49.2708C378.913 50.5277 378.635 51.8947 378.659 53.2737C378.682 54.6526 379.006 56.0091 379.606 57.246C380.207 58.4831 381.07 59.5696 382.133 60.4281C383.196 61.2866 384.434 61.8954 385.756 62.2113C387.079 62.5272 388.453 62.542 389.782 62.2546C391.871 61.803 393.74 60.6283 395.07 58.9315C396.399 57.2349 397.107 55.1216 397.07 52.954C397.034 50.7861 396.256 48.6986 394.87 47.0491C393.484 45.3997 391.576 44.2904 389.473 43.9115Z" fill="#000001"/>
<path d="M425.545 297.612C427.813 298.03 428.259 301.099 425.339 301.099C410.429 300.855 409.674 273.445 424.034 273.654C425.595 273.596 427.154 273.82 428.637 274.316C428.843 272.329 425.202 263.646 429.049 256.88C433.309 249.418 445.643 249.906 449.662 260.193C451.205 264.643 451.866 269.359 451.606 274.069C451.347 278.78 450.172 283.389 448.15 287.638C447.36 289.207 445.368 288.3 445.849 286.208C456.155 256.462 435.989 248.79 431.454 259.531C427.675 268.493 435.852 278.397 432.313 280.454C429.805 281.884 428.534 276.269 423.69 276.967C417.403 278.083 416.27 285.022 417.3 289.661C419.052 297.298 423.793 297.263 425.545 297.612Z" fill="#000001"/>
<path d="M461.102 271.108C480.306 239.095 485.15 183.124 461.411 137.51C455.951 127.792 449.832 118.47 443.1 109.612C439.905 106.438 443.1 104.765 444.852 106.787C464.744 130.675 480.34 165.269 480.34 196.445C480.34 242.129 469.072 264.377 463.438 271.212C460.69 274.421 459.281 274.142 461.102 271.108Z" fill="#000001"/>
<path d="M477.043 298.658C494.22 304.133 492.262 283.906 475.256 290.916C475.047 291.044 474.812 291.125 474.568 291.151C474.324 291.18 474.078 291.151 473.845 291.073C473.613 290.994 473.4 290.864 473.223 290.692C473.045 290.521 472.907 290.311 472.817 290.079C471.89 287.952 473.711 287.429 475.463 286.836C484.841 283.662 474.398 265.493 461.412 287.673C460.347 289.486 458.526 288.231 458.938 286.836C461.687 276.897 472.68 269.399 479.551 275.502C481.012 276.755 481.989 278.492 482.31 280.408C482.63 282.323 482.274 284.29 481.303 285.964C489.41 286.173 491.609 289.451 492.537 293.741C494.392 303.854 478.348 305.039 474.26 301.064C472.68 299.46 473.985 297.681 477.043 298.658Z" fill="#000001"/>
<path d="M500.369 236.689C500.884 235.643 501.228 233.62 503.598 235.085C513.252 241.048 511.294 240.106 513.905 237.282C517.821 233.132 518.817 231.528 520.776 232.016C521.634 232.26 521.428 234.038 521.222 234.98C518.852 246.139 518.096 243.175 522.562 244.849C523.593 245.267 524.486 245.756 528.677 247.534C529.072 247.718 529.406 248.013 529.641 248.384C529.875 248.754 530 249.186 530 249.627C530 250.067 529.875 250.499 529.641 250.87C529.406 251.241 529.072 251.536 528.677 251.719C515.897 256.566 518.783 255.66 517.924 261.135C516.928 267.412 516.756 268.981 515.451 269.12C514.918 269.193 514.377 269.086 513.912 268.815C513.446 268.544 513.081 268.124 512.874 267.621C507.515 254.404 511.019 257.891 506.003 258.798C497.38 260.367 496.934 261.239 495.697 259.705C494.46 258.17 496.968 255.904 498.205 254.474C506.312 244.988 503.908 251.266 500.369 236.689ZM502.911 255.764C504.747 255.625 506.53 255.077 508.133 254.16C512.462 252.73 512.462 261.518 514.18 263.018C514.596 261.175 514.826 259.294 514.867 257.403C514.867 253.567 516.928 253.288 523.18 249.801C524.555 248.999 521.428 248.685 517.89 246.872C514.351 245.058 517.168 241.571 517.237 239.13C517.237 237.665 514.832 241.187 513.321 243.105C510.985 246.07 510.71 241.362 504.148 239.374C505.247 245.128 509.061 246.627 505.385 250.603C500.026 256.427 501.469 255.904 502.911 255.764Z" fill="#000001"/>
</svg>
