<svg width="295" height="74" viewBox="0 0 295 74" fill="none" xmlns="http://www.w3.org/2000/svg">
<path d="M145.962 46.8274H149.785C151.736 46.8274 153.112 47.8304 153.112 49.603C153.112 50.6058 152.63 51.4681 151.81 51.9079V51.9387C152.99 52.2862 153.55 53.3814 153.55 54.4723C153.55 56.6277 151.828 57.5954 149.847 57.5954H145.962V46.8274ZM149.798 51.2261C150.645 51.2261 151.127 50.6192 151.127 49.845C151.127 49.0708 150.658 48.5121 149.767 48.5121H147.909V51.2261H149.798ZM149.996 55.915C150.994 55.915 151.552 55.2641 151.552 54.3535C151.552 53.4606 150.978 52.8053 149.996 52.8053H147.909V55.915H149.996ZM158.899 49.6822C159.942 49.6822 161.122 50.0297 161.862 50.8346L160.999 52.1542C160.517 51.6704 159.759 51.3184 159.004 51.3184C157.583 51.3184 156.658 52.3962 156.658 53.7158C156.658 55.0222 157.579 56.1438 159.061 56.1438C159.877 56.1438 160.753 55.7172 161.328 55.1585L162.069 56.5221C161.341 57.2962 160.135 57.7801 158.894 57.7801C156.338 57.7801 154.708 55.9766 154.708 53.7289C154.713 51.5296 156.347 49.6822 158.899 49.6822ZM166.702 49.6822C168.907 49.6822 170.118 51.3053 170.118 53.3506C170.118 53.5926 170.087 53.8521 170.056 54.094H164.752C164.874 55.4444 165.899 56.1438 167.066 56.1438C167.851 56.1438 168.653 55.7963 169.271 55.2949L170.025 56.6761C169.24 57.3754 168.031 57.7844 166.926 57.7844C164.37 57.7844 162.769 55.9326 162.769 53.7334C162.774 51.3492 164.392 49.6822 166.702 49.6822ZM164.496 46.8274H165.979V48.587H164.496V46.8274ZM168.202 52.7745C168.188 51.7407 167.522 51.1382 166.659 51.1382C165.676 51.1382 164.979 51.7891 164.799 52.7745H168.202ZM167.277 46.8274H168.744V48.587H167.277V46.8274ZM175.504 49.8626H182.536V57.5997H180.617V51.5032H177.425V57.5997H175.504V49.8626ZM184.579 49.8626H186.332V50.4387C186.332 50.7291 186.301 50.9841 186.301 50.9841H186.332C186.832 50.1484 187.77 49.6777 188.813 49.6777C190.9 49.6777 192.229 51.3316 192.229 53.7289C192.229 56.1878 190.734 57.7801 188.704 57.7801C187.828 57.7801 187.026 57.3842 186.481 56.6892H186.45C186.45 56.6892 186.495 56.962 186.495 57.3579V60.6348H184.574V49.8626H184.579ZM188.358 56.157C189.415 56.157 190.291 55.2905 190.291 53.7597C190.291 52.2905 189.507 51.3316 188.384 51.3316C187.372 51.3316 186.434 52.0619 186.434 53.7729C186.439 54.9738 187.104 56.157 188.358 56.157ZM197.582 49.6822C199.941 49.6822 201.829 51.3668 201.829 53.7334C201.829 56.1131 199.941 57.7844 197.594 57.7844C195.249 57.7844 193.359 56.1174 193.359 53.7334C193.364 51.3624 195.253 49.6822 197.582 49.6822ZM197.594 56.1438C198.848 56.1438 199.892 55.1716 199.892 53.7334C199.892 52.3081 198.848 51.3229 197.594 51.3229C196.34 51.3229 195.311 52.3081 195.311 53.7334C195.315 55.1716 196.34 56.1438 197.594 56.1438ZM203.373 49.8626H205.201V55.959H207.603V49.8626H209.431V55.959H211.834V49.8626H213.661V55.959H214.748V59.4164H213.025V57.5954H203.364V49.8626H203.373ZM219.514 49.6822C221.719 49.6822 222.929 51.3053 222.929 53.3506C222.929 53.5926 222.898 53.8521 222.867 54.094H217.563C217.685 55.4444 218.712 56.1438 219.877 56.1438C220.661 56.1438 221.464 55.7963 222.082 55.2949L222.837 56.6761C222.052 57.3754 220.841 57.7844 219.737 57.7844C217.182 57.7844 215.582 55.9326 215.582 53.7334C215.582 51.3492 217.2 49.6822 219.514 49.6822ZM221.008 52.7745C220.995 51.7407 220.33 51.1382 219.465 51.1382C218.483 51.1382 217.787 51.7891 217.607 52.7745H221.008Z" fill="#2D3540"/>
<path d="M178.963 15.9445V38.171C178.963 38.5052 178.696 38.7735 178.363 38.7735H173.839C173.506 38.7735 173.239 38.5052 173.239 38.171V15.9445C173.239 15.6103 173.506 15.342 173.839 15.342H178.363C178.696 15.342 178.963 15.6103 178.963 15.9445ZM214.222 15.342H209.159C208.895 15.342 208.659 15.5136 208.584 15.7643L204.578 28.8987L200.177 15.7511C200.093 15.5047 199.865 15.342 199.607 15.342H196.073C195.815 15.342 195.582 15.5091 195.504 15.7511L191.103 28.8987L187.095 15.7643C187.017 15.5136 186.784 15.342 186.521 15.342H181.457C181.264 15.342 181.081 15.4344 180.971 15.5927C180.857 15.7467 180.826 15.949 180.888 16.1337L188.322 38.3689C188.406 38.6152 188.633 38.778 188.893 38.778H192.912C193.172 38.778 193.403 38.6109 193.483 38.3689L197.845 25.3797L202.206 38.3689C202.289 38.6152 202.518 38.778 202.776 38.778H206.796C207.055 38.778 207.288 38.6109 207.366 38.3689L214.801 16.1337C214.862 15.9534 214.832 15.7511 214.717 15.5927C214.599 15.4344 214.415 15.342 214.222 15.342ZM221.837 15.342H217.313C216.98 15.342 216.713 15.6103 216.713 15.9445V38.171C216.713 38.5052 216.98 38.7735 217.313 38.7735H221.837C222.17 38.7735 222.437 38.5052 222.437 38.171V15.9445C222.437 15.6103 222.17 15.342 221.837 15.342ZM170.616 38.0127C170.88 38.3073 170.665 38.778 170.267 38.778H164.721C164.496 38.778 164.283 38.6769 164.138 38.5009L163.2 37.366C161.284 38.6109 159.004 39.3367 156.558 39.3367C149.807 39.3367 144.318 33.8251 144.318 27.0556C144.318 20.2861 149.811 14.7745 156.558 14.7745C163.309 14.7745 168.798 20.2861 168.798 27.0556C168.798 29.4969 168.082 31.7709 166.851 33.6844L170.616 38.0127ZM159.626 33.0597L157.198 30.1302C156.943 29.8223 157.163 29.3561 157.558 29.3561H162.638C162.88 28.6346 163.016 27.8606 163.016 27.0599C163.016 23.3872 160.293 20.2245 156.554 20.2245C152.814 20.2245 150.092 23.3914 150.092 27.0599C150.092 30.7284 152.814 33.8515 156.554 33.8515C157.694 33.8515 158.728 33.5611 159.626 33.0597ZM126.13 51.7232C126.327 53.0517 125.911 53.6015 125.49 53.6015C125.034 53.6015 124.455 53.0649 123.78 52.0003C123.109 50.9535 122.868 49.7526 123.197 49.1412C123.416 48.7409 123.877 48.5651 124.455 48.785C125.573 49.2117 126.011 50.9314 126.13 51.7232ZM119.936 54.6175C121.277 55.7568 121.685 57.1116 120.975 58.0661C120.58 58.5895 119.94 58.8798 119.173 58.8798C118.419 58.8798 117.652 58.5983 117.121 58.1321C115.903 57.0632 115.543 55.3257 116.341 54.3405C116.652 53.9533 117.156 53.7423 117.766 53.7423C118.502 53.7423 119.274 54.0545 119.936 54.6175ZM117.691 65.6098C123.473 65.6098 129.746 67.598 136.69 73.7738C137.387 74.3939 138.313 73.6241 137.707 72.8544C130.882 64.2066 124.569 62.5616 118.274 61.1716C110.576 59.4693 106.613 55.1234 103.852 50.3464C103.304 49.3964 103.058 49.5635 103.005 50.7862C102.944 52.2775 103.049 54.2568 103.382 56.1967C103.071 56.2099 102.76 56.2054 102.444 56.2054C91.4277 56.2054 82.4981 47.2453 82.4981 36.1915C82.4981 25.1377 91.4277 16.1778 102.444 16.1778C113.461 16.1778 122.391 25.1377 122.391 36.1915C122.391 36.9789 122.351 37.7575 122.263 38.5185C120.808 38.2545 117.941 38.2237 115.929 38.3997C115.17 38.4657 115.28 38.8176 115.85 38.9232C122.443 40.1196 126.972 44.2192 128.011 51.6572C128.033 51.8288 128.256 51.8816 128.344 51.732C131.057 47.1882 132.614 41.8746 132.614 36.1915C132.622 19.4767 119.111 5.92004 102.449 5.92004C85.7859 5.92004 72.275 19.4767 72.275 36.196C72.275 52.9152 85.7859 66.4719 102.449 66.4719C106.867 66.4719 111.256 65.6098 117.691 65.6098Z" fill="#FF8C00"/>
</svg>
