<svg width="255" height="64" viewBox="0 0 255 64" fill="none" xmlns="http://www.w3.org/2000/svg">
<path d="M115.388 24.9606L120.233 21.3766H104.168V42.6246H120.233V39.0406H108.758V33.6646H118.448V30.0806H108.758V24.9606H115.388ZM95.37 24.9606L100.215 21.3766H81.855V42.6246H91.4175C96.7725 42.6246 99.8325 40.1926 99.8325 35.9686C99.8325 31.8726 97.0275 29.6966 91.9275 29.6966H86.3175V24.9606H95.37ZM91.29 33.1526C94.2225 33.1526 95.4975 34.1766 95.4975 36.0966C95.4975 38.0166 94.095 39.0406 91.29 39.0406H86.445V33.1526H91.29ZM133.11 21.3766H124.44V42.6246H129.03V36.6086H133.238C138.848 36.6086 142.29 33.6646 142.29 28.9286C142.29 24.1926 138.72 21.3766 133.11 21.3766ZM133.11 33.0246H129.03V24.8326H133.11C136.043 24.8326 137.7 26.2406 137.7 28.9286C137.573 31.6166 136.043 33.0246 133.11 33.0246ZM74.0775 38.0166C72.8025 38.6566 71.5275 39.0406 70.125 39.0406C66.045 39.0406 62.985 36.0966 62.985 32.0006C62.985 27.9046 65.9175 24.9606 70.125 24.9606C71.655 24.9606 73.0575 25.4726 74.3325 26.2406L77.6475 23.8086L77.3925 23.5526C75.48 21.8886 72.93 20.9926 69.9975 20.9926C66.81 20.9926 64.005 22.0166 61.8375 24.0646C59.7975 26.1126 58.5225 28.9286 58.65 31.8726C58.65 34.8166 59.7975 37.6326 61.8375 39.8086C64.005 41.8566 66.9375 43.0086 69.87 42.8806C73.185 42.8806 75.99 41.7286 78.03 39.6806L75.0975 37.5046L74.0775 38.0166ZM211.65 30.0806H201.833V21.3766H197.243V42.6246H201.833V33.9206H211.65V42.6246H216.24V21.3766H211.65V30.0806ZM180.668 21.3766L171.488 42.6246H176.078L177.863 38.4006H187.553L189.338 42.6246H194.183L185.258 21.3766H180.668ZM179.393 34.8166L182.963 26.2406L186.278 34.8166H179.393ZM232.815 31.6166L241.103 21.3766H235.875L228.99 30.4646H226.44V21.3766H221.85V42.6246H226.44V34.0486H229.373L236.385 42.6246H242.25L232.815 31.6166ZM161.925 29.6966H156.315V24.9606H168.3V21.3766H151.725V42.6246H161.288C166.643 42.6246 169.703 40.1926 169.703 35.9686C169.83 31.8726 167.025 29.6966 161.925 29.6966ZM161.16 39.1686H156.315V33.2806H161.16C164.093 33.2806 165.368 34.3046 165.368 36.2246C165.495 38.1446 163.965 39.1686 161.16 39.1686Z" fill="#21A038"/>
<path d="M43.9633 20.9681C44.7911 22.0569 45.4918 23.2398 46.0513 24.4931L30.179 36.3974L23.5455 32.1667V27.0769L30.179 31.3076L43.9633 20.9681Z" fill="#21A038"/>
<path d="M16.7755 31.8073C16.7755 31.5789 16.781 31.352 16.792 31.1265L12.7719 30.926C12.7582 31.2184 12.75 31.5135 12.75 31.8114C12.7483 34.1389 13.1983 36.4438 14.0741 38.5938C14.9499 40.744 16.2344 42.697 17.8538 44.3408L20.7053 41.441C19.4588 40.1778 18.4699 38.6764 17.7955 37.0231C17.1211 35.3699 16.7744 33.5973 16.7755 31.8073Z" fill="url(#paint0_linear_10_6059)"/>
<path d="M30.1753 18.1751C30.3997 18.1751 30.6227 18.1835 30.8443 18.1946L31.0455 14.103C30.7573 14.0891 30.4672 14.0822 30.1753 14.0822C27.8866 14.0793 25.62 14.5365 23.5055 15.4274C21.391 16.3182 19.4703 17.6253 17.8537 19.2735L20.7052 22.1748C21.9468 20.9061 23.4226 19.8996 25.0479 19.2132C26.6731 18.5268 28.4156 18.174 30.1753 18.1751Z" fill="url(#paint1_linear_10_6059)"/>
<path d="M30.1753 45.4411C29.951 45.4411 29.7279 45.4411 29.5049 45.423L29.3038 49.5131C29.5929 49.528 29.8835 49.5355 30.1753 49.5355C32.4631 49.5379 34.7286 49.0804 36.8419 48.1893C38.9553 47.2982 40.8748 45.9909 42.4901 44.3427L39.6441 41.4429C38.4023 42.7109 36.9266 43.7168 35.3017 44.403C33.6768 45.0891 31.9346 45.442 30.1753 45.4411Z" fill="url(#paint2_linear_10_6059)"/>
<path d="M37.7286 20.5535L41.1165 18.0128C38.0199 15.4616 34.1545 14.0729 30.17 14.08V18.1743C32.8681 18.1709 35.5037 19.0005 37.7286 20.5535Z" fill="url(#paint3_linear_10_6059)"/>
<path d="M47.5995 31.8079C47.6016 30.7428 47.5101 29.6795 47.3257 28.631L43.5753 31.4431C43.5753 31.5643 43.5753 31.6854 43.5753 31.8079C43.5763 33.7127 43.1838 35.5966 42.4234 37.3372C41.663 39.0779 40.5515 40.6365 39.1611 41.9121L41.8663 44.9541C43.6739 43.2937 45.1183 41.2655 46.106 39.0009C47.0937 36.7362 47.6025 34.2855 47.5995 31.8079Z" fill="#21A038"/>
<path d="M30.1754 45.4417C28.303 45.4423 26.4514 45.0429 24.7404 44.2692C23.0294 43.4956 21.4971 42.3649 20.2429 40.9506L17.2545 43.7015C18.8862 45.5409 20.8796 47.0107 23.1055 48.0159C25.3314 49.0209 27.7401 49.5389 30.1754 49.5359V45.4417Z" fill="url(#paint4_linear_10_6059)"/>
<path d="M21.1897 21.7034L18.4859 18.6615C16.6778 20.3215 15.2328 22.3496 14.2447 24.6143C13.2565 26.879 12.7473 29.3297 12.75 31.8076H16.7756C16.7747 29.9028 17.1672 28.019 17.9276 26.2784C18.6881 24.5378 19.7994 22.9791 21.1897 21.7034Z" fill="url(#paint5_linear_10_6059)"/>
<defs>
<linearGradient id="paint0_linear_10_6059" x1="18.6679" y1="43.8299" x2="14.1326" y2="30.9438" gradientUnits="userSpaceOnUse">
<stop offset="0.14" stop-color="#F1E813"/>
<stop offset="0.3" stop-color="#E6E418"/>
<stop offset="0.58" stop-color="#C9DA26"/>
<stop offset="0.89" stop-color="#A2CC39"/>
</linearGradient>
<linearGradient id="paint1_linear_10_6059" x1="19.0031" y1="19.9974" x2="30.3802" y2="15.736" gradientUnits="userSpaceOnUse">
<stop offset="0.06" stop-color="#0FA7DF"/>
<stop offset="0.54" stop-color="#0098F8"/>
<stop offset="0.92" stop-color="#0290EA"/>
</linearGradient>
<linearGradient id="paint2_linear_10_6059" x1="29.0384" y1="47.0643" x2="41.8695" y2="44.2153" gradientUnits="userSpaceOnUse">
<stop offset="0.12" stop-color="#A2CC39"/>
<stop offset="0.28" stop-color="#86C239"/>
<stop offset="0.87" stop-color="#219F38"/>
</linearGradient>
<linearGradient id="paint3_linear_10_6059" x1="29.3326" y1="15.4513" x2="40.3169" y2="18.7829" gradientUnits="userSpaceOnUse">
<stop offset="0.06" stop-color="#0290EA"/>
<stop offset="0.79" stop-color="#0C89CA"/>
</linearGradient>
<linearGradient id="paint4_linear_10_6059" x1="18.2643" y1="43.2031" x2="30.2349" y2="47.6002" gradientUnits="userSpaceOnUse">
<stop offset="0.13" stop-color="#F1E813"/>
<stop offset="0.3" stop-color="#EAE616"/>
<stop offset="0.53" stop-color="#D8DF1F"/>
<stop offset="0.8" stop-color="#BAD52D"/>
<stop offset="0.98" stop-color="#A2CC39"/>
</linearGradient>
<linearGradient id="paint5_linear_10_6059" x1="14.2497" y1="32.3032" x2="19.1806" y2="19.6959" gradientUnits="userSpaceOnUse">
<stop offset="0.07" stop-color="#A2CC39"/>
<stop offset="0.26" stop-color="#81C45E"/>
<stop offset="0.92" stop-color="#0FA7DF"/>
</linearGradient>
</defs>
</svg>
