<svg width="274" height="68" viewBox="0 0 274 68" fill="none" xmlns="http://www.w3.org/2000/svg">
<path d="M79.6222 30.4176L80.5046 27.6666L77.6345 27.7568C76.2902 27.7075 74.9953 27.2572 73.9067 26.4631H74.2943C76.0428 26.455 77.6428 25.4642 78.418 23.9086L79.6799 21.2315C78.6902 21.2396 77.7005 21.1822 76.7191 21.0594C75.7788 20.8384 74.9376 20.3309 74.3025 19.6104C73.4448 18.7016 72.2572 18.1858 71.0036 18.1776C70.5169 18.1776 70.0303 18.2595 69.5603 18.4068C69.6263 18.1858 69.684 17.9648 69.7252 17.7355C69.9232 16.139 69.4696 14.526 68.4715 13.257L66.2942 10.5961L64.9581 13.7073C64.7437 14.1494 64.4221 14.5343 64.0097 14.8125C63.7787 13.6991 63.2344 12.6839 62.4261 11.8815C61.0737 10.5061 59.2179 9.73648 57.2797 9.75286C56.9416 9.75286 56.6035 9.77742 56.2736 9.82654L53.6673 10.3341C53.8901 9.46629 54.2446 8.63938 54.723 7.87796L56.1581 5.6592L52.5457 5.99489L51.391 3.5387L49.1642 4.74224L47.1024 2.71997L45.0404 4.74224L42.8136 3.59601L41.659 5.99489L38.0466 5.58552L39.4816 7.81246C39.96 8.57389 40.3146 9.40079 40.5374 10.2687L38.0631 9.78561H37.9807C37.6342 9.73648 37.2879 9.71192 36.9414 9.71192C35.0032 9.69555 33.1476 10.4651 31.795 11.8406C30.9785 12.6512 30.4177 13.6828 30.195 14.8125C29.7992 14.5424 29.4775 14.174 29.2631 13.7401L27.9187 10.6043L25.7249 13.2734C24.7434 14.5425 24.3063 16.1471 24.496 17.7355C24.5373 17.9648 24.5949 18.1858 24.661 18.4068C24.1908 18.2595 23.7042 18.1776 23.2177 18.1776C21.964 18.1858 20.7763 18.7016 19.9186 19.6104C19.2918 20.3226 18.4588 20.8303 17.5268 21.0594C16.5371 21.2069 15.531 21.2641 14.5248 21.2315L15.7536 23.9496C16.5289 25.5051 18.1289 26.4959 19.8773 26.5041H20.2651C19.1929 27.2818 17.9145 27.7321 16.5866 27.7894L13.7 27.6666L14.5824 30.4176C15.2424 32.5709 17.1145 34.1509 19.3661 34.4375C19.1351 35.8867 18.2114 37.1394 16.8918 37.7944L14.6815 38.6867L15.8691 40.7418C16.8506 42.2564 18.5413 43.157 20.3475 43.1407C20.8176 43.1407 21.2878 43.0914 21.7496 42.9932C21.8651 43.4926 22.0134 43.992 22.1784 44.4751C22.5908 45.5559 22.6156 46.7349 22.2609 47.832L21.1887 50.067L23.5888 50.6975C24.1249 50.8366 24.6856 50.9022 25.2383 50.9022C25.6341 50.9022 26.0218 50.8612 26.4094 50.7712C26.6898 50.7057 26.9702 50.6238 27.2341 50.5173C27.5393 51.0659 27.9269 51.5735 28.3641 52.0238C29.8981 53.5876 32.0754 54.3817 34.8383 54.3817H36.8094L32.7434 56.0601L35.828 57.5748C37.0734 58.1806 38.3436 58.7293 39.6384 59.2122L39.2672 60.2767L40.3312 60.7596C42.0961 61.4474 43.9682 61.8322 45.8653 61.8977H48.3972C50.2859 61.8322 52.1497 61.4392 53.9065 60.7514L54.9374 60.2767L54.5745 59.2122C55.8859 58.7128 57.1726 58.1479 58.4261 57.5175L61.453 56.0601L57.3952 54.4227H59.3746C62.1375 54.4227 64.3232 53.604 65.8489 52.0647C66.2942 51.6144 66.6737 51.1069 66.9788 50.5582C67.2428 50.6647 67.5231 50.7466 67.8035 50.8122C68.1912 50.9022 68.5788 50.9431 68.9747 50.9431C69.5272 50.9431 70.0881 50.8694 70.6242 50.7384L73.0324 50.1079L71.985 47.9139C71.5891 46.8003 71.6057 45.5804 72.0263 44.4751C72.1994 43.9757 72.3397 43.4682 72.4551 42.9605C72.917 43.0588 73.3953 43.1079 73.8655 43.1079C75.6881 43.1242 77.3871 42.1908 78.3521 40.6517L79.5232 38.6213L77.3458 37.737C76.0262 37.082 75.1026 35.8293 74.8716 34.3802C77.1232 34.0855 78.9954 32.5135 79.6552 30.352L79.6222 30.4176Z" fill="white"/>
<path d="M57.016 39.1125H37.2219V46.481C37.2219 49.5104 39.4241 51.3935 42.6818 51.3935C45.4034 51.3935 46.121 51.4998 47.1272 52.4988C47.7623 51.8192 48.6612 51.4344 49.6014 51.4507V51.3361L50.2283 49.4203L49.1644 48.2659C48.7354 48.3969 48.29 48.4461 47.8448 48.4215C47.1766 48.4133 46.5168 48.3478 45.8653 48.2168H45.6591C45.5684 48.2168 45.5684 48.2168 45.5437 48.2659L45.42 48.4706L45.1973 48.839L44.7684 48.7408L42.8632 48.2987L42.5993 48.7243V48.7736L42.8303 49.0274L42.7313 49.3548C42.5581 49.756 42.3107 50.1162 41.9972 50.4273L41.5189 50.935L41.0818 50.3946L40.7601 49.9934C40.4138 49.5431 40.3313 48.9536 40.5293 48.4215L39.9932 48.6425L39.754 48.1186L39.622 47.75C39.2838 46.9723 39.5394 46.0717 40.224 45.5804L41.758 44.7617L43.2179 45.0483C43.2179 44.9091 43.3086 44.4097 43.3498 44.2869H43.2673L42.4426 44.598L41.6179 44.0413C41.4529 43.8776 41.4447 43.6073 41.6179 43.4354L42.4014 42.2565L40.4138 39.8003L43.3911 40.9628L43.5972 40.7172L44.0096 40.226L44.4798 40.6681C44.6035 40.7909 44.686 40.9383 44.7272 41.1102C45.5519 41.4377 47.0777 42.3956 47.2014 43.9512L46.7312 44.1395C46.7891 44.2214 46.8633 44.2869 46.954 44.3279L49.1314 44.5407L49.3293 44.4833C49.7005 44.3442 50.0962 44.2705 50.4922 44.2623C50.8881 44.2623 51.2757 44.3524 51.6304 44.5243C51.787 44.467 51.9603 44.4342 52.1252 44.4261H52.2323C53.3953 44.4261 53.9809 45.2939 54.4427 45.9816L54.6819 46.3256C55.0861 46.8987 55.6221 47.7337 55.6468 47.7665L55.886 48.1349L55.5891 48.4787C55.3169 48.839 54.8881 49.0437 54.4345 49.0437C54.3026 49.0518 54.1705 49.0518 54.0386 49.0437C53.9231 49.0192 53.8077 48.9864 53.6922 48.9373C53.6922 49.0518 53.6922 49.1911 53.6262 49.3057L53.2881 51.2379C55.5314 50.7876 57.1149 48.7899 57.0242 46.5138L57.016 39.1125ZM37.1973 38.5148H52.6118C51.9849 37.8598 51.7705 36.9183 52.051 36.0587C51.8448 35.9605 51.6468 35.8294 51.4736 35.6821C50.8715 36.1242 48.9994 37.4505 48.554 37.7861L48.4551 37.8517L42.4014 36.7874H42.2777C42.0797 36.7955 41.8819 36.7955 41.6839 36.7874C41.6261 37.0574 41.387 37.2458 41.1148 37.2458H41.0159C40.6942 37.1886 40.4714 36.8855 40.521 36.5662V36.4352C39.7374 35.8786 39.3663 34.9125 39.5725 33.9791V33.8726L39.6633 33.8072C39.6633 33.8072 39.7786 33.7253 39.9354 33.6353L39.4983 33.5697C39.3334 33.537 39.2261 33.3897 39.2509 33.2259C39.2756 33.0622 39.4241 32.9557 39.589 32.9803H39.5972L40.6447 33.144L40.7437 29.4843L42.3024 27.8468L43.2757 29.8772L42.253 33.3978L43.1766 33.5451C43.3416 33.5779 43.4489 33.7253 43.4241 33.8891C43.3994 34.0363 43.2757 34.1347 43.1272 34.1347H43.0777L42.3271 34.0119V34.0691C42.4096 34.2165 42.5334 34.3312 42.69 34.4048L47.3003 34.4785L48.4798 33.3241C47.5808 33.0129 46.9376 32.227 46.8303 31.2855C46.253 31.0645 45.7829 30.6387 45.5189 30.0902C45.2963 29.5743 45.2551 28.9931 45.4118 28.4527C44.686 28.1662 44.0262 27.7322 43.4901 27.1754H36.6446C36.9745 27.9778 37.1643 28.8293 37.1973 29.689V38.5148Z" fill="#FCE527"/>
<path d="M90.4015 32.1942H97.1974V43.6564H102.146V32.1942H108.942V28.035H90.4015V32.1942ZM115.474 37.1066V28.1006H110.69V43.6564H114.913L123.161 34.5522V43.6564H127.944V28.035H123.721L115.474 37.1066ZM143.871 33.8316H136.183V28.1006H131.4V43.6564H136.183V37.827H143.871V43.6564H148.653V28.1006H143.871V33.8316ZM165.338 32.62C164.208 32.2761 163.02 32.1369 161.841 32.1942H156.892V28.1006H152.11V43.6564L161.808 43.591C162.823 43.6073 163.829 43.4927 164.811 43.2307C167.302 42.6248 169.017 40.3734 168.935 37.827C169.033 35.4937 167.573 33.365 165.338 32.62ZM162.897 39.661C162.294 39.8657 161.652 39.9475 161.016 39.8903H156.892V35.9277H161.016C161.635 35.8867 162.261 35.9604 162.864 36.1242C163.623 36.3452 164.134 37.0411 164.118 37.827C164.126 38.6294 163.648 39.3581 162.897 39.661ZM188.975 28.1006H182.972L177.199 33.9627H175.879V28.1006H171.095V43.6564H175.879V37.7616H177.199L182.906 43.6564H189.272L181.322 35.4692L188.975 28.1006Z" fill="#222220"/>
<path d="M199.269 27.6093C192.803 27.6093 188.942 31.2117 188.942 35.8621C188.942 40.5125 192.836 44.1148 199.235 44.1148C205.636 44.1148 209.495 40.5125 209.495 35.8621C209.495 31.2117 205.734 27.6093 199.269 27.6093ZM199.235 40.3159C196.036 40.3159 193.991 38.4166 193.991 35.8621C193.991 33.3077 196.069 31.441 199.235 31.441C202.402 31.441 204.481 33.3077 204.481 35.8621C204.481 38.4166 202.435 40.3159 199.235 40.3159ZM225.257 28.7228V27.1509H220.473V28.7228C214.468 28.8537 210.873 31.3754 210.873 35.8293C210.873 40.2833 214.468 42.6085 220.473 42.7395V44.3113H225.257V42.7395C231.293 42.6085 234.889 40.2833 234.889 35.8293C234.889 31.3754 231.301 28.8537 225.257 28.7228ZM220.473 39.399C217.174 39.2681 215.722 37.9253 215.722 35.8293C215.722 33.7334 217.174 32.2269 220.473 32.096V39.399ZM225.257 39.399V32.096C228.589 32.2269 230.007 33.7334 230.007 35.8293H230.015C230.015 37.9253 228.597 39.2681 225.257 39.399ZM250.666 28.7228V27.1509H245.884V28.7228C239.879 28.8537 236.283 31.3754 236.283 35.8293C236.283 40.2833 239.879 42.6085 245.884 42.7395V44.3113H250.666V42.7395C256.704 42.6085 260.3 40.2833 260.3 35.8293C260.3 31.3754 256.704 28.8537 250.666 28.7228ZM245.884 39.399C242.585 39.2681 241.132 37.9253 241.132 35.8293C241.132 33.7334 242.585 32.2269 245.884 32.096V39.399ZM255.409 35.8293C255.409 37.9253 253.999 39.2681 250.666 39.399V32.096C253.999 32.2269 255.417 33.7334 255.417 35.8293H255.409ZM43.523 42.3301C43.4239 42.3301 43.3332 42.4038 43.325 42.502V42.5102C43.3168 42.6166 43.3993 42.7148 43.5064 42.723H43.5146C43.6301 42.723 43.7126 42.633 43.7126 42.5266C43.7126 42.412 43.6301 42.3301 43.523 42.3301ZM43.5148 42.3218C43.523 42.3218 43.523 42.3301 43.523 42.3301C43.5312 42.3301 43.5312 42.3218 43.5394 42.3218H43.5148ZM56.991 55.7491L55.8529 55.3151L56.1663 54.1443L56.5126 52.8671C54.9539 53.6612 53.321 54.2999 51.6385 54.7748C50.8137 55.0039 50.2198 55.1104 50.2198 55.1104V55.9373C49.2055 56.101 48.1828 56.1911 47.1518 56.1994H47.061C46.0301 56.1911 45.0074 56.101 43.993 55.9373V55.1186C43.993 55.1186 43.3909 55.0039 42.5662 54.7748C40.8837 54.2999 39.2506 53.6612 37.6919 52.8671L38.0301 54.1443L38.3517 55.3151L37.2054 55.7491L35.9683 56.2157C37.6672 57.0917 39.4404 57.8204 41.2714 58.3935L40.8342 59.5724C42.8218 60.3257 44.9497 60.6942 47.0776 60.6451H47.127C49.2549 60.6942 51.3828 60.3257 53.3704 59.5724L52.9415 58.3935C54.7642 57.8204 56.5374 57.0917 58.2364 56.2157L56.991 55.7491ZM37.3455 56.2894L39.193 55.6754L38.6404 53.8742C39.8528 54.4718 41.1064 54.9713 42.4012 55.3642L41.494 57.8204C40.0672 57.4438 38.6733 56.9281 37.3455 56.2894ZM47.1518 60.0637L47.1106 60.031C45.296 60.0227 43.4898 59.7771 41.7414 59.3023L42.8548 56.3057C44.2405 56.6497 45.6672 56.8379 47.1023 56.8461H47.1931C48.6282 56.8297 50.0549 56.6497 51.4405 56.3057L52.5539 59.3023C50.7971 59.7936 48.9745 60.0474 47.1518 60.0637ZM52.7765 57.8696V57.845L51.8693 55.3888C53.1642 54.9958 54.4178 54.4964 55.6302 53.8987L55.0776 55.6998L56.9498 56.3222C55.6136 56.969 54.2116 57.4929 52.7765 57.8696ZM47.1023 9.01599C48.9661 8.96686 50.7971 9.52359 52.3146 10.5961C52.5538 9.38441 53.0074 8.22182 53.6589 7.16565L51.7868 7.37852L50.8136 5.30715L48.9249 6.27325L47.1023 4.48022L45.2795 6.27325L43.3908 5.30715L42.4177 7.37852L40.5454 7.16565C41.197 8.22182 41.6506 9.38441 41.8898 10.5961C43.4074 9.52359 45.2382 8.96686 47.1023 9.01599ZM42.3352 8.09901L42.8547 8.15632L43.0775 7.68965L43.729 6.29781L44.9414 6.92004L45.4115 7.15747L45.7909 6.8136L47.1023 5.49545L48.4136 6.8136L48.793 7.18203L49.263 6.9446L50.4672 6.32237L51.127 7.71421L51.3497 8.18088L51.8693 8.12357L52.3641 8.06626C52.1662 8.51655 51.993 8.98324 51.8527 9.4581C48.8754 7.94345 45.3373 7.94345 42.3599 9.4581C42.2197 8.98324 42.0465 8.51655 41.8486 8.06626L42.3352 8.09901ZM71.5644 25.9145L71.3417 25.6444C69.8077 23.7039 68.3478 21.8618 65.7416 21.0185C65.8489 20.9285 65.9561 20.8466 66.0715 20.7729C67.3087 20.077 68.1829 18.8817 68.4633 17.498C68.6036 16.2453 68.2489 14.9927 67.4736 13.9938L66.6489 12.9704L66.1292 14.1903C66.1292 14.2641 65.2138 16.2208 63.3663 16.2208H62.822C62.921 14.9353 62.4509 13.6663 61.5355 12.7494C60.4221 11.6195 58.888 10.9891 57.2963 10.9973C56.9993 10.9973 56.7024 11.0219 56.4137 11.0628L55.1518 11.3084L55.9353 12.3318C56.5457 13.1506 57.0983 14.5669 56.4467 15.3284C56.1333 15.5986 55.7787 15.8115 55.391 15.9587C54.5663 16.3436 53.3786 16.8921 53.3786 18.2676C53.3786 19.1601 54.0797 20.0934 55.3416 20.8875C59.0611 23.2292 61.3622 25.6444 62.3602 28.3625C63.9024 32.5053 61.89 34.8633 59.9355 36.1077L59.0611 36.6645L59.8282 37.3604C60.5128 37.9416 61.354 38.3019 62.2529 38.3919H63.0034C63.7705 38.3919 64.5293 38.2856 65.2632 38.0645C65.0819 38.3838 64.8592 38.6867 64.62 38.965C63.5066 40.2505 61.857 40.9546 60.1499 40.8646H59.4158L59.3581 41.5932C59.3499 42.6166 59.8035 43.5827 60.587 44.2459C60.7932 44.426 61.0241 44.5734 61.2715 44.6879C60.0509 45.8669 59.3581 47.4799 59.3333 49.1746C59.3333 50.0998 59.1189 51.0168 58.7148 51.8519L57.89 53.0799H59.3581C61.7829 53.0799 63.6386 52.4168 64.9251 51.0987C65.5931 50.4028 66.088 49.5594 66.3766 48.6424C66.855 49.0436 67.4159 49.322 68.0263 49.4611C68.3149 49.5267 68.6118 49.5594 68.9087 49.5594C69.3541 49.5594 69.7995 49.5021 70.2283 49.4039L71.1685 49.1582L70.7561 48.2904C70.2365 46.9068 70.2365 45.3757 70.7561 43.992C71.0612 43.0914 71.2758 42.1581 71.3911 41.2084C72.1334 41.585 72.9583 41.7733 73.7912 41.7652C75.1603 41.7815 76.4386 41.1102 77.1809 39.9721L77.6345 39.1534L76.8097 38.8095C74.0469 37.6716 73.4365 34.6095 73.3128 32.9556C73.585 33.0129 73.8571 33.0457 74.1376 33.0538L74.3685 33.2094C77.3706 33.2094 78.3767 30.172 78.418 30.041L78.7562 28.9684H77.6263C75.251 28.8865 73.0324 27.7731 71.5644 25.9145ZM74.3768 32.3825H74.2613C73.6593 32.3907 73.0654 32.2269 72.5541 31.9159C72.5541 31.9159 72.1169 37.8353 76.5623 39.6693V39.6937C75.9768 40.578 74.9707 41.102 73.9067 41.0856C72.7025 41.1593 71.5396 40.6517 70.7809 39.7265C70.8056 41.1183 70.5747 42.5102 70.1046 43.8201C69.5024 45.4003 69.5024 47.1524 70.1046 48.7326C69.7334 48.8226 69.3623 48.8717 68.9829 48.8717C68.752 48.8717 68.5128 48.8471 68.2901 48.7898C67.1932 48.5279 66.319 47.7255 65.9643 46.6693C65.9643 46.6693 66.1376 52.3513 59.4653 52.3513H59.4158C59.9189 51.4016 60.1829 50.3454 60.1747 49.2729C60.4633 45.0728 63.3333 44.4751 63.3333 44.4751C62.5416 44.3769 61.7911 44.0985 61.1313 43.6564C60.5292 43.157 60.1829 42.4201 60.1663 41.6423C62.0962 41.7242 63.9602 40.93 65.222 39.4727C65.9809 38.6131 66.4839 37.5651 66.6983 36.4433C65.6344 37.2376 64.323 37.6388 62.9952 37.5814H62.319C61.6014 37.5078 60.9169 37.2294 60.3643 36.7627C62.9045 35.1252 64.6859 32.3253 63.1107 28.0759C61.8406 24.6701 58.7973 22.1239 55.7375 20.2081C54.723 19.5857 54.1127 18.8817 54.1127 18.2758C54.1127 16.8512 56.1499 16.8102 56.991 15.8196C57.9561 14.7062 57.354 12.9049 56.5126 11.8242C56.7518 11.7833 56.9993 11.7669 57.2385 11.7669C58.6159 11.7505 59.9437 12.2991 60.9003 13.2816C61.8736 14.1985 62.2447 15.5822 61.8736 16.8595L62.319 16.9495C62.5911 16.9986 62.8633 17.0232 63.1437 17.0314H63.3251C65.7416 17.0314 66.8303 14.5178 66.8303 14.5178C66.8303 14.5178 69.4035 17.6617 65.6179 20.1179C64.9664 20.5356 64.6777 20.9366 64.7932 21.346L64.8509 21.6162L65.1231 21.6653C67.8695 22.4022 69.2468 24.2853 70.9541 26.4222C72.5706 28.4608 75.0119 29.6889 77.6263 29.7789H77.6757C77.6757 29.7789 76.851 32.3825 74.3768 32.3825Z" fill="#222220"/>
<path d="M69.0817 21.3869C70.0053 21.9109 70.8054 22.6233 71.4322 23.4748C71.9024 24.1952 72.5704 24.7683 73.3621 25.1122C73.659 25.2104 73.9807 25.2595 74.2941 25.2595C75.5559 25.2595 76.7107 24.5473 77.288 23.4338L77.7663 22.3695L76.6034 22.3039C75.3497 22.0746 74.2199 21.4361 73.3869 20.4781C72.7684 19.815 71.9024 19.4301 70.9868 19.422C70.2776 19.4301 69.593 19.6431 68.9992 20.0197L67.927 20.7647L69.0817 21.3869ZM71.0116 20.2162L70.9868 20.2244C71.6878 20.2244 72.3476 20.5272 72.8178 21.0431C73.7827 22.1402 75.1023 22.8689 76.5539 23.1063C76.1086 23.9332 75.2426 24.4489 74.2941 24.4572C74.0631 24.4572 73.8323 24.4163 73.6095 24.3426C72.2735 23.8923 71.8033 21.8864 69.4858 20.6747C69.9394 20.38 70.4673 20.2244 71.0116 20.2162ZM69.626 31.9404L69.6095 31.924C68.9333 26.5204 64.9826 22.6151 60.5869 20.249C60.1827 20.0278 59.8032 19.8478 59.4404 19.6759C61.2549 20.0443 63.1436 19.6022 64.6033 18.4723C64.6033 18.4723 62.0548 20.3309 56.8424 18.6442C58.2858 19.5776 61.0899 20.8875 63.6548 23.0162C70.0549 28.5999 65.4776 34.0527 65.4776 34.0527C67.391 32.2515 68.059 29.5005 67.2012 27.028C68.5538 29.2631 69.2054 31.8503 69.0653 34.4539C68.8837 38.744 66.4838 42.4938 64.0095 45.4822C63.2673 46.4237 62.7558 47.529 62.5414 48.7079C62.962 47.5371 63.5972 46.4565 64.4219 45.5231C67.1023 42.4038 69.3703 39.1697 69.692 34.5112C69.9725 35.3299 71.1107 37.7125 72.9251 38.6048C72.9251 38.6048 70.6487 37.2457 69.626 31.9404ZM35.4815 51.9092C35.0855 51.0741 34.8711 50.1572 34.8629 49.2319C34.8381 47.5371 34.1371 45.9243 32.9164 44.7453C33.1638 44.6307 33.3948 44.4834 33.601 44.3032C34.3845 43.64 34.8381 42.6739 34.8299 41.6505L34.7804 40.9218H34.038C32.3391 41.0037 30.6896 40.3078 29.5762 39.0224C29.337 38.744 29.1226 38.441 28.9329 38.1218C29.6669 38.3428 30.4258 38.4493 31.1927 38.4493H31.9433C32.8422 38.3592 33.6917 37.999 34.3763 37.4176L35.1432 36.7217L34.269 36.1651C32.3061 34.9205 30.3021 32.5626 31.8443 28.4199C32.8422 25.7262 35.1432 23.2946 38.8959 20.9531C40.1577 20.1343 40.8505 19.2256 40.8505 18.3332C40.8505 16.9576 39.6877 16.4092 38.8381 16.0243C38.4505 15.8769 38.0958 15.664 37.7825 15.3939C37.1227 14.6325 37.6753 13.1833 38.2938 12.3973L39.1186 11.3739L37.8484 11.1283C37.5598 11.0792 37.2629 11.0628 36.966 11.0628C35.3578 11.0137 33.8072 11.6277 32.669 12.7494C31.7371 13.6582 31.2505 14.9353 31.3412 16.229H30.8464C28.9907 16.229 28.1164 14.2804 28.0835 14.1985L27.5638 12.9786L26.7391 14.0021C25.972 15.0009 25.6175 16.2536 25.7576 17.5061C26.0381 18.8898 26.904 20.0852 28.1412 20.7812C28.2566 20.8547 28.3721 20.9366 28.4711 21.0268C25.8649 21.8455 24.405 23.7122 22.871 25.6525L22.6483 25.9309C21.1803 27.7894 18.9535 28.9029 16.5782 28.9848H15.4482L15.7947 30.0573C15.7947 30.1883 16.8339 33.2258 19.8442 33.2258H19.9927C20.2731 33.2175 20.5452 33.1849 20.8174 33.1275C20.6937 34.7649 20.0834 37.8434 17.3123 38.9815L16.4875 39.3253L16.9411 40.144C17.6834 41.2821 18.9617 41.9535 20.3308 41.937C21.1637 41.9452 21.9803 41.757 22.7225 41.3804C22.838 42.3301 23.0524 43.2634 23.3577 44.164C23.8772 45.5477 23.8772 47.0787 23.3577 48.4623L22.9453 49.3301L23.8854 49.5758C24.3143 49.6741 24.7597 49.7313 25.2051 49.7313C25.502 49.7313 25.7989 49.6986 26.0875 49.6331C26.6979 49.4939 27.2587 49.2156 27.737 48.8144C28.0257 49.7313 28.5205 50.5747 29.1887 51.2706C30.4834 52.5887 32.3391 53.2437 34.7557 53.2518H36.2237L35.4815 51.9092ZM34.7721 52.3677C28.0999 52.3677 28.2649 46.6858 28.2649 46.6858C27.9102 47.7418 27.036 48.5442 25.939 48.8063C25.7164 48.8635 25.4772 48.8881 25.2463 48.8881C24.8669 48.8881 24.4957 48.8389 24.1329 48.7489C24.7349 47.1687 24.7349 45.4166 24.1329 43.8366C23.6628 42.5266 23.4401 41.1348 23.4648 39.7428C22.7061 40.668 21.5432 41.1757 20.339 41.102H20.2978C19.2256 41.1183 18.2195 40.5862 17.6338 39.7019C22.0793 37.8679 21.6421 31.9485 21.6421 31.9485C21.1307 32.2597 20.537 32.4234 19.9349 32.4153H19.8442C17.3699 32.4153 16.5452 29.8117 16.5452 29.8117H16.5947C19.2092 29.7298 21.6586 28.5017 23.2752 26.4631C24.9741 24.3263 26.3597 22.4431 29.1062 21.7062L29.3783 21.6571L29.4361 21.387C29.5102 20.9694 29.2215 20.5682 28.6112 20.1588C24.8256 17.7027 27.3989 14.5587 27.3989 14.5587C27.3989 14.5587 28.4711 17.0723 30.904 17.0723H31.0195C31.3 17.0641 31.572 17.0395 31.8443 16.9904L32.2897 16.9004C31.9103 15.6231 32.2896 14.2394 33.2629 13.3225C34.2196 12.34 35.5474 11.7915 36.9248 11.8078C37.164 11.8078 37.4114 11.8242 37.6505 11.8652C36.8257 12.9541 36.2154 14.7553 37.1804 15.8605C38.0052 16.8185 40.0506 16.8595 40.0506 18.3167C40.0506 18.9226 39.4815 19.6266 38.467 20.2571C35.399 22.173 32.3557 24.7192 31.0938 28.1252C29.5186 32.3743 31.3 35.1989 33.8402 36.8119C33.2876 37.2703 32.6031 37.5569 31.8855 37.6306H31.2009C29.8731 37.6879 28.5617 37.2867 27.4978 36.4926C27.7123 37.6141 28.2154 38.6622 28.9659 39.5218C30.2278 40.9709 32.0999 41.7733 34.0298 41.6914C34.0134 42.4692 33.6669 43.2061 33.0649 43.7056C32.4051 44.1476 31.6545 44.426 30.8628 44.5243C30.8628 44.5243 33.7412 45.1056 34.0546 49.322C34.0464 50.3945 34.3103 51.4506 34.8133 52.4005L34.7721 52.3677Z" fill="#222220"/>
<path d="M19.902 25.2514H19.9103C20.2237 25.2514 20.5453 25.2023 20.8422 25.1041C21.6341 24.7602 22.3021 24.1871 22.7721 23.4665C23.3907 22.6152 24.1908 21.9028 25.1144 21.3788L26.2691 20.7648L25.1969 20.0197C24.6031 19.6432 23.9185 19.4302 23.2175 19.422C22.3021 19.4302 21.4361 19.8151 20.8175 20.4864C19.9928 21.4362 18.8546 22.083 17.6093 22.3122L16.4463 22.3696L16.9165 23.4339C17.4938 24.5473 18.6402 25.2432 19.902 25.2514ZM21.3866 21.0431C21.8485 20.5273 22.5083 20.2244 23.2093 20.2244C23.7454 20.2326 24.2732 20.3963 24.7268 20.6829C22.3928 21.9191 21.9062 23.9005 20.6031 24.3508C20.3886 24.4245 20.1578 24.4654 19.9268 24.4654C18.9701 24.4654 18.0959 23.9414 17.6505 23.1064C19.102 22.8689 20.4216 22.1403 21.3866 21.0431ZM25.1558 34.4867C25.0156 31.8832 25.659 29.2959 27.0198 27.0609C26.1621 29.5333 26.8301 32.2844 28.7435 34.0855C28.7435 34.0855 24.1579 28.6328 30.5662 23.049C33.1311 20.9203 35.9271 19.6104 37.3704 18.677C32.158 20.3636 29.6095 18.5051 29.6095 18.5051C31.0693 19.635 32.9497 20.077 34.7641 19.7086C34.4012 19.8806 34.0219 20.0688 33.6177 20.2817C29.2218 22.6561 25.2466 26.5613 24.595 31.965V31.9241C23.5723 37.2295 21.2961 38.5885 21.2961 38.5885C23.1022 37.7042 24.2486 35.3136 24.5208 34.4949C24.8259 39.1616 27.1187 42.3956 29.7991 45.5068C30.6157 46.4401 31.259 47.5208 31.6796 48.6917C31.457 47.5208 30.9455 46.4156 30.1951 45.4822C27.7208 42.4939 25.3291 38.7441 25.1558 34.4867ZM45.5929 24.6292C45.8816 24.3508 46.2857 24.2198 46.6899 24.2689V25.8163C46.6816 26.2011 46.5826 26.5695 46.393 26.9053H47.9518C47.762 26.5695 47.6631 26.2011 47.6549 25.8163V24.2689C48.0507 24.2198 48.4548 24.3508 48.7435 24.6292V23.5567H45.5929V24.6292ZM44.9415 17.2033H44.925C45.1642 17.408 45.4447 17.5717 45.7498 17.6699L45.9477 17.7601V16.7449L44.1167 15.9834C44.2074 16.491 44.5044 16.9331 44.9415 17.2033ZM49.2881 17.1952L49.2798 17.2033C49.7169 16.9331 50.0138 16.491 50.1046 15.9834L48.2736 16.7449V17.7518L48.4633 17.6618C48.7684 17.5636 49.0489 17.3998 49.2881 17.1952Z" fill="#222220"/>
<path d="M52.5704 13.0933C52.5704 11.5622 49.9725 10.1868 47.1106 10.1868C44.2487 10.1868 41.6507 11.5622 41.6507 13.0933L41.7085 13.4699L42.8548 20.0197L41.7085 20.6828L38.7147 22.3695C38.7147 22.3695 38.0465 22.7133 37.7332 22.918C36.6032 23.7367 36.3642 24.8338 37.0156 25.3087C37.1806 24.1952 38.162 23.3765 39.3002 23.4092C40.2487 23.4338 41.1312 23.9086 41.6673 24.6864C41.8323 24.8829 41.9806 25.0958 42.1126 25.3087C42.2859 25.587 42.459 25.8326 42.6322 26.0701H34.995C35.6383 27.1672 36.0095 28.4034 36.092 29.6726V46.5137C36.092 50.6075 39.2508 52.5315 42.6899 52.5315C45.3292 52.5315 45.6837 52.4086 47.1354 53.8496C48.5869 52.4086 48.9416 52.5315 51.5808 52.5315C54.9952 52.5315 58.1787 50.591 58.1787 46.5137V29.6889C58.2612 28.4199 58.6323 27.1836 59.2756 26.0865H51.556C51.7291 25.8491 51.9024 25.6035 52.0756 25.3251C52.2158 25.1122 52.3643 24.8994 52.521 24.7029C53.0653 23.9251 53.9477 23.4502 54.8962 23.4256C56.0344 23.3929 57.0158 24.2116 57.1808 25.3251C57.8406 24.8584 57.6014 23.6876 56.4633 22.9343C56.1581 22.7215 55.4901 22.3858 55.4901 22.3858L52.521 20.6501L51.3746 19.9869L52.521 13.4371L52.5704 13.0933ZM42.7559 13.8465L46.7807 15.1974V21.4689L43.8198 19.9132L42.7559 13.8465ZM36.6445 27.1753H43.5806C44.1167 27.7321 44.7765 28.1743 45.5023 28.4527C45.3456 28.993 45.3869 29.5742 45.6095 30.0901C45.8735 30.6386 46.3435 31.0644 46.9208 31.2854C47.0281 32.2269 47.6715 33.0129 48.5703 33.324C48.0755 33.8234 47.589 34.2902 47.391 34.4784L42.7807 34.4048C42.624 34.3311 42.5003 34.2165 42.4178 34.069V34.0118L43.1683 34.1346H43.2177C43.3662 34.1346 43.49 34.0364 43.5147 33.889C43.5394 33.7252 43.4321 33.5778 43.2672 33.545L42.3435 33.3977L43.3662 29.8773L42.393 27.8468L40.8342 29.4842L40.7353 33.144L39.6878 32.9802C39.5228 32.9475 39.3745 33.0538 39.3415 33.2176V33.2258C39.3167 33.3896 39.4239 33.5369 39.5889 33.5697L40.026 33.6352C39.8693 33.7252 39.762 33.7907 39.7538 33.8071L39.6631 33.8725V33.979C39.4569 34.9124 39.8363 35.8785 40.6116 36.4352V36.5663C40.5621 36.8855 40.7848 37.1885 41.1064 37.2457H41.2053C41.4776 37.2457 41.7168 37.0575 41.7744 36.7873C41.9724 36.7954 42.1621 36.7954 42.36 36.7873H42.4837L48.5291 37.8762L48.6281 37.8107C49.1065 37.475 50.9456 36.1732 51.5477 35.7065C51.7209 35.8539 51.9189 35.9849 52.1251 36.0832C51.8446 36.9429 52.059 37.8844 52.6859 38.5394H37.1971V29.6889C37.1641 28.8292 36.9744 27.9777 36.6445 27.1753ZM51.0281 35.2726C50.4013 35.7311 48.8591 36.8445 48.2982 37.2376L42.8136 36.2879V36.1405C42.9044 35.772 42.9539 35.3955 42.9621 35.0189L47.5806 35.0924L47.6715 35.0024C47.7456 34.9287 49.2055 33.5287 49.9477 32.7182C50.1457 32.9638 50.3765 33.1685 50.6405 33.3322C50.5086 34.0036 50.6487 34.6995 51.0281 35.2726ZM41.8651 34.2902V34.3147C41.9888 34.544 42.1704 34.7405 42.393 34.8715C42.3848 35.2071 42.3518 35.5346 42.2941 35.8621C42.2941 35.9358 42.2941 36.0095 42.2363 36.0832V36.1977C41.8569 36.1977 41.4858 36.1405 41.1229 36.0258C40.4631 35.6738 40.0919 34.9533 40.1992 34.2165C40.4961 34.0118 40.8342 33.8808 41.1889 33.8316C41.494 33.8234 41.7662 34.0036 41.8651 34.2902ZM41.2962 33.2012L41.3869 29.738L42.2116 28.9193L42.7147 29.9591L41.7332 33.3322L41.2962 33.2012ZM50.9869 51.4425H50.1951L50.8137 49.4366C50.9126 49.1582 50.4013 48.798 50.1869 48.4787C50.69 48.7817 51.2096 49.0518 51.7457 49.2974C51.7457 49.3629 50.9869 51.4425 50.9869 51.4425ZM53.1065 49.1992L53.0405 49.1419L52.6117 51.3525C52.3395 51.3525 52.0508 51.4097 51.7869 51.4262L52.2406 49.2974C52.3725 48.667 50.6652 48.4787 49.824 47.2261C49.2715 47.6846 48.5621 47.8974 47.8529 47.8237C47.2261 47.8155 46.6075 47.7501 45.9972 47.6273C45.8899 47.619 45.7828 47.619 45.6755 47.6273C45.4199 47.6108 45.1725 47.7418 45.0405 47.9629L44.9168 48.1676L42.5662 47.6027L42.0054 48.5688C41.9147 48.6998 41.9312 48.8799 42.0467 48.9945L42.2034 49.1664C42.0467 49.4694 41.8487 49.7478 41.6095 49.9851L41.2632 49.5594C40.9992 49.1336 41.024 48.5851 41.3208 48.1839L42.2446 46.6365L44.2158 46.9314L43.9105 46.2353C43.4982 45.3184 44.1249 44.1476 44.191 43.4763C44.191 43.681 43.9766 43.7219 43.7622 43.7219H43.1931C43.1518 43.7138 43.1022 43.7138 43.061 43.7219L42.5249 44.0412L42.1043 43.6564C42.0384 43.5336 42.0631 43.3863 42.1621 43.2961L43.1353 42.2073L41.9806 40.8727L43.6301 41.6914L44.1249 41.102C44.257 41.233 44.1992 41.5768 44.1992 41.5768C45.3951 41.8716 46.2282 42.9523 46.1952 44.1804V44.4178C46.3601 44.6798 46.624 44.86 46.9208 44.9337L49.156 45.1547C49.6014 45.0156 50.055 44.9254 50.5168 44.8681C50.9126 44.8681 51.3085 44.9909 51.6384 45.2038C51.7952 45.0974 51.9849 45.0319 52.1745 45.0237H52.2488C53.2467 45.0237 53.6673 45.9243 54.2035 46.6612C54.6075 47.2261 55.1519 48.0776 55.1519 48.0776C54.9952 48.3068 54.7396 48.446 54.4591 48.446C54.3601 48.4542 54.2694 48.4542 54.1705 48.446C53.0983 48.2495 52.9416 46.0553 52.3312 45.8834H52.2323C52.1168 45.8834 52.0096 45.9488 51.9519 46.0553C52.2323 46.8003 52.0674 47.1033 52.3725 47.6927C52.5951 48.0448 52.8755 48.3641 53.1972 48.6342C53.1972 48.6342 53.156 48.9617 53.1065 49.1992ZM41.09 47.0542H41.0734L41.1725 47.308C41.1064 47.529 40.3476 47.8483 40.3476 47.8483L40.1826 47.488C39.9682 46.9723 40.125 46.3828 40.5786 46.0471L41.8239 45.2938L43.1518 45.5722C43.1435 45.8343 43.226 46.088 43.3827 46.3009L41.9888 46.039L41.1641 46.6121C41.0322 46.7267 41.0074 46.9068 41.09 47.0542ZM57.0406 46.5219C57.1313 48.798 55.5395 50.7957 53.2879 51.2378L53.6673 49.2566C53.6673 49.1419 53.7085 49.0027 53.7251 48.888C53.8406 48.9373 53.9561 48.9699 54.0714 48.9945C54.2035 49.0027 54.3354 49.0027 54.4673 48.9945C54.921 48.9945 55.3498 48.7898 55.622 48.4296L55.9189 48.0858L55.6714 47.7501C55.6714 47.7501 55.1189 46.8822 54.7066 46.309L54.4756 45.9652C54.0137 45.2775 53.4282 44.4097 52.2652 44.4097H52.1581C51.9931 44.4178 51.82 44.4506 51.6632 44.5079C51.3085 44.336 50.921 44.2459 50.525 44.2459C50.1291 44.2541 49.7333 44.3278 49.3622 44.4669L49.1642 44.5243L46.9869 44.3113C46.8962 44.2704 46.8219 44.205 46.7643 44.1231L47.2343 43.9348C47.1024 42.371 45.5848 41.413 44.7601 41.0937C44.7188 40.9218 44.6364 40.7745 44.5127 40.6517L44.0425 40.2096L43.6301 40.7008L43.4239 40.9464L40.3724 39.7019L42.36 42.1582L41.5765 43.337C41.4115 43.5008 41.4033 43.771 41.5765 43.9429L42.4012 44.4997L43.226 44.1885H43.3084C43.3084 44.3113 43.2177 44.8109 43.1765 44.95L41.7414 44.7044L40.2074 45.5231C39.4982 46.0307 39.2508 46.964 39.6219 47.7501L39.7951 48.1185L40.0343 48.6424L40.5703 48.4214C40.3724 48.9536 40.4549 49.5431 40.8012 49.9934L41.1229 50.4028L41.5518 50.9431L42.0301 50.4354C42.3435 50.1244 42.591 49.7641 42.7641 49.3629L42.8632 49.0354L42.6322 48.7817V48.7326L42.8961 48.3068L44.8013 48.7489L45.2301 48.8471L45.4611 48.4705L45.5848 48.2658C45.5848 48.2249 45.5848 48.2167 45.7003 48.2167H45.9065C46.5581 48.3477 47.2179 48.4132 47.8777 48.4214C48.3229 48.446 48.7683 48.3968 49.1972 48.2658L50.2528 49.4613L49.626 51.377V51.4916C48.6858 51.4753 47.7868 51.86 47.1518 52.5396C46.1373 51.5407 45.4199 51.4343 42.7064 51.4343C39.4487 51.4343 37.2466 49.5431 37.2466 46.5219V39.1534H57.0406V46.5219ZM57.5767 27.1753C57.2384 27.9696 57.0571 28.8211 57.024 29.6889V35.2071C56.3066 35.0515 55.7705 34.4458 55.7209 33.7171V33.4632H55.4735C55.0447 33.4305 54.6487 33.234 54.3519 32.931C53.9889 32.5135 53.791 31.9895 53.7828 31.441C53.4282 32.0141 53.4611 32.7509 53.8736 33.2913C54.1951 33.6925 54.6653 33.9627 55.1766 34.0281C55.3251 34.9779 56.092 35.7148 57.0488 35.8376V38.5394H53.5848C52.6776 38.0809 52.2982 37.0083 52.7024 36.0832L52.8343 35.7884L52.5292 35.6738C51.5395 35.3299 50.9951 34.2737 51.3085 33.2749L51.3746 33.0293L51.1436 32.9228C50.2776 32.4234 49.7992 31.4491 49.9395 30.4667C49.4859 30.9251 49.3704 31.621 49.6591 32.1942C49.4941 32.3825 49.2797 32.6035 49.0405 32.8491C48.1745 32.6691 47.5478 31.9241 47.5147 31.0479V30.8433L47.325 30.7696C46.8219 30.6223 46.4096 30.2783 46.1704 29.8199C46.0136 29.4433 45.9806 29.0176 46.0879 28.6246C46.2528 28.6573 46.4178 28.6818 46.5827 28.6983C46.7477 28.7064 46.9208 28.7064 47.0858 28.6983C48.422 28.6983 49.6921 28.1252 50.5827 27.1427L57.5767 27.1753ZM52.2323 21.5917L53.5848 22.4104L53.9231 22.6068C53.222 22.7952 52.5869 23.1718 52.0838 23.6958L52.0261 23.7449C51.9107 23.8677 51.8034 23.9905 51.6963 24.1216L51.6302 24.2035C51.5229 24.3344 51.424 24.4736 51.3333 24.621L51.2839 24.6947C51.1684 24.8584 51.0611 25.0385 50.9538 25.2186C50.2034 26.7006 48.7436 27.6912 47.0858 27.8549C45.4281 27.6912 43.9684 26.7006 43.2177 25.2186C43.1106 25.0385 43.0033 24.8666 42.8961 24.6947L42.8302 24.6045L42.5662 24.1789L42.492 24.0888C42.3848 23.9579 42.2775 23.8349 42.1704 23.7204L42.1126 23.663C41.6095 23.139 40.9745 22.7624 40.2735 22.5742L40.6198 22.3777L41.9806 21.559L43.3745 20.7402L47.0942 22.7461L50.8137 20.8056L52.2323 21.5917ZM50.4013 19.9542L47.4405 21.5016V15.2056L51.457 13.8547L50.4013 19.9542ZM47.1024 14.5424L42.6982 12.7903C43.0694 11.9061 44.8013 11.1529 47.1024 11.1529C49.4034 11.1529 51.1354 11.9061 51.5065 12.7903L47.1024 14.5424Z" fill="#222220"/>
</svg>
